<svg id="svg" version="1.1" xmlns="http://www.w3.org/2000/svg" xmlns:xlink="http://www.w3.org/1999/xlink" width="400" height="400" viewBox="0, 0, 400,400"><g id="svgg"><path id="path0" d="M0.000 200.000 L 0.000 400.000 200.000 400.000 L 400.000 400.000 400.000 200.000 L 400.000 0.000 200.000 0.000 L 0.000 0.000 0.000 200.000 M381.024 17.368 C 381.790 17.928,381.800 20.230,381.800 199.256 L 381.800 380.576 380.800 381.082 C 379.489 381.745,18.812 381.848,17.574 381.186 C 16.452 380.586,16.341 18.770,17.462 17.531 C 18.368 16.530,379.656 16.368,381.024 17.368 M271.413 86.670 C 270.760 86.780,269.742 87.214,269.151 87.635 C 268.560 88.056,267.902 88.400,267.689 88.400 C 267.090 88.400,262.400 92.834,262.400 93.400 C 262.400 93.676,262.146 94.113,261.835 94.371 C 261.524 94.629,261.054 95.776,260.790 96.920 C 260.526 98.064,260.060 99.399,259.755 99.886 C 258.727 101.528,260.252 110.309,261.842 111.899 C 262.149 112.206,262.400 112.626,262.400 112.832 C 262.400 113.161,263.978 115.053,265.211 116.200 C 265.447 116.420,265.941 116.915,266.309 117.300 C 266.677 117.685,267.183 118.000,267.433 118.000 C 267.683 118.000,268.588 118.495,269.444 119.100 C 271.441 120.511,281.239 120.811,282.683 119.505 C 283.106 119.123,284.052 118.601,284.786 118.345 C 285.998 117.922,286.840 117.336,288.140 116.011 C 289.976 114.139,290.319 113.704,290.556 112.948 C 290.703 112.479,291.159 111.709,291.568 111.237 C 291.977 110.765,292.428 109.528,292.570 108.489 C 292.712 107.450,293.124 105.915,293.485 105.077 C 294.095 103.663,294.094 103.422,293.472 101.677 C 293.104 100.645,292.687 98.944,292.547 97.898 C 292.406 96.852,291.961 95.616,291.557 95.151 C 291.154 94.686,290.715 93.961,290.581 93.541 C 290.329 92.745,286.578 88.800,286.074 88.800 C 285.915 88.800,285.078 88.319,284.214 87.732 C 282.625 86.652,275.184 86.035,271.413 86.670 M147.361 91.371 C 146.262 91.849,146.094 92.147,145.874 94.006 C 145.737 95.158,145.359 96.509,145.032 97.007 C 144.706 97.505,144.231 99.148,143.977 100.656 C 143.723 102.165,143.271 103.789,142.972 104.264 C 142.674 104.739,142.255 106.209,142.042 107.530 C 141.829 108.852,141.374 110.478,141.029 111.143 C 140.685 111.809,140.234 113.547,140.028 115.004 C 139.821 116.462,139.440 117.911,139.181 118.223 C 138.921 118.536,138.464 120.074,138.166 121.641 C 137.867 123.208,137.447 124.702,137.233 124.961 C 137.018 125.219,136.648 126.649,136.410 128.138 C 136.172 129.627,135.623 131.507,135.189 132.317 C 134.755 133.126,134.400 134.387,134.400 135.120 C 134.400 135.852,134.047 137.295,133.616 138.326 C 133.185 139.357,132.630 141.370,132.383 142.800 C 132.136 144.230,131.702 145.670,131.419 146.000 C 131.135 146.330,130.778 147.590,130.625 148.800 C 130.472 150.010,130.019 151.743,129.618 152.651 C 129.217 153.559,128.762 155.269,128.606 156.451 C 128.451 157.633,128.059 159.017,127.735 159.526 C 127.412 160.036,126.970 161.549,126.755 162.890 C 126.539 164.230,126.011 166.099,125.581 167.042 C 125.151 167.985,124.800 169.448,124.800 170.293 C 124.800 171.139,124.431 172.544,123.979 173.415 C 123.528 174.287,123.053 175.900,122.923 177.000 C 122.793 178.100,122.374 179.630,121.991 180.400 C 121.608 181.170,121.165 182.790,121.006 184.000 C 120.846 185.210,120.398 186.740,120.009 187.400 C 119.620 188.060,119.203 189.619,119.083 190.864 C 118.963 192.110,118.571 193.577,118.212 194.125 C 117.853 194.673,117.370 196.354,117.139 197.861 C 116.908 199.367,116.480 200.871,116.187 201.202 C 115.893 201.533,115.529 202.793,115.377 204.002 C 115.225 205.211,114.768 207.010,114.361 208.000 C 113.954 208.990,113.448 210.913,113.237 212.274 C 113.026 213.634,112.588 215.164,112.265 215.674 C 111.941 216.183,111.552 217.590,111.400 218.800 C 111.248 220.010,110.877 221.390,110.575 221.866 C 110.273 222.342,109.835 223.927,109.602 225.388 C 109.368 226.849,108.823 228.707,108.389 229.517 C 107.955 230.326,107.596 231.621,107.591 232.394 C 107.586 233.167,107.228 234.582,106.794 235.538 C 106.360 236.494,105.831 238.360,105.617 239.686 C 105.404 241.012,104.980 242.480,104.676 242.948 C 104.371 243.417,103.993 244.790,103.835 246.000 C 103.677 247.210,103.219 248.943,102.818 249.851 C 102.417 250.759,101.956 252.464,101.794 253.641 C 101.633 254.818,101.264 256.145,100.975 256.590 C 100.686 257.036,100.233 258.660,99.968 260.200 C 99.702 261.740,99.260 263.360,98.985 263.800 C 98.709 264.240,98.274 265.860,98.017 267.400 C 97.760 268.940,97.273 270.627,96.934 271.149 C 96.130 272.386,95.560 276.436,96.095 277.100 C 96.537 277.648,122.864 277.780,124.800 277.243 C 125.685 276.998,125.827 276.693,126.034 274.583 C 126.162 273.272,126.547 271.660,126.889 271.000 C 127.232 270.340,127.715 268.483,127.963 266.874 C 128.212 265.265,128.662 263.555,128.963 263.074 C 129.264 262.593,129.629 261.079,129.774 259.708 C 129.919 258.337,130.374 256.447,130.785 255.508 C 131.196 254.569,131.656 252.720,131.808 251.400 C 131.960 250.080,132.335 248.602,132.642 248.115 C 132.948 247.628,133.380 245.951,133.602 244.388 C 133.823 242.825,134.364 240.758,134.802 239.795 C 135.241 238.832,135.604 237.269,135.609 236.322 C 135.614 235.375,135.954 233.860,136.364 232.956 C 136.775 232.052,137.237 230.564,137.391 229.651 C 137.826 227.079,136.700 227.173,165.575 227.292 C 195.826 227.416,193.129 227.024,193.652 231.371 C 193.825 232.802,194.262 234.546,194.624 235.246 C 194.986 235.946,195.456 237.797,195.669 239.359 C 195.882 240.922,196.301 242.578,196.599 243.041 C 196.897 243.503,197.333 245.263,197.568 246.951 C 197.803 248.639,198.277 250.452,198.623 250.979 C 198.969 251.507,199.345 252.987,199.459 254.269 C 199.573 255.551,200.007 257.434,200.424 258.453 C 200.841 259.473,201.297 261.363,201.438 262.653 C 201.579 263.944,201.943 265.398,202.246 265.885 C 202.550 266.372,202.973 267.999,203.186 269.500 C 203.399 271.002,204.010 273.394,204.545 274.816 L 205.516 277.400 219.811 277.505 C 236.348 277.627,236.764 277.503,234.115 273.259 C 233.792 272.742,233.360 271.130,233.154 269.677 C 232.948 268.224,232.634 266.937,232.455 266.817 C 231.941 266.472,231.200 263.999,231.200 262.625 C 231.200 261.934,230.856 260.694,230.435 259.870 C 230.015 259.045,229.545 257.455,229.391 256.336 C 229.237 255.217,228.786 253.559,228.389 252.651 C 227.991 251.743,227.544 250.100,227.394 249.000 C 227.245 247.900,226.797 246.280,226.400 245.400 C 226.003 244.520,225.553 242.902,225.400 241.805 C 225.247 240.708,224.877 239.336,224.577 238.755 C 224.277 238.175,223.838 236.492,223.603 235.016 C 223.367 233.540,222.920 231.942,222.609 231.466 C 222.299 230.990,221.862 229.457,221.638 228.060 C 221.415 226.663,221.040 225.289,220.805 225.007 C 220.571 224.724,220.114 223.108,219.790 221.415 C 219.466 219.722,218.931 217.951,218.601 217.480 C 218.270 217.008,218.000 215.937,218.000 215.099 C 218.000 214.261,217.570 212.546,217.045 211.288 C 216.519 210.030,215.957 208.014,215.795 206.810 C 215.633 205.605,215.266 204.255,214.979 203.810 C 214.692 203.364,214.260 201.894,214.019 200.541 C 213.777 199.189,213.331 197.569,213.027 196.941 C 212.724 196.314,212.346 194.819,212.189 193.619 C 212.031 192.419,211.577 190.799,211.178 190.019 C 210.780 189.239,210.333 187.700,210.184 186.600 C 210.035 185.500,209.669 184.210,209.370 183.734 C 209.071 183.258,208.633 181.656,208.396 180.174 C 208.159 178.693,207.613 176.707,207.183 175.762 C 206.752 174.817,206.400 173.484,206.400 172.800 C 206.400 172.116,206.056 170.801,205.636 169.878 C 205.215 168.955,204.659 167.030,204.401 165.600 C 204.142 164.170,203.761 162.795,203.554 162.545 C 203.347 162.295,202.922 160.855,202.609 159.345 C 202.297 157.835,201.678 155.610,201.234 154.400 C 200.790 153.190,200.420 151.565,200.413 150.789 C 200.406 150.013,200.121 148.980,199.781 148.494 C 199.440 148.008,198.971 146.483,198.738 145.105 C 198.504 143.727,198.082 142.231,197.800 141.780 C 197.518 141.329,197.079 139.625,196.826 137.993 C 196.573 136.360,196.098 134.729,195.770 134.367 C 195.443 134.006,195.066 132.740,194.932 131.555 C 194.798 130.370,194.432 128.893,194.119 128.272 C 193.807 127.652,193.289 125.777,192.970 124.106 C 192.650 122.435,192.209 120.852,191.991 120.589 C 191.772 120.325,191.407 119.050,191.179 117.755 C 190.951 116.460,190.429 114.590,190.019 113.600 C 189.609 112.610,189.147 110.770,188.992 109.512 C 188.838 108.254,188.472 107.026,188.181 106.784 C 187.889 106.542,187.530 105.322,187.383 104.072 C 187.236 102.822,186.785 101.080,186.381 100.200 C 185.978 99.320,185.466 97.477,185.244 96.105 C 184.968 94.395,184.489 93.167,183.721 92.205 L 182.600 90.800 165.600 90.816 C 152.245 90.828,148.334 90.947,147.361 91.371 M166.567 122.500 C 166.668 122.995,166.849 124.137,166.969 125.037 C 167.090 125.938,167.531 127.468,167.949 128.437 C 168.367 129.407,168.831 131.349,168.980 132.754 C 169.130 134.158,169.505 135.694,169.815 136.167 C 170.125 136.640,170.557 138.285,170.775 139.823 C 170.993 141.362,171.474 143.226,171.843 143.967 C 172.213 144.707,172.643 146.413,172.799 147.757 C 172.956 149.100,173.377 150.862,173.735 151.670 C 174.093 152.479,174.500 154.189,174.640 155.470 C 174.780 156.752,175.143 158.198,175.446 158.685 C 175.750 159.172,176.180 160.847,176.401 162.408 C 176.623 163.970,177.094 165.808,177.448 166.493 C 177.802 167.178,178.242 168.923,178.425 170.369 C 178.607 171.816,179.028 173.542,179.360 174.204 C 179.692 174.867,180.171 176.748,180.425 178.384 C 180.679 180.021,181.118 181.729,181.401 182.180 C 181.684 182.631,182.040 184.080,182.192 185.400 C 182.344 186.720,182.809 188.580,183.226 189.533 C 184.408 192.234,184.715 196.380,183.785 197.060 C 182.987 197.644,149.262 197.813,147.200 197.244 C 146.105 196.942,145.570 194.800,146.353 193.857 C 146.577 193.586,146.880 192.113,147.026 190.583 C 147.172 189.052,147.551 187.260,147.869 186.600 C 148.186 185.940,148.713 183.880,149.039 182.022 C 149.365 180.164,149.797 178.444,150.000 178.200 C 150.203 177.956,150.571 176.416,150.819 174.778 C 151.067 173.140,151.530 171.394,151.847 170.897 C 152.163 170.400,152.577 168.766,152.765 167.266 C 152.954 165.766,153.379 164.013,153.710 163.369 C 154.041 162.726,154.520 160.850,154.775 159.201 C 155.030 157.551,155.472 155.841,155.759 155.401 C 156.045 154.960,156.409 153.443,156.568 152.029 C 156.726 150.616,157.179 148.816,157.574 148.029 C 157.969 147.243,158.418 145.430,158.572 144.000 C 158.727 142.570,159.091 141.031,159.383 140.580 C 159.675 140.129,160.121 138.421,160.375 136.784 C 160.629 135.148,161.108 133.267,161.440 132.604 C 161.772 131.942,162.192 130.230,162.374 128.800 C 162.971 124.107,165.977 119.590,166.567 122.500 M261.471 140.662 C 261.322 140.811,261.200 171.474,261.200 208.802 L 261.200 276.672 262.219 277.136 C 263.648 277.787,289.553 277.786,290.982 277.135 L 292.002 276.671 291.901 208.635 L 291.800 140.600 276.771 140.495 C 268.506 140.438,261.621 140.513,261.471 140.662 " stroke="none" fill="#f19223" fill-rule="evenodd"></path><path id="path1" d="M18.000 199.800 L 18.000 380.401 199.100 380.300 L 380.200 380.200 380.200 199.800 L 380.200 19.400 199.100 19.300 L 18.000 19.199 18.000 199.800 M280.909 84.800 C 281.493 85.259,282.532 85.600,283.348 85.600 C 284.185 85.600,285.063 85.896,285.484 86.320 C 285.878 86.716,286.709 87.360,287.331 87.750 C 289.137 88.882,290.388 90.086,291.311 91.580 C 291.784 92.345,292.492 93.292,292.885 93.685 C 293.278 94.078,293.600 94.857,293.600 95.416 C 293.600 95.975,293.947 96.920,294.372 97.516 C 295.707 99.389,295.727 107.873,294.400 109.200 C 293.960 109.640,293.600 110.436,293.600 110.969 C 293.600 111.502,293.150 112.473,292.600 113.127 C 292.050 113.781,291.600 114.436,291.600 114.584 C 291.600 115.095,287.319 119.200,286.786 119.200 C 286.492 119.200,285.847 119.580,285.353 120.044 C 282.522 122.704,270.032 122.703,267.554 120.043 C 267.122 119.579,266.569 119.200,266.324 119.200 C 265.772 119.200,261.600 115.003,261.600 114.449 C 261.600 114.227,261.241 113.794,260.803 113.487 C 260.364 113.180,259.884 112.319,259.735 111.575 C 259.586 110.830,259.157 109.891,258.782 109.488 C 257.316 107.915,257.347 98.878,258.826 96.776 C 259.222 96.212,259.674 95.222,259.830 94.576 C 259.985 93.929,260.447 93.078,260.856 92.684 C 261.265 92.291,261.600 91.828,261.600 91.656 C 261.600 91.075,265.100 87.686,265.993 87.402 C 266.480 87.248,267.221 86.779,267.639 86.361 C 268.073 85.927,268.959 85.599,269.700 85.597 C 270.415 85.596,271.540 85.237,272.200 84.800 C 273.939 83.648,279.445 83.648,280.909 84.800 M183.732 89.630 C 185.429 90.101,186.400 91.707,186.400 94.040 C 186.400 94.736,186.739 95.867,187.154 96.553 C 187.569 97.239,188.033 98.850,188.187 100.133 C 188.340 101.416,188.791 103.036,189.188 103.733 C 189.585 104.430,190.005 106.150,190.122 107.556 C 190.239 108.962,190.502 110.222,190.707 110.356 C 191.457 110.846,192.000 112.388,192.000 114.026 C 192.000 115.033,192.336 116.249,192.839 117.063 C 193.349 117.888,193.761 119.395,193.889 120.910 C 194.030 122.564,194.356 123.681,194.860 124.235 C 195.375 124.803,195.700 125.956,195.874 127.835 C 196.027 129.476,196.358 130.768,196.690 131.012 C 196.997 131.239,197.463 132.769,197.727 134.412 C 197.990 136.056,198.498 137.850,198.856 138.400 C 199.215 138.950,199.603 140.538,199.719 141.930 C 199.852 143.524,200.186 144.743,200.623 145.226 C 201.068 145.717,201.408 146.988,201.571 148.768 C 201.738 150.582,202.073 151.817,202.538 152.331 C 202.968 152.807,203.339 154.042,203.475 155.459 C 203.600 156.746,204.025 158.340,204.420 159.000 C 204.816 159.660,205.269 161.370,205.428 162.800 C 205.591 164.279,206.019 165.790,206.419 166.305 C 206.809 166.806,207.248 168.322,207.404 169.705 C 207.559 171.077,207.952 172.501,208.276 172.869 C 208.601 173.236,209.031 174.841,209.231 176.434 C 209.440 178.099,209.872 179.638,210.248 180.053 C 210.619 180.463,211.015 181.858,211.167 183.287 C 211.313 184.669,211.757 186.289,212.153 186.886 C 212.564 187.505,212.963 189.051,213.083 190.486 C 213.207 191.987,213.526 193.187,213.873 193.464 C 214.197 193.722,214.643 195.232,214.878 196.864 C 215.111 198.479,215.568 200.106,215.895 200.480 C 216.221 200.854,216.625 202.384,216.792 203.880 C 216.959 205.376,217.458 207.230,217.901 208.000 C 218.344 208.770,218.824 210.473,218.967 211.785 C 219.110 213.096,219.404 214.279,219.621 214.413 C 220.159 214.746,220.800 217.103,220.800 218.750 C 220.800 219.496,221.177 220.716,221.639 221.463 C 222.141 222.276,222.568 223.818,222.702 225.310 C 222.835 226.780,223.162 227.972,223.500 228.221 C 223.830 228.464,224.262 229.984,224.521 231.821 C 224.768 233.569,225.215 235.187,225.513 235.415 C 225.812 235.644,226.201 236.997,226.378 238.423 C 226.555 239.849,227.082 241.729,227.550 242.602 C 228.079 243.589,228.400 244.915,228.400 246.110 C 228.400 247.396,228.663 248.391,229.193 249.116 C 229.642 249.730,230.147 251.353,230.357 252.859 C 230.561 254.322,231.002 255.942,231.338 256.459 C 231.673 256.977,232.075 258.570,232.231 260.000 C 232.394 261.485,232.817 262.988,233.219 263.505 C 233.609 264.006,234.048 265.522,234.204 266.905 C 234.359 268.277,234.762 269.713,235.100 270.095 C 235.482 270.526,235.871 272.257,236.127 274.655 C 236.740 280.415,237.960 280.006,220.256 279.972 C 202.497 279.937,203.109 280.138,202.404 274.117 C 202.203 272.403,201.670 270.287,201.220 269.415 C 200.689 268.390,200.400 267.066,200.400 265.663 C 200.400 264.152,200.143 263.079,199.552 262.122 C 199.000 261.230,198.633 259.815,198.501 258.075 C 198.386 256.546,198.044 255.108,197.703 254.718 C 197.376 254.342,196.913 252.542,196.674 250.718 C 196.436 248.893,196.007 247.162,195.721 246.872 C 195.112 246.253,194.922 245.435,194.650 242.259 C 194.538 240.953,194.172 239.612,193.823 239.226 C 193.469 238.834,193.026 237.179,192.801 235.411 C 192.584 233.694,192.201 232.043,191.952 231.742 C 191.702 231.441,191.379 230.611,191.233 229.898 L 190.967 228.600 165.564 228.497 C 136.401 228.379,138.880 228.030,138.409 232.322 C 138.235 233.904,137.827 235.604,137.503 236.099 C 137.179 236.595,136.783 238.260,136.624 239.800 C 136.465 241.340,136.006 243.168,135.603 243.862 C 135.201 244.556,134.745 246.356,134.590 247.862 C 134.436 249.368,133.992 251.140,133.604 251.800 C 133.217 252.460,132.804 254.120,132.689 255.490 C 132.560 257.006,132.150 258.511,131.639 259.337 C 131.058 260.276,130.800 261.359,130.800 262.853 C 130.800 264.294,130.516 265.542,129.945 266.606 C 129.460 267.510,128.947 269.478,128.758 271.154 C 128.576 272.778,128.174 274.398,127.864 274.754 C 127.555 275.109,127.186 276.044,127.046 276.831 C 126.481 279.988,127.559 279.800,110.052 279.800 C 99.178 279.800,94.306 279.666,93.997 279.358 C 93.263 278.623,93.411 274.728,94.195 274.154 C 94.577 273.875,94.949 272.913,95.054 271.931 C 95.425 268.494,95.642 267.615,96.278 266.980 C 96.684 266.573,97.020 265.289,97.182 263.520 C 97.344 261.754,97.661 260.538,98.035 260.253 C 98.386 259.985,98.810 258.526,99.070 256.681 C 99.312 254.965,99.777 253.255,100.103 252.881 C 100.428 252.506,100.796 251.162,100.919 249.893 C 101.044 248.613,101.512 246.989,101.972 246.246 C 102.482 245.419,102.800 244.227,102.800 243.137 C 102.800 242.121,103.154 240.695,103.632 239.785 C 104.089 238.913,104.614 237.062,104.797 235.670 C 104.980 234.279,105.399 232.839,105.728 232.470 C 106.057 232.102,106.452 230.720,106.605 229.400 C 106.758 228.080,107.215 226.421,107.620 225.713 C 108.026 225.006,108.479 223.296,108.628 221.913 C 108.788 220.428,109.184 219.073,109.597 218.600 C 110.023 218.112,110.394 216.795,110.549 215.228 C 110.689 213.813,111.110 212.193,111.485 211.628 C 111.860 211.062,112.287 209.469,112.433 208.087 C 112.585 206.658,112.981 205.263,113.352 204.853 C 113.728 204.438,114.160 202.899,114.369 201.234 C 114.569 199.641,115.004 198.036,115.336 197.669 C 115.668 197.301,116.067 195.869,116.223 194.486 C 116.379 193.104,116.815 191.574,117.193 191.086 C 117.584 190.580,117.992 189.084,118.142 187.600 C 118.296 186.069,118.706 184.589,119.139 184.000 C 119.578 183.402,119.965 181.983,120.101 180.470 C 120.231 179.027,120.598 177.644,120.955 177.250 C 121.299 176.870,121.769 175.227,122.000 173.600 C 122.231 171.973,122.694 170.338,123.029 169.968 C 123.373 169.587,123.774 168.032,123.949 166.393 C 124.151 164.502,124.478 163.333,124.888 163.032 C 125.297 162.734,125.619 161.593,125.806 159.786 C 125.970 158.202,126.364 156.693,126.720 156.288 C 127.064 155.896,127.491 154.368,127.669 152.891 C 127.856 151.340,128.309 149.779,128.742 149.194 C 129.213 148.556,129.557 147.263,129.670 145.705 C 129.787 144.084,130.097 142.956,130.569 142.435 C 131.030 141.925,131.400 140.618,131.600 138.796 C 131.790 137.068,132.148 135.765,132.512 135.476 C 132.865 135.195,133.221 133.960,133.379 132.467 C 133.648 129.928,134.271 128.000,134.824 128.000 C 134.986 128.000,135.246 126.734,135.401 125.187 C 135.562 123.587,135.938 122.119,136.273 121.785 C 136.757 121.300,137.560 117.614,137.592 115.729 C 137.596 115.469,137.857 115.000,138.171 114.686 C 138.485 114.372,138.923 112.812,139.144 111.219 C 139.386 109.474,139.829 108.010,140.260 107.534 C 140.728 107.017,141.062 105.787,141.229 103.968 C 141.379 102.324,141.739 100.908,142.111 100.496 C 142.457 100.113,142.867 98.669,143.023 97.286 C 143.190 95.808,143.614 94.382,144.053 93.823 C 144.464 93.301,144.800 92.442,144.800 91.913 C 144.800 90.560,145.600 89.677,147.000 89.485 C 149.830 89.096,182.270 89.224,183.732 89.630 M165.199 126.033 C 165.198 126.565,164.817 127.623,164.353 128.385 C 163.838 129.230,163.436 130.710,163.323 132.185 C 163.130 134.693,162.525 136.800,161.998 136.800 C 161.831 136.800,161.566 138.169,161.409 139.842 C 161.251 141.530,160.806 143.443,160.409 144.142 C 160.016 144.834,159.582 146.558,159.445 147.972 C 159.309 149.387,158.888 151.007,158.510 151.572 C 158.107 152.176,157.722 153.796,157.578 155.496 C 157.418 157.371,157.093 158.656,156.655 159.140 C 156.222 159.618,155.840 161.096,155.595 163.244 C 155.379 165.142,154.983 166.774,154.684 167.000 C 154.394 167.220,153.961 168.893,153.724 170.718 C 153.486 172.542,153.022 174.342,152.693 174.718 C 152.364 175.093,151.965 176.649,151.807 178.176 C 151.649 179.703,151.178 181.590,150.760 182.370 C 150.342 183.150,149.996 184.421,149.990 185.194 C 149.977 187.116,149.353 189.658,148.812 189.992 C 148.567 190.144,148.329 191.333,148.283 192.634 L 148.200 195.000 165.374 195.104 C 183.794 195.216,183.825 195.213,182.357 193.228 C 181.860 192.555,181.497 191.199,181.333 189.393 C 181.177 187.680,180.809 186.251,180.381 185.699 C 179.929 185.115,179.583 183.672,179.400 181.599 C 179.244 179.839,178.984 178.400,178.823 178.400 C 178.258 178.400,177.676 176.514,177.392 173.767 C 177.235 172.245,176.857 170.715,176.552 170.367 C 176.247 170.019,175.822 168.354,175.609 166.668 C 175.395 164.982,174.941 163.177,174.600 162.656 C 174.259 162.136,173.872 160.470,173.739 158.955 C 173.593 157.286,173.184 155.678,172.701 154.875 C 172.208 154.056,171.826 152.528,171.701 150.875 C 171.586 149.346,171.244 147.908,170.903 147.518 C 170.576 147.142,170.113 145.342,169.874 143.518 C 169.636 141.693,169.207 139.962,168.921 139.672 C 168.312 139.053,168.122 138.235,167.850 135.059 C 167.738 133.750,167.373 132.412,167.022 132.024 C 166.675 131.641,166.232 130.035,166.031 128.432 C 165.668 125.542,165.201 124.198,165.199 126.033 M293.154 139.745 C 294.031 140.801,293.569 278.203,292.686 279.086 C 291.586 280.185,261.614 280.185,260.514 279.086 C 259.682 278.253,259.163 142.400,259.985 140.241 L 260.380 139.200 276.541 139.200 C 289.694 139.200,292.786 139.301,293.154 139.745 " stroke="none" fill="#2c0c04" fill-rule="evenodd"></path><path id="path2" d="M18.000 18.600 C 18.000 19.131,38.492 19.210,199.100 19.300 L 380.200 19.400 380.200 199.862 C 380.200 299.116,380.335 380.240,380.500 380.138 C 380.986 379.838,380.872 19.682,380.386 18.774 C 379.815 17.707,18.000 17.533,18.000 18.600 M17.798 199.800 C 17.798 299.020,17.844 339.670,17.900 290.133 C 17.956 240.596,17.956 159.416,17.900 109.733 C 17.844 60.050,17.798 100.580,17.798 199.800 M272.200 84.800 C 270.732 85.772,271.946 85.946,273.600 85.000 C 274.150 84.686,275.500 84.428,276.600 84.428 C 277.700 84.428,279.050 84.686,279.600 85.000 C 281.136 85.878,281.991 85.733,280.856 84.787 C 279.487 83.646,273.929 83.655,272.200 84.800 M267.639 86.361 C 267.221 86.779,266.480 87.248,265.993 87.402 C 265.100 87.686,261.600 91.075,261.600 91.656 C 261.600 91.828,261.265 92.291,260.856 92.684 C 260.447 93.078,259.985 93.929,259.830 94.576 C 259.674 95.222,259.222 96.212,258.826 96.776 C 257.347 98.878,257.316 107.915,258.782 109.488 C 259.157 109.891,259.586 110.830,259.735 111.575 C 259.884 112.319,260.364 113.180,260.803 113.487 C 261.241 113.794,261.600 114.227,261.600 114.449 C 261.600 115.003,265.772 119.200,266.324 119.200 C 266.569 119.200,267.122 119.579,267.554 120.043 C 270.032 122.703,282.522 122.704,285.353 120.044 C 285.847 119.580,286.492 119.200,286.786 119.200 C 287.319 119.200,291.600 115.095,291.600 114.584 C 291.600 114.436,292.050 113.781,292.600 113.127 C 293.150 112.473,293.596 111.457,293.591 110.869 C 293.583 109.882,293.521 109.923,292.781 111.400 C 291.402 114.151,290.971 114.762,289.160 116.525 C 282.213 123.290,270.964 123.373,264.204 116.709 C 262.150 114.683,260.018 111.679,260.007 110.794 C 260.003 110.461,259.640 109.516,259.200 108.696 C 258.553 107.488,258.400 106.439,258.400 103.200 C 258.400 99.961,258.553 98.912,259.200 97.704 C 259.640 96.884,260.000 95.958,260.000 95.647 C 260.000 93.334,266.245 87.155,269.800 85.951 C 270.472 85.723,270.424 85.673,269.500 85.640 C 268.895 85.618,268.058 85.942,267.639 86.361 M283.058 85.886 C 283.750 85.973,284.633 86.394,285.020 86.822 C 285.407 87.250,285.935 87.600,286.192 87.600 C 286.714 87.600,291.200 91.921,291.200 92.423 C 291.200 92.599,291.476 93.019,291.813 93.355 C 292.150 93.692,292.682 94.560,292.997 95.284 L 293.569 96.600 293.584 95.500 C 293.593 94.895,293.278 94.078,292.885 93.685 C 292.492 93.292,291.784 92.345,291.311 91.580 C 290.388 90.086,289.137 88.882,287.331 87.750 C 286.709 87.360,285.878 86.716,285.484 86.320 C 285.019 85.852,284.250 85.622,283.284 85.664 C 281.868 85.725,281.858 85.735,283.058 85.886 M147.000 89.485 C 145.571 89.681,144.792 90.573,144.823 91.976 C 144.843 92.881,144.900 92.838,145.323 91.600 L 145.800 90.200 164.827 90.096 L 183.853 89.992 184.739 90.935 C 185.318 91.551,185.767 92.766,186.035 94.439 C 186.261 95.848,186.683 97.364,186.973 97.810 C 187.263 98.255,187.629 99.605,187.788 100.810 C 187.946 102.014,188.349 103.540,188.685 104.200 C 189.020 104.860,189.435 105.940,189.606 106.600 L 189.918 107.800 189.958 106.400 C 189.979 105.630,189.653 104.436,189.233 103.747 C 188.813 103.058,188.343 101.438,188.189 100.147 C 188.034 98.856,187.569 97.239,187.154 96.553 C 186.739 95.867,186.400 94.736,186.400 94.040 C 186.400 91.707,185.429 90.101,183.732 89.630 C 182.270 89.224,149.830 89.096,147.000 89.485 M143.912 94.008 C 143.567 94.554,143.159 96.080,143.006 97.400 C 142.852 98.720,142.447 100.113,142.105 100.496 C 141.760 100.882,141.425 102.129,141.352 103.296 C 141.246 104.988,141.288 105.165,141.563 104.200 C 141.751 103.540,142.186 102.355,142.530 101.567 C 142.873 100.779,143.276 99.159,143.423 97.967 C 143.571 96.775,143.953 95.384,144.271 94.876 C 144.590 94.367,144.780 93.741,144.695 93.484 C 144.608 93.225,144.259 93.458,143.912 94.008 M293.614 97.214 C 293.622 97.536,293.886 98.250,294.200 98.800 C 294.949 100.111,294.950 105.681,294.200 107.785 C 293.601 109.468,293.711 110.049,294.483 109.277 C 295.746 108.014,295.586 98.614,294.278 97.307 C 293.727 96.756,293.603 96.738,293.614 97.214 M140.264 107.460 C 139.855 108.009,139.354 109.703,139.135 111.280 C 138.919 112.839,138.485 114.372,138.171 114.686 C 137.857 115.000,137.596 115.469,137.592 115.729 C 137.560 117.614,136.757 121.300,136.273 121.785 C 135.938 122.119,135.562 123.587,135.401 125.187 C 135.246 126.734,134.986 128.000,134.824 128.000 C 134.271 128.000,133.648 129.928,133.379 132.467 C 133.221 133.960,132.865 135.195,132.512 135.476 C 132.148 135.765,131.790 137.068,131.600 138.796 C 131.402 140.603,131.029 141.926,130.577 142.426 C 130.109 142.942,129.824 144.001,129.747 145.506 C 129.634 147.721,129.642 147.742,129.989 146.131 C 130.186 145.212,130.639 143.898,130.995 143.209 C 131.351 142.520,131.745 141.022,131.869 139.878 C 131.993 138.735,132.346 137.397,132.653 136.905 C 132.960 136.413,133.474 134.637,133.795 132.959 C 134.116 131.280,134.571 129.676,134.805 129.393 C 135.040 129.111,135.412 127.758,135.633 126.387 C 135.854 125.015,136.289 123.401,136.600 122.800 C 136.911 122.199,137.339 120.648,137.552 119.353 C 137.765 118.059,138.207 116.369,138.534 115.597 C 138.862 114.826,139.338 113.045,139.593 111.641 C 139.847 110.236,140.330 108.668,140.665 108.156 C 141.515 106.860,141.165 106.253,140.264 107.460 M190.054 109.514 C 190.025 110.017,190.277 110.850,190.614 111.366 C 190.952 111.882,191.410 113.427,191.631 114.800 C 191.852 116.173,192.386 117.988,192.817 118.832 C 193.247 119.677,193.601 121.050,193.602 121.884 C 193.604 122.718,193.891 123.940,194.240 124.600 C 194.590 125.260,195.129 126.880,195.440 128.200 L 196.004 130.600 195.811 127.835 C 195.675 125.883,195.395 124.825,194.860 124.235 C 194.356 123.681,194.030 122.564,193.889 120.910 C 193.761 119.395,193.349 117.888,192.839 117.063 C 192.345 116.265,192.000 115.033,192.000 114.072 C 192.000 112.410,191.323 110.400,190.764 110.400 C 190.594 110.400,190.378 109.995,190.282 109.500 L 190.109 108.600 190.054 109.514 M164.786 125.463 C 164.511 126.308,164.042 127.355,163.743 127.789 C 163.444 128.223,163.221 129.123,163.246 129.789 C 163.276 130.572,163.361 130.733,163.487 130.244 C 163.593 129.828,164.022 128.928,164.439 128.244 C 164.856 127.560,165.198 126.565,165.199 126.033 C 165.201 124.198,165.668 125.542,166.031 128.432 C 166.231 130.026,166.647 131.616,166.956 131.965 C 167.265 132.314,167.605 132.960,167.712 133.400 C 167.885 134.111,167.912 134.097,167.954 133.280 C 167.979 132.774,167.740 131.858,167.423 131.244 C 167.105 130.630,166.635 128.884,166.377 127.364 C 165.796 123.934,165.427 123.493,164.786 125.463 M196.000 131.311 C 196.000 131.592,196.245 132.177,196.545 132.611 C 196.845 133.045,197.222 134.300,197.383 135.400 C 197.544 136.500,197.953 138.030,198.290 138.800 C 198.628 139.570,199.040 140.830,199.206 141.600 C 199.506 142.990,199.508 142.987,199.554 141.154 C 199.585 139.906,199.359 138.999,198.855 138.354 C 198.445 137.828,197.979 136.335,197.817 135.026 C 197.414 131.762,196.000 128.871,196.000 131.311 M162.867 132.285 C 162.830 132.772,162.440 134.084,162.000 135.200 C 161.560 136.316,161.200 137.767,161.200 138.425 C 161.200 139.082,160.837 140.650,160.393 141.910 C 159.950 143.169,159.403 145.348,159.178 146.750 C 158.953 148.153,158.506 149.809,158.184 150.430 C 157.269 152.201,157.445 153.262,158.406 151.763 C 158.870 151.038,159.302 149.463,159.446 147.963 C 159.582 146.553,160.016 144.834,160.409 144.142 C 160.806 143.443,161.251 141.530,161.409 139.842 C 161.566 138.169,161.831 136.800,161.998 136.800 C 162.592 136.800,163.252 134.481,163.094 132.951 C 163.006 132.098,162.904 131.798,162.867 132.285 M168.046 136.326 C 168.004 137.894,168.497 139.482,169.186 140.000 C 169.332 140.110,169.646 141.704,169.883 143.543 C 170.147 145.590,170.564 147.135,170.957 147.529 C 171.817 148.388,171.877 147.213,171.042 145.886 C 170.736 145.399,170.358 143.920,170.203 142.600 C 170.049 141.280,169.646 139.570,169.309 138.800 C 168.971 138.030,168.560 136.770,168.394 136.000 L 168.092 134.600 168.046 136.326 M259.985 140.241 C 259.163 142.400,259.682 278.253,260.514 279.086 C 261.614 280.185,291.586 280.185,292.686 279.086 C 293.569 278.203,294.031 140.801,293.154 139.745 C 292.903 139.443,292.056 139.227,291.251 139.260 C 289.908 139.315,289.889 139.332,291.000 139.485 C 293.340 139.807,293.200 135.402,293.200 208.617 C 293.200 279.211,293.218 278.487,291.475 278.954 C 288.848 279.659,262.090 279.201,261.144 278.435 L 260.200 277.671 260.104 209.335 C 260.051 171.668,260.163 140.758,260.352 140.460 C 260.542 140.163,261.305 139.777,262.048 139.601 L 263.400 139.282 261.890 139.241 C 260.614 139.206,260.319 139.361,259.985 140.241 M199.646 143.920 C 199.621 144.426,199.882 145.385,200.226 146.050 C 200.570 146.716,201.014 148.012,201.211 148.931 C 201.558 150.542,201.566 150.521,201.453 148.306 C 201.383 146.940,201.082 145.727,200.709 145.306 C 200.364 144.918,199.995 144.240,199.888 143.800 C 199.715 143.089,199.688 143.103,199.646 143.920 M128.661 149.251 C 128.288 149.820,127.839 151.476,127.664 152.931 C 127.489 154.386,127.064 155.896,126.720 156.288 C 126.367 156.690,125.971 158.191,125.811 159.736 C 125.617 161.614,125.289 162.711,124.764 163.236 C 124.211 163.789,124.011 164.524,124.040 165.900 L 124.080 167.800 124.437 166.287 C 124.633 165.455,125.064 164.249,125.396 163.607 C 125.728 162.965,126.000 161.977,126.000 161.412 C 126.000 160.847,126.423 159.173,126.940 157.692 C 127.457 156.212,128.011 154.100,128.171 153.000 C 128.331 151.900,128.730 150.584,129.056 150.076 C 129.383 149.567,129.580 148.941,129.495 148.684 C 129.409 148.426,129.035 148.680,128.661 149.251 M171.767 150.875 C 171.857 152.638,172.176 154.002,172.701 154.875 C 173.184 155.678,173.593 157.286,173.739 158.955 C 173.872 160.470,174.259 162.136,174.600 162.656 C 174.941 163.177,175.395 164.982,175.609 166.668 C 175.822 168.354,176.247 170.019,176.552 170.367 C 176.857 170.715,177.235 172.245,177.392 173.767 C 177.683 176.585,178.260 178.400,178.864 178.400 C 179.049 178.400,179.229 179.165,179.264 180.100 C 179.323 181.655,179.342 181.684,179.493 180.448 C 179.587 179.684,179.303 178.117,178.843 176.848 C 178.394 175.611,177.825 173.430,177.578 172.000 C 177.332 170.570,176.952 169.186,176.735 168.923 C 176.518 168.661,176.160 167.139,175.938 165.541 C 175.717 163.943,175.259 162.102,174.922 161.449 C 174.584 160.795,174.158 159.077,173.975 157.631 C 173.793 156.184,173.367 154.448,173.029 153.773 C 172.691 153.099,172.238 151.569,172.023 150.373 L 171.631 148.200 171.767 150.875 M201.600 151.760 C 201.600 152.128,201.857 152.827,202.171 153.314 C 202.485 153.801,202.942 155.322,203.187 156.693 C 203.432 158.064,203.981 159.954,204.407 160.893 C 204.834 161.832,205.187 163.230,205.194 164.000 C 205.200 164.770,205.487 165.940,205.831 166.600 C 206.176 167.260,206.736 169.144,207.076 170.786 C 207.416 172.428,207.922 174.138,208.201 174.586 C 208.480 175.034,208.829 176.373,208.976 177.563 C 209.124 178.752,209.516 180.251,209.848 180.893 C 210.180 181.536,210.614 182.812,210.811 183.731 C 211.158 185.342,211.166 185.321,211.053 183.106 C 210.979 181.660,210.688 180.539,210.265 180.072 C 209.870 179.636,209.445 178.139,209.231 176.434 C 209.031 174.841,208.601 173.236,208.276 172.869 C 207.952 172.501,207.559 171.077,207.404 169.705 C 207.248 168.322,206.809 166.806,206.419 166.305 C 206.019 165.790,205.591 164.279,205.428 162.800 C 205.269 161.370,204.816 159.660,204.420 159.000 C 204.025 158.340,203.601 156.765,203.479 155.500 C 203.270 153.329,201.600 150.006,201.600 151.760 M157.061 155.407 C 156.925 156.401,156.544 157.735,156.214 158.372 C 155.885 159.010,155.497 160.582,155.352 161.866 C 155.207 163.149,154.840 164.693,154.536 165.296 C 154.232 165.899,153.737 167.805,153.435 169.531 C 153.134 171.258,152.598 173.231,152.244 173.915 C 151.890 174.600,151.600 175.803,151.600 176.588 C 151.600 177.373,151.150 179.303,150.600 180.877 C 150.050 182.451,149.600 184.331,149.600 185.055 C 149.600 185.778,149.248 187.263,148.818 188.355 C 147.890 190.708,147.401 193.953,147.759 195.379 L 148.015 196.400 165.608 196.400 L 183.200 196.400 183.194 195.300 C 183.190 194.595,183.073 194.381,182.868 194.704 C 182.616 195.100,178.847 195.186,165.374 195.104 L 148.200 195.000 148.283 192.634 C 148.329 191.333,148.567 190.144,148.812 189.992 C 149.353 189.658,149.977 187.116,149.990 185.194 C 149.996 184.421,150.342 183.150,150.760 182.370 C 151.178 181.590,151.649 179.703,151.807 178.176 C 151.965 176.649,152.364 175.093,152.693 174.718 C 153.022 174.342,153.486 172.542,153.724 170.718 C 153.961 168.893,154.394 167.220,154.684 167.000 C 154.983 166.774,155.379 165.142,155.595 163.244 C 155.843 161.072,156.220 159.620,156.664 159.129 C 157.094 158.655,157.416 157.475,157.524 155.985 C 157.726 153.185,157.418 152.800,157.061 155.407 M123.654 168.569 C 123.625 168.991,123.334 169.630,123.010 169.989 C 122.685 170.348,122.231 171.973,122.000 173.600 C 121.769 175.227,121.299 176.870,120.955 177.250 C 120.572 177.673,120.271 178.921,120.179 180.470 C 120.039 182.837,120.052 182.882,120.373 181.161 C 120.562 180.150,120.979 178.800,121.300 178.161 C 121.621 177.523,122.107 175.832,122.381 174.405 C 122.654 172.978,123.141 171.301,123.463 170.678 C 123.785 170.055,123.972 169.153,123.879 168.673 C 123.736 167.939,123.700 167.922,123.654 168.569 M179.619 183.256 C 179.607 184.139,179.909 185.083,180.387 185.656 C 181.391 186.861,181.400 186.315,180.418 183.800 L 179.637 181.800 179.619 183.256 M119.033 184.093 C 118.687 184.622,118.317 186.213,118.211 187.628 C 118.034 190.018,118.047 190.073,118.401 188.400 C 118.610 187.410,119.084 185.923,119.453 185.096 C 120.234 183.349,119.956 182.685,119.033 184.093 M211.207 186.120 C 211.203 186.516,211.489 187.398,211.842 188.081 C 212.195 188.764,212.638 190.150,212.827 191.161 C 213.151 192.896,213.162 192.859,213.023 190.498 C 212.885 188.152,211.225 184.152,211.207 186.120 M181.404 189.355 C 181.505 190.932,181.855 192.529,182.222 193.090 C 183.158 194.519,183.437 193.857,182.642 192.094 C 182.267 191.261,181.795 189.684,181.593 188.590 C 181.247 186.707,181.236 186.749,181.404 189.355 M117.112 191.208 C 116.767 191.754,116.359 193.280,116.206 194.600 C 116.052 195.920,115.652 197.308,115.316 197.684 C 114.980 198.060,114.628 199.230,114.534 200.284 L 114.364 202.200 115.357 199.502 C 115.903 198.018,116.471 195.948,116.619 194.902 C 116.766 193.856,117.149 192.584,117.469 192.076 C 117.789 191.567,117.980 190.941,117.895 190.684 C 117.808 190.425,117.459 190.658,117.112 191.208 M213.200 193.627 C 213.200 193.847,213.451 194.427,213.758 194.914 C 214.064 195.401,214.433 196.802,214.577 198.027 C 214.721 199.252,215.124 200.782,215.471 201.427 C 215.819 202.072,216.256 203.140,216.443 203.800 C 216.722 204.789,216.757 204.663,216.638 203.084 C 216.559 202.030,216.225 200.860,215.896 200.484 C 215.567 200.108,215.179 198.900,215.034 197.800 C 214.587 194.417,214.373 193.675,213.776 193.446 C 213.459 193.324,213.200 193.406,213.200 193.627 M114.054 203.369 C 114.025 203.791,113.700 204.469,113.332 204.875 C 112.912 205.339,112.622 206.463,112.548 207.906 L 112.431 210.200 112.831 208.262 C 113.051 207.196,113.508 205.902,113.846 205.385 C 114.185 204.869,114.382 204.031,114.285 203.523 C 114.148 202.803,114.097 202.769,114.054 203.369 M216.800 206.814 C 216.800 207.368,217.062 208.196,217.383 208.654 C 217.703 209.112,218.238 210.792,218.570 212.387 C 218.903 213.983,219.373 215.526,219.614 215.817 C 219.855 216.108,220.214 217.487,220.412 218.882 C 220.609 220.278,221.063 222.005,221.420 222.720 C 221.777 223.436,222.227 224.872,222.420 225.911 C 222.761 227.750,222.767 227.734,222.624 225.310 C 222.529 223.688,222.185 222.347,221.639 221.463 C 221.177 220.716,220.800 219.496,220.800 218.750 C 220.800 217.103,220.159 214.746,219.621 214.413 C 219.404 214.279,219.105 213.096,218.957 211.785 C 218.666 209.213,216.800 204.913,216.800 206.814 M111.497 211.537 C 111.111 212.194,110.709 213.872,110.604 215.266 L 110.414 217.800 110.935 215.600 C 111.221 214.390,111.680 212.986,111.953 212.479 C 112.749 211.005,112.325 210.129,111.497 211.537 M109.462 218.731 C 109.098 219.134,108.808 220.079,108.818 220.831 L 108.835 222.200 109.364 220.800 C 109.654 220.030,110.026 219.085,110.189 218.700 C 110.571 217.798,110.296 217.810,109.462 218.731 M108.464 223.277 C 108.429 223.870,108.059 224.950,107.642 225.677 C 107.225 226.405,106.758 228.080,106.605 229.400 C 106.452 230.720,106.057 232.102,105.728 232.470 C 105.399 232.839,104.980 234.279,104.797 235.670 C 104.614 237.062,104.089 238.913,103.632 239.785 C 103.111 240.777,102.816 242.048,102.844 243.185 L 102.888 245.000 103.218 243.331 C 103.399 242.412,103.820 241.136,104.152 240.493 C 104.484 239.851,104.876 238.352,105.024 237.163 C 105.171 235.973,105.527 234.624,105.813 234.164 C 106.100 233.704,106.554 232.174,106.822 230.764 C 107.091 229.354,107.656 227.422,108.078 226.471 C 108.512 225.495,108.777 224.188,108.687 223.471 C 108.545 222.336,108.521 222.315,108.464 223.277 M222.800 228.414 C 222.800 228.642,223.053 229.227,223.362 229.714 C 223.671 230.201,224.052 231.590,224.209 232.800 C 224.367 234.010,224.808 235.630,225.191 236.400 C 225.574 237.170,225.993 238.735,226.122 239.878 C 226.251 241.022,226.656 242.534,227.021 243.240 C 227.385 243.945,227.824 245.350,227.995 246.361 L 228.306 248.200 228.353 246.194 C 228.385 244.840,228.124 243.672,227.550 242.602 C 227.082 241.729,226.555 239.849,226.378 238.423 C 226.200 236.985,225.804 235.646,225.491 235.415 C 225.172 235.181,224.799 233.891,224.638 232.463 C 224.313 229.577,223.808 228.000,223.210 228.000 C 222.984 228.000,222.800 228.186,222.800 228.414 M138.642 228.732 C 138.529 228.914,138.239 230.302,137.997 231.816 C 137.756 233.330,137.400 234.759,137.207 234.992 C 137.014 235.225,136.640 236.672,136.376 238.207 C 136.112 239.743,135.559 241.862,135.148 242.915 C 134.736 243.968,134.426 245.498,134.457 246.315 L 134.514 247.800 134.757 246.400 C 134.891 245.630,135.296 244.460,135.658 243.800 C 136.020 243.140,136.450 241.340,136.615 239.800 C 136.779 238.260,137.179 236.595,137.503 236.099 C 137.827 235.604,138.235 233.904,138.409 232.322 C 138.632 230.284,138.933 229.292,139.439 228.922 C 140.065 228.464,140.073 228.400,139.500 228.400 C 139.141 228.400,138.755 228.549,138.642 228.732 M191.203 229.811 C 191.378 230.588,191.720 231.463,191.963 231.756 C 192.206 232.049,192.584 233.694,192.801 235.411 C 193.019 237.129,193.449 238.819,193.757 239.167 C 194.065 239.515,194.405 240.160,194.512 240.600 C 194.685 241.311,194.712 241.297,194.754 240.480 C 194.779 239.974,194.549 239.074,194.243 238.480 C 193.937 237.886,193.410 235.931,193.072 234.136 C 192.541 231.317,191.504 228.400,191.032 228.400 C 190.951 228.400,191.027 229.035,191.203 229.811 M194.846 243.526 C 194.804 245.094,195.297 246.682,195.986 247.200 C 196.132 247.310,196.446 248.904,196.683 250.743 C 196.947 252.790,197.364 254.335,197.757 254.729 C 198.617 255.588,198.677 254.413,197.842 253.086 C 197.536 252.599,197.158 251.120,197.003 249.800 C 196.849 248.480,196.446 246.770,196.109 246.000 C 195.771 245.230,195.360 243.970,195.194 243.200 L 194.892 241.800 194.846 243.526 M101.870 246.384 C 101.468 247.067,101.039 248.655,100.917 249.913 C 100.795 251.171,100.428 252.506,100.103 252.881 C 99.777 253.255,99.309 254.962,99.062 256.674 C 98.780 258.631,98.352 260.048,97.907 260.493 C 97.412 260.988,97.214 261.770,97.246 263.100 C 97.290 264.935,97.302 264.952,97.574 263.600 C 97.730 262.830,98.136 261.660,98.477 261.000 C 98.817 260.340,99.216 258.972,99.363 257.961 C 99.511 256.949,99.961 255.239,100.365 254.161 C 100.769 253.082,101.226 251.300,101.381 250.200 C 101.536 249.100,101.929 247.784,102.256 247.276 C 102.582 246.768,102.793 246.080,102.725 245.747 C 102.642 245.343,102.357 245.555,101.870 246.384 M134.064 248.520 C 134.029 248.916,133.734 249.754,133.410 250.381 C 133.085 251.009,132.614 252.845,132.364 254.460 C 132.113 256.075,131.659 257.752,131.354 258.187 C 131.049 258.622,130.803 259.343,130.807 259.789 C 130.823 261.734,132.479 257.958,132.687 255.502 C 132.808 254.076,133.233 252.445,133.676 251.711 C 134.168 250.892,134.393 249.942,134.290 249.111 C 134.201 248.390,134.099 248.124,134.064 248.520 M228.400 248.765 C 228.400 249.020,228.651 249.627,228.957 250.114 C 229.263 250.601,229.706 252.138,229.942 253.529 C 230.177 254.920,230.653 256.625,231.000 257.319 C 231.346 258.013,231.791 259.722,231.988 261.118 C 232.186 262.513,232.535 263.881,232.764 264.157 C 232.994 264.434,233.455 265.958,233.789 267.545 C 234.122 269.133,234.677 270.976,235.022 271.642 C 235.888 273.317,236.012 278.290,235.200 278.806 C 234.848 279.030,228.528 279.190,219.906 279.194 L 205.211 279.200 204.170 277.627 C 203.430 276.508,203.019 275.164,202.747 272.972 C 202.536 271.277,202.083 269.348,201.740 268.684 C 201.397 268.021,200.976 266.650,200.805 265.639 L 200.494 263.800 200.447 265.815 C 200.416 267.141,200.680 268.373,201.220 269.415 C 201.670 270.287,202.203 272.403,202.404 274.117 C 203.109 280.138,202.497 279.937,220.256 279.972 C 237.960 280.006,236.740 280.415,236.127 274.655 C 235.871 272.257,235.482 270.526,235.100 270.095 C 234.762 269.713,234.359 268.277,234.204 266.905 C 234.048 265.522,233.609 264.006,233.219 263.505 C 232.823 262.996,232.392 261.486,232.232 260.051 C 232.077 258.649,231.601 256.852,231.175 256.057 C 230.749 255.262,230.399 254.069,230.398 253.406 C 230.395 251.689,229.689 249.371,228.993 248.794 C 228.561 248.435,228.400 248.427,228.400 248.765 M198.568 258.088 C 198.664 259.954,198.963 261.176,199.546 262.088 C 200.517 263.604,200.711 262.747,199.807 260.935 C 199.481 260.281,199.038 258.769,198.823 257.573 L 198.431 255.400 198.568 258.088 M130.307 262.907 C 130.145 263.956,129.744 265.335,129.414 265.972 C 129.085 266.610,128.697 268.182,128.552 269.466 C 128.407 270.749,128.049 272.276,127.756 272.858 C 127.463 273.440,127.099 274.692,126.947 275.641 C 126.792 276.613,126.271 277.765,125.754 278.282 L 124.836 279.200 110.047 279.200 C 92.833 279.200,92.390 279.073,94.615 274.770 C 94.954 274.116,95.421 272.553,95.653 271.298 C 95.885 270.043,96.339 268.505,96.661 267.881 C 96.984 267.257,97.168 266.443,97.071 266.073 C 96.910 265.465,96.888 265.468,96.846 266.100 C 96.821 266.485,96.639 266.800,96.443 266.800 C 95.891 266.800,95.543 267.954,95.201 270.924 C 94.990 272.756,94.664 273.811,94.205 274.147 C 93.411 274.727,93.257 278.617,93.997 279.358 C 94.306 279.666,99.178 279.800,110.052 279.800 C 127.559 279.800,126.481 279.988,127.046 276.831 C 127.186 276.044,127.555 275.109,127.864 274.754 C 128.174 274.398,128.578 272.778,128.762 271.154 C 128.952 269.485,129.478 267.474,129.972 266.533 C 130.603 265.331,130.812 264.327,130.723 262.933 L 130.600 261.000 130.307 262.907 " stroke="none" fill="#5c2c0c" fill-rule="evenodd"></path><path id="path3" d="M17.462 17.531 C 16.341 18.770,16.452 380.586,17.574 381.186 C 18.812 381.848,379.489 381.745,380.800 381.082 L 381.800 380.576 381.800 199.256 C 381.800 20.230,381.790 17.928,381.024 17.368 C 379.656 16.368,18.368 16.530,17.462 17.531 M380.943 19.500 C 381.508 22.918,381.227 379.880,380.658 380.351 C 380.259 380.683,332.554 380.775,198.958 380.700 L 17.800 380.600 17.698 199.800 C 17.641 100.360,17.681 18.775,17.785 18.500 C 17.937 18.101,54.615 18.000,199.335 18.000 L 380.695 18.000 380.943 19.500 M274.400 85.149 C 274.070 85.348,272.990 85.639,272.000 85.796 C 267.482 86.516,260.011 93.104,259.998 96.380 C 259.996 96.721,259.726 97.516,259.398 98.146 C 258.567 99.739,258.559 107.129,259.387 108.224 C 259.710 108.651,259.980 109.366,259.987 109.813 C 260.045 113.520,267.479 120.062,272.529 120.850 C 283.226 122.519,290.820 117.722,293.809 107.407 C 295.099 102.957,294.347 97.543,291.991 94.316 C 291.556 93.720,291.200 93.077,291.200 92.887 C 291.200 92.390,287.257 88.599,285.566 87.471 C 283.178 85.877,275.756 84.334,274.400 85.149 M284.214 87.732 C 285.078 88.319,285.915 88.800,286.074 88.800 C 286.578 88.800,290.329 92.745,290.581 93.541 C 290.715 93.961,291.154 94.686,291.557 95.151 C 291.961 95.616,292.406 96.852,292.547 97.898 C 292.687 98.944,293.104 100.645,293.472 101.677 C 294.094 103.422,294.095 103.663,293.485 105.077 C 293.124 105.915,292.712 107.450,292.570 108.489 C 292.428 109.528,291.977 110.765,291.568 111.237 C 291.159 111.709,290.703 112.479,290.556 112.948 C 290.319 113.704,289.976 114.139,288.140 116.011 C 286.840 117.336,285.998 117.922,284.786 118.345 C 284.052 118.601,283.106 119.123,282.683 119.505 C 281.239 120.811,271.441 120.511,269.444 119.100 C 268.588 118.495,267.683 118.000,267.433 118.000 C 267.183 118.000,266.677 117.685,266.309 117.300 C 265.941 116.915,265.447 116.420,265.211 116.200 C 263.978 115.053,262.400 113.161,262.400 112.832 C 262.400 112.626,262.149 112.206,261.842 111.899 C 260.252 110.309,258.727 101.528,259.755 99.886 C 260.060 99.399,260.526 98.064,260.790 96.920 C 261.054 95.776,261.524 94.629,261.835 94.371 C 262.146 94.113,262.400 93.676,262.400 93.400 C 262.400 92.834,267.090 88.400,267.689 88.400 C 267.902 88.400,268.560 88.056,269.151 87.635 C 271.512 85.954,281.693 86.019,284.214 87.732 M146.943 90.277 C 146.094 90.443,143.589 96.747,143.607 98.671 C 143.613 99.327,142.867 101.931,140.992 107.800 C 140.641 108.900,140.106 110.970,139.803 112.400 C 139.501 113.830,138.881 116.063,138.426 117.363 C 137.972 118.662,137.600 120.156,137.600 120.682 C 137.600 121.209,137.318 122.184,136.974 122.850 C 136.630 123.515,136.103 125.261,135.802 126.730 C 135.502 128.198,134.981 130.120,134.645 131.000 C 134.310 131.880,134.027 132.998,134.018 133.485 C 134.008 133.972,133.647 135.322,133.216 136.485 C 132.785 137.648,132.171 139.770,131.851 141.200 C 131.532 142.630,131.006 144.610,130.684 145.600 C 130.361 146.590,129.895 148.165,129.648 149.100 C 127.712 156.440,126.047 162.414,125.550 163.800 C 125.314 164.460,124.810 166.440,124.431 168.200 C 124.052 169.960,123.553 171.760,123.323 172.200 C 123.093 172.640,122.781 173.720,122.629 174.600 C 122.476 175.480,121.913 177.490,121.376 179.067 C 120.839 180.644,120.400 182.417,120.400 183.007 C 120.400 183.597,120.138 184.646,119.819 185.340 C 119.298 186.469,118.583 188.950,117.209 194.400 C 116.959 195.390,116.315 197.557,115.777 199.216 C 115.240 200.875,114.792 202.585,114.782 203.016 C 114.773 203.447,114.490 204.520,114.155 205.400 C 113.819 206.280,113.290 208.260,112.980 209.800 C 112.669 211.340,112.167 213.230,111.863 214.000 C 111.324 215.364,110.556 218.123,109.356 223.000 C 109.031 224.320,108.572 225.940,108.335 226.600 C 108.098 227.260,107.656 228.918,107.353 230.284 C 107.049 231.650,106.441 233.682,106.001 234.799 C 105.560 235.916,105.200 237.206,105.200 237.666 C 105.200 238.127,104.768 239.875,104.240 241.552 C 103.712 243.228,103.082 245.365,102.840 246.300 C 101.727 250.602,101.456 251.601,100.594 254.600 C 99.632 257.949,99.230 259.446,97.962 264.400 C 97.540 266.050,96.999 267.940,96.759 268.600 C 96.520 269.260,96.093 270.790,95.812 272.000 C 95.531 273.210,95.098 274.707,94.850 275.328 C 94.155 277.065,94.655 278.337,96.141 278.612 C 98.325 279.017,125.125 278.636,125.566 278.194 C 126.120 277.640,128.034 271.102,128.436 268.392 C 128.616 267.178,129.026 265.557,129.347 264.790 C 129.667 264.022,130.135 262.226,130.385 260.797 C 130.636 259.369,131.080 257.660,131.372 257.000 C 131.664 256.340,132.023 254.841,132.169 253.670 C 132.316 252.498,132.766 250.698,133.169 249.670 C 133.573 248.641,134.036 246.810,134.198 245.600 C 134.361 244.390,134.720 242.950,134.996 242.400 C 135.272 241.850,135.712 240.153,135.973 238.630 C 136.234 237.106,136.686 235.289,136.978 234.591 C 137.270 233.893,137.639 232.350,137.799 231.161 C 137.959 229.972,138.271 228.775,138.494 228.500 C 138.954 227.930,190.599 227.757,191.488 228.322 C 192.159 228.748,193.040 231.373,193.397 234.008 C 193.560 235.214,193.925 236.652,194.208 237.205 C 194.491 237.758,194.852 239.108,195.010 240.205 C 195.169 241.302,195.726 243.528,196.249 245.151 C 196.772 246.774,197.200 248.615,197.200 249.243 C 197.200 249.870,197.481 251.086,197.824 251.944 C 198.168 252.802,198.784 255.011,199.195 256.852 C 200.847 264.261,201.634 267.469,202.177 268.997 C 202.490 269.878,202.856 271.552,202.989 272.716 C 203.269 275.157,203.824 276.627,204.946 277.900 L 205.739 278.800 220.190 278.800 C 230.895 278.800,234.764 278.676,235.120 278.320 C 235.787 277.653,235.689 274.520,234.942 272.600 C 234.600 271.720,234.020 269.740,233.653 268.200 C 233.286 266.660,232.789 265.040,232.548 264.600 C 232.307 264.160,231.987 262.990,231.836 262.000 C 231.686 261.010,231.139 258.850,230.621 257.200 C 230.104 255.550,229.471 253.390,229.217 252.400 C 227.894 247.262,227.206 244.848,226.650 243.400 C 226.312 242.520,226.027 241.326,226.018 240.748 C 226.008 240.169,225.550 238.500,225.000 237.038 C 224.450 235.577,224.000 233.836,224.000 233.169 C 224.000 232.502,223.657 231.201,223.237 230.278 C 222.818 229.355,222.285 227.569,222.053 226.310 C 221.821 225.050,221.378 223.520,221.070 222.910 C 220.761 222.299,220.390 220.868,220.244 219.728 C 220.099 218.589,219.639 216.879,219.223 215.928 C 218.807 214.978,218.342 213.300,218.190 212.200 C 218.038 211.100,217.678 209.825,217.391 209.367 C 217.104 208.908,216.744 207.648,216.590 206.567 C 216.437 205.485,215.991 203.856,215.599 202.946 C 215.207 202.037,214.762 200.507,214.611 199.546 C 214.460 198.586,213.900 196.510,213.368 194.933 C 212.836 193.356,212.400 191.551,212.400 190.922 C 212.400 190.293,212.152 189.423,211.849 188.989 C 211.546 188.555,211.008 186.798,210.654 185.084 C 210.301 183.370,209.817 181.606,209.580 181.162 C 209.343 180.719,208.980 179.308,208.773 178.027 C 208.567 176.746,208.059 174.911,207.643 173.949 C 207.228 172.987,206.763 171.315,206.610 170.233 C 206.456 169.152,206.096 167.892,205.809 167.433 C 205.522 166.975,205.171 165.777,205.029 164.771 C 204.888 163.765,204.332 161.695,203.795 160.171 C 203.257 158.647,202.812 156.950,202.806 156.400 C 202.800 155.850,202.533 154.897,202.212 154.282 C 201.891 153.667,201.427 152.055,201.182 150.699 C 200.936 149.343,200.506 147.776,200.225 147.217 C 199.945 146.658,199.495 145.042,199.224 143.628 C 198.953 142.213,198.387 140.181,197.966 139.113 C 197.545 138.044,197.200 136.709,197.200 136.146 C 197.200 135.582,196.940 134.554,196.621 133.860 C 196.303 133.167,195.692 131.160,195.264 129.400 C 194.836 127.640,194.303 125.660,194.080 125.000 C 193.703 123.887,193.350 122.562,191.738 116.200 C 191.403 114.880,190.871 113.170,190.555 112.400 C 190.239 111.630,189.817 109.979,189.616 108.730 C 189.416 107.482,188.978 105.931,188.643 105.284 C 188.309 104.636,187.859 103.018,187.645 101.687 C 187.431 100.356,186.976 98.728,186.635 98.068 C 186.294 97.409,185.895 95.851,185.749 94.607 C 185.542 92.847,185.223 92.085,184.311 91.172 L 183.138 90.000 165.469 90.054 C 155.751 90.084,147.414 90.184,146.943 90.277 M183.721 92.205 C 184.489 93.167,184.968 94.395,185.244 96.105 C 185.466 97.477,185.978 99.320,186.381 100.200 C 186.785 101.080,187.236 102.822,187.383 104.072 C 187.530 105.322,187.889 106.542,188.181 106.784 C 188.472 107.026,188.838 108.254,188.992 109.512 C 189.147 110.770,189.609 112.610,190.019 113.600 C 190.429 114.590,190.951 116.460,191.179 117.755 C 191.407 119.050,191.772 120.325,191.991 120.589 C 192.209 120.852,192.650 122.435,192.970 124.106 C 193.289 125.777,193.807 127.652,194.119 128.272 C 194.432 128.893,194.798 130.370,194.932 131.555 C 195.066 132.740,195.443 134.006,195.770 134.367 C 196.098 134.729,196.573 136.360,196.826 137.993 C 197.079 139.625,197.518 141.329,197.800 141.780 C 198.082 142.231,198.504 143.727,198.738 145.105 C 198.971 146.483,199.440 148.008,199.781 148.494 C 200.121 148.980,200.406 150.013,200.413 150.789 C 200.420 151.565,200.790 153.190,201.234 154.400 C 201.678 155.610,202.297 157.835,202.609 159.345 C 202.922 160.855,203.347 162.295,203.554 162.545 C 203.761 162.795,204.142 164.170,204.401 165.600 C 204.659 167.030,205.215 168.955,205.636 169.878 C 206.056 170.801,206.400 172.116,206.400 172.800 C 206.400 173.484,206.752 174.817,207.183 175.762 C 207.613 176.707,208.159 178.693,208.396 180.174 C 208.633 181.656,209.071 183.258,209.370 183.734 C 209.669 184.210,210.035 185.500,210.184 186.600 C 210.333 187.700,210.780 189.239,211.178 190.019 C 211.577 190.799,212.031 192.419,212.189 193.619 C 212.346 194.819,212.724 196.314,213.027 196.941 C 213.331 197.569,213.777 199.189,214.019 200.541 C 214.260 201.894,214.692 203.364,214.979 203.810 C 215.266 204.255,215.633 205.605,215.795 206.810 C 215.957 208.014,216.519 210.030,217.045 211.288 C 217.570 212.546,218.000 214.261,218.000 215.099 C 218.000 215.937,218.270 217.008,218.601 217.480 C 218.931 217.951,219.466 219.722,219.790 221.415 C 220.114 223.108,220.571 224.724,220.805 225.007 C 221.040 225.289,221.415 226.663,221.638 228.060 C 221.862 229.457,222.299 230.990,222.609 231.466 C 222.920 231.942,223.367 233.540,223.603 235.016 C 223.838 236.492,224.277 238.175,224.577 238.755 C 224.877 239.336,225.247 240.708,225.400 241.805 C 225.553 242.902,226.003 244.520,226.400 245.400 C 226.797 246.280,227.245 247.900,227.394 249.000 C 227.544 250.100,227.991 251.743,228.389 252.651 C 228.786 253.559,229.237 255.217,229.391 256.336 C 229.545 257.455,230.015 259.045,230.435 259.870 C 230.856 260.694,231.200 261.934,231.200 262.625 C 231.200 263.999,231.941 266.472,232.455 266.817 C 232.634 266.937,232.948 268.224,233.154 269.677 C 233.360 271.130,233.792 272.742,234.115 273.259 C 236.764 277.503,236.348 277.627,219.811 277.505 L 205.516 277.400 204.545 274.816 C 204.010 273.394,203.399 271.002,203.186 269.500 C 202.973 267.999,202.550 266.372,202.246 265.885 C 201.943 265.398,201.579 263.944,201.438 262.653 C 201.297 261.363,200.841 259.473,200.424 258.453 C 200.007 257.434,199.573 255.551,199.459 254.269 C 199.345 252.987,198.969 251.507,198.623 250.979 C 198.277 250.452,197.803 248.639,197.568 246.951 C 197.333 245.263,196.897 243.503,196.599 243.041 C 196.301 242.578,195.882 240.922,195.669 239.359 C 195.456 237.797,194.986 235.946,194.624 235.246 C 194.262 234.546,193.825 232.802,193.652 231.371 C 193.129 227.024,195.826 227.416,165.575 227.292 C 136.700 227.173,137.826 227.079,137.391 229.651 C 137.237 230.564,136.775 232.052,136.364 232.956 C 135.954 233.860,135.614 235.375,135.609 236.322 C 135.604 237.269,135.241 238.832,134.802 239.795 C 134.364 240.758,133.823 242.825,133.602 244.388 C 133.380 245.951,132.948 247.628,132.642 248.115 C 132.335 248.602,131.960 250.080,131.808 251.400 C 131.656 252.720,131.196 254.569,130.785 255.508 C 130.374 256.447,129.919 258.337,129.774 259.708 C 129.629 261.079,129.264 262.593,128.963 263.074 C 128.662 263.555,128.212 265.265,127.963 266.874 C 127.715 268.483,127.232 270.340,126.889 271.000 C 126.547 271.660,126.162 273.272,126.034 274.583 C 125.827 276.693,125.685 276.998,124.800 277.243 C 122.864 277.780,96.537 277.648,96.095 277.100 C 95.560 276.436,96.130 272.386,96.934 271.149 C 97.273 270.627,97.760 268.940,98.017 267.400 C 98.274 265.860,98.709 264.240,98.985 263.800 C 99.260 263.360,99.702 261.740,99.968 260.200 C 100.233 258.660,100.686 257.036,100.975 256.590 C 101.264 256.145,101.633 254.818,101.794 253.641 C 101.956 252.464,102.417 250.759,102.818 249.851 C 103.219 248.943,103.677 247.210,103.835 246.000 C 103.993 244.790,104.371 243.417,104.676 242.948 C 104.980 242.480,105.404 241.012,105.617 239.686 C 105.831 238.360,106.360 236.494,106.794 235.538 C 107.228 234.582,107.586 233.167,107.591 232.394 C 107.596 231.621,107.955 230.326,108.389 229.517 C 108.823 228.707,109.368 226.849,109.602 225.388 C 109.835 223.927,110.273 222.342,110.575 221.866 C 110.877 221.390,111.248 220.010,111.400 218.800 C 111.552 217.590,111.941 216.183,112.265 215.674 C 112.588 215.164,113.026 213.634,113.237 212.274 C 113.448 210.913,113.954 208.990,114.361 208.000 C 114.768 207.010,115.225 205.211,115.377 204.002 C 115.529 202.793,115.893 201.533,116.187 201.202 C 116.480 200.871,116.908 199.367,117.139 197.861 C 117.370 196.354,117.853 194.673,118.212 194.125 C 118.571 193.577,118.963 192.110,119.083 190.864 C 119.203 189.619,119.620 188.060,120.009 187.400 C 120.398 186.740,120.846 185.210,121.006 184.000 C 121.165 182.790,121.608 181.170,121.991 180.400 C 122.374 179.630,122.793 178.100,122.923 177.000 C 123.053 175.900,123.528 174.287,123.979 173.415 C 124.431 172.544,124.800 171.139,124.800 170.293 C 124.800 169.448,125.151 167.985,125.581 167.042 C 126.011 166.099,126.539 164.230,126.755 162.890 C 126.970 161.549,127.412 160.036,127.735 159.526 C 128.059 159.017,128.451 157.633,128.606 156.451 C 128.762 155.269,129.217 153.559,129.618 152.651 C 130.019 151.743,130.472 150.010,130.625 148.800 C 130.778 147.590,131.135 146.330,131.419 146.000 C 131.702 145.670,132.136 144.230,132.383 142.800 C 132.630 141.370,133.185 139.357,133.616 138.326 C 134.047 137.295,134.400 135.852,134.400 135.120 C 134.400 134.387,134.755 133.126,135.189 132.317 C 135.623 131.507,136.172 129.627,136.410 128.138 C 136.648 126.649,137.018 125.219,137.233 124.961 C 137.447 124.702,137.867 123.208,138.166 121.641 C 138.464 120.074,138.921 118.536,139.181 118.223 C 139.440 117.911,139.821 116.462,140.028 115.004 C 140.234 113.547,140.685 111.809,141.029 111.143 C 141.374 110.478,141.829 108.852,142.042 107.530 C 142.255 106.209,142.674 104.739,142.972 104.264 C 143.271 103.789,143.723 102.165,143.977 100.656 C 144.231 99.148,144.706 97.505,145.032 97.007 C 145.359 96.509,145.737 95.158,145.874 94.006 C 146.260 90.749,145.735 90.834,165.600 90.816 L 182.600 90.800 183.721 92.205 M163.836 123.900 C 163.208 125.177,162.558 127.357,162.374 128.800 C 162.192 130.230,161.772 131.942,161.440 132.604 C 161.108 133.267,160.629 135.148,160.375 136.784 C 160.121 138.421,159.675 140.129,159.383 140.580 C 159.091 141.031,158.727 142.570,158.572 144.000 C 158.418 145.430,157.969 147.243,157.574 148.029 C 157.179 148.816,156.726 150.616,156.568 152.029 C 156.409 153.443,156.045 154.960,155.759 155.401 C 155.472 155.841,155.030 157.551,154.775 159.201 C 154.520 160.850,154.041 162.726,153.710 163.369 C 153.379 164.013,152.954 165.766,152.765 167.266 C 152.577 168.766,152.163 170.400,151.847 170.897 C 151.530 171.394,151.067 173.140,150.819 174.778 C 150.571 176.416,150.203 177.956,150.000 178.200 C 149.797 178.444,149.365 180.164,149.039 182.022 C 148.713 183.880,148.186 185.940,147.869 186.600 C 147.551 187.260,147.172 189.052,147.026 190.583 C 146.880 192.113,146.577 193.586,146.353 193.857 C 145.570 194.800,146.105 196.942,147.200 197.244 C 149.262 197.813,182.987 197.644,183.785 197.060 C 184.715 196.380,184.408 192.234,183.226 189.533 C 182.809 188.580,182.344 186.720,182.192 185.400 C 182.040 184.080,181.684 182.631,181.401 182.180 C 181.118 181.729,180.679 180.021,180.425 178.384 C 180.171 176.748,179.692 174.867,179.360 174.204 C 179.028 173.542,178.607 171.816,178.425 170.369 C 178.242 168.923,177.802 167.178,177.448 166.493 C 177.094 165.808,176.623 163.970,176.401 162.408 C 176.180 160.847,175.750 159.172,175.446 158.685 C 175.143 158.198,174.780 156.752,174.640 155.470 C 174.500 154.189,174.093 152.479,173.735 151.670 C 173.377 150.862,172.956 149.100,172.799 147.757 C 172.643 146.413,172.213 144.707,171.843 143.967 C 171.474 143.226,170.993 141.362,170.775 139.823 C 170.557 138.285,170.125 136.640,169.815 136.167 C 169.505 135.694,169.130 134.158,168.980 132.754 C 168.831 131.349,168.367 129.407,167.949 128.437 C 167.531 127.468,167.090 125.938,166.969 125.037 C 166.567 122.042,166.401 121.600,165.676 121.600 C 165.210 121.600,164.578 122.390,163.836 123.900 M166.128 124.100 C 166.246 124.595,166.469 125.900,166.623 127.000 C 166.778 128.100,167.133 129.452,167.413 130.005 C 167.693 130.558,168.052 131.908,168.210 133.005 C 168.369 134.102,168.926 136.328,169.449 137.951 C 169.972 139.574,170.400 141.425,170.400 142.064 C 170.400 142.703,170.656 143.837,170.968 144.585 C 171.280 145.333,171.840 147.442,172.211 149.272 C 172.583 151.103,173.059 152.925,173.269 153.322 C 173.479 153.719,173.828 155.143,174.045 156.486 C 174.261 157.829,174.790 159.928,175.219 161.150 C 175.649 162.372,176.000 163.851,176.000 164.435 C 176.000 165.020,176.428 166.826,176.951 168.449 C 177.474 170.072,178.031 172.300,178.188 173.400 C 178.346 174.500,178.643 175.604,178.848 175.854 C 179.053 176.103,179.477 177.762,179.790 179.541 C 180.102 181.319,180.566 183.163,180.820 183.638 C 181.075 184.113,181.535 185.946,181.843 187.712 C 182.151 189.478,182.562 191.120,182.757 191.361 C 183.278 192.010,183.704 195.042,183.405 195.983 C 183.057 197.079,148.505 197.291,147.602 196.203 C 146.949 195.415,147.415 190.904,148.426 188.239 C 148.835 187.161,149.280 185.451,149.416 184.439 C 149.552 183.428,150.000 181.520,150.411 180.200 C 150.823 178.880,151.342 176.764,151.566 175.499 C 151.790 174.233,152.148 172.870,152.363 172.470 C 152.577 172.070,152.966 170.496,153.228 168.971 C 153.490 167.447,154.041 165.338,154.452 164.285 C 154.864 163.232,155.200 161.838,155.200 161.187 C 155.200 160.536,155.551 158.967,155.980 157.702 C 156.409 156.436,156.964 154.230,157.215 152.800 C 157.465 151.370,157.834 150.002,158.033 149.761 C 158.233 149.520,158.649 147.878,158.957 146.112 C 159.265 144.346,159.702 142.557,159.927 142.136 C 160.152 141.715,160.623 139.864,160.972 138.022 C 161.321 136.180,161.764 134.477,161.954 134.237 C 162.145 133.996,162.510 132.540,162.765 131.000 C 163.554 126.235,165.624 121.987,166.128 124.100 M261.600 139.958 L 260.600 140.236 260.496 208.218 C 260.384 281.509,260.288 278.197,262.544 278.611 C 265.214 279.100,291.534 278.627,292.080 278.080 C 292.502 277.658,292.620 264.577,292.703 208.971 L 292.807 140.383 291.777 139.991 C 290.610 139.548,263.185 139.517,261.600 139.958 M291.901 208.635 L 292.002 276.671 290.982 277.135 C 289.553 277.786,263.648 277.787,262.219 277.136 L 261.200 276.672 261.200 208.802 C 261.200 171.474,261.322 140.811,261.471 140.662 C 261.621 140.513,268.506 140.438,276.771 140.495 L 291.800 140.600 291.901 208.635 " stroke="none" fill="#8c5414" fill-rule="evenodd"></path><path id="path4" d="M380.800 200.000 L 380.600 380.200 199.138 380.200 C 99.334 380.200,17.760 380.335,17.862 380.500 C 18.233 381.101,380.252 380.860,380.751 380.258 C 381.083 379.859,381.174 332.467,381.100 199.758 L 381.000 19.800 380.800 200.000 M273.600 85.039 L 272.600 85.650 273.600 85.357 C 274.150 85.195,275.500 85.063,276.600 85.063 C 277.700 85.063,279.050 85.195,279.600 85.357 L 280.600 85.650 279.600 85.039 C 279.050 84.703,277.700 84.428,276.600 84.428 C 275.500 84.428,274.150 84.703,273.600 85.039 M267.655 86.938 C 264.564 88.920,260.000 93.978,260.000 95.421 C 260.000 95.607,260.701 94.688,261.557 93.380 C 263.500 90.411,264.933 89.046,267.883 87.353 C 269.157 86.622,269.930 86.036,269.600 86.050 C 269.270 86.064,268.395 86.464,267.655 86.938 M283.400 86.288 C 283.840 86.395,284.560 86.779,285.000 87.141 C 285.793 87.795,285.794 87.793,285.038 86.900 C 284.619 86.405,283.899 86.021,283.438 86.046 C 282.632 86.091,282.631 86.100,283.400 86.288 M287.469 88.900 C 288.292 89.615,289.488 90.740,290.128 91.400 L 291.291 92.600 290.305 91.340 C 289.232 89.969,286.653 87.600,286.233 87.600 C 286.090 87.600,286.646 88.185,287.469 88.900 M145.614 90.774 C 145.386 91.199,145.214 91.784,145.232 92.074 C 145.249 92.363,145.440 92.116,145.657 91.525 C 145.880 90.916,146.430 90.375,146.925 90.279 L 147.800 90.109 146.914 90.054 C 146.407 90.023,145.851 90.331,145.614 90.774 M184.275 91.154 C 184.894 91.789,185.476 92.238,185.568 92.153 C 185.801 91.937,183.944 90.000,183.505 90.000 C 183.310 90.000,183.656 90.519,184.275 91.154 M185.693 94.000 C 185.693 94.770,185.775 95.085,185.876 94.700 C 185.976 94.315,185.976 93.685,185.876 93.300 C 185.775 92.915,185.693 93.230,185.693 94.000 M291.200 92.954 C 291.200 93.070,291.650 93.828,292.200 94.638 C 293.237 96.167,293.545 96.192,292.737 94.682 C 292.251 93.774,291.200 92.592,291.200 92.954 M144.032 95.139 C 143.795 95.584,143.607 96.274,143.616 96.674 C 143.625 97.108,143.868 96.854,144.222 96.039 C 144.870 94.545,144.723 93.848,144.032 95.139 M186.036 96.056 C 186.016 96.417,186.356 97.497,186.791 98.456 C 187.350 99.687,187.585 99.942,187.591 99.324 C 187.596 98.842,187.423 98.338,187.206 98.204 C 186.990 98.070,186.646 97.384,186.442 96.680 C 186.239 95.976,186.056 95.695,186.036 96.056 M258.832 98.339 C 258.036 99.828,258.290 106.998,259.200 108.696 C 259.640 109.516,259.994 109.921,259.987 109.594 C 259.980 109.267,259.710 108.651,259.387 108.224 C 258.638 107.233,258.544 99.216,259.273 98.487 C 259.534 98.226,259.638 97.905,259.506 97.772 C 259.373 97.640,259.070 97.895,258.832 98.339 M293.645 98.400 C 293.678 99.628,294.737 101.916,294.755 100.800 C 294.764 100.250,294.514 99.350,294.200 98.800 C 293.884 98.246,293.636 98.068,293.645 98.400 M142.300 102.111 C 141.915 103.045,141.608 104.077,141.619 104.404 C 141.629 104.732,141.989 104.100,142.418 103.000 C 143.377 100.544,143.272 99.754,142.300 102.111 M188.000 103.462 C 188.000 103.710,188.356 104.697,188.791 105.656 C 189.226 106.615,189.586 107.084,189.591 106.699 C 189.596 106.313,189.240 105.325,188.800 104.504 C 188.360 103.684,188.000 103.215,188.000 103.462 M293.844 107.159 C 293.456 108.541,293.216 109.750,293.312 109.845 C 293.578 110.111,294.892 105.677,294.710 105.129 C 294.621 104.863,294.231 105.777,293.844 107.159 M140.485 108.413 C 140.218 108.840,140.007 109.417,140.016 109.695 C 140.025 109.973,140.309 109.689,140.647 109.065 C 141.350 107.768,141.218 107.238,140.485 108.413 M189.693 108.800 C 189.693 109.570,189.775 109.885,189.876 109.500 C 189.976 109.115,189.976 108.485,189.876 108.100 C 189.775 107.715,189.693 108.030,189.693 108.800 M292.054 112.075 C 291.541 112.967,291.320 113.573,291.563 113.423 C 292.060 113.116,293.334 110.801,293.123 110.590 C 293.048 110.515,292.567 111.183,292.054 112.075 M190.027 111.000 C 190.028 111.220,190.286 111.850,190.600 112.400 C 190.914 112.950,191.178 113.835,191.186 114.367 C 191.194 114.898,191.312 115.222,191.448 115.085 C 191.825 114.709,191.266 112.240,190.608 111.369 C 190.287 110.946,190.026 110.780,190.027 111.000 M260.000 111.003 C 260.000 111.394,262.773 115.600,263.031 115.600 C 263.134 115.600,262.901 115.105,262.513 114.500 C 260.783 111.801,260.000 110.711,260.000 111.003 M138.431 115.837 C 137.897 117.463,137.551 118.884,137.661 118.994 C 137.771 119.104,138.284 117.847,138.800 116.200 C 139.316 114.553,139.663 113.132,139.570 113.042 C 139.476 112.953,138.964 114.210,138.431 115.837 M263.600 115.952 C 263.600 116.342,265.155 117.798,265.323 117.564 C 265.387 117.474,265.026 117.001,264.520 116.514 C 264.014 116.027,263.600 115.774,263.600 115.952 M287.800 117.292 C 286.920 118.119,286.315 118.797,286.456 118.798 C 286.845 118.801,289.820 116.078,289.596 115.923 C 289.488 115.849,288.680 116.465,287.800 117.292 M192.030 117.600 C 192.028 117.710,192.374 118.790,192.800 120.000 C 193.301 121.424,193.573 121.847,193.570 121.200 C 193.567 120.408,192.044 116.847,192.030 117.600 M265.610 118.128 C 265.963 118.507,268.822 120.400,269.041 120.400 C 269.630 120.400,268.543 119.486,267.073 118.745 C 266.153 118.281,265.495 118.003,265.610 118.128 M283.200 120.048 C 282.430 120.461,282.070 120.798,282.400 120.797 C 282.730 120.796,283.540 120.437,284.200 120.000 C 285.692 119.012,285.078 119.042,283.200 120.048 M136.882 121.875 C 135.955 124.601,135.924 125.035,136.785 123.224 C 137.249 122.247,137.578 121.200,137.515 120.898 C 137.452 120.596,137.167 121.036,136.882 121.875 M275.091 121.489 C 275.801 121.577,277.061 121.579,277.891 121.492 C 278.721 121.405,278.140 121.333,276.600 121.331 C 275.060 121.329,274.381 121.400,275.091 121.489 M164.418 125.300 C 163.138 128.326,163.030 128.696,163.694 127.800 C 164.020 127.360,164.506 126.323,164.775 125.496 C 165.312 123.847,166.000 123.844,166.000 125.490 C 166.000 126.064,166.112 126.422,166.248 126.285 C 166.588 125.945,166.043 123.200,165.635 123.200 C 165.455 123.200,164.907 124.145,164.418 125.300 M193.615 123.926 C 193.607 124.216,193.810 124.845,194.066 125.324 C 194.323 125.803,194.771 127.006,195.062 127.998 L 195.591 129.800 195.360 128.200 C 195.127 126.586,193.642 122.950,193.615 123.926 M134.694 129.603 C 134.312 130.484,134.008 131.519,134.018 131.903 C 134.033 132.511,134.815 130.789,135.473 128.700 C 135.875 127.424,135.400 127.975,134.694 129.603 M166.828 129.600 C 166.828 129.930,167.086 130.650,167.400 131.200 C 167.730 131.778,167.972 131.947,167.972 131.600 C 167.972 131.270,167.714 130.550,167.400 130.000 C 167.070 129.422,166.828 129.253,166.828 129.600 M196.000 132.278 C 196.000 132.515,196.269 133.224,196.598 133.854 C 197.075 134.771,197.193 134.840,197.185 134.200 C 197.179 133.760,196.910 133.051,196.587 132.624 C 196.264 132.196,196.000 132.041,196.000 132.278 M161.611 134.971 C 160.981 136.629,161.154 137.179,161.822 135.639 C 162.147 134.891,162.325 134.191,162.217 134.084 C 162.110 133.977,161.837 134.376,161.611 134.971 M168.413 135.856 C 168.406 136.327,168.756 137.497,169.191 138.456 C 170.198 140.674,170.202 140.048,169.200 137.200 C 168.774 135.990,168.420 135.385,168.413 135.856 M197.242 136.200 C 197.221 136.640,197.649 138.260,198.193 139.800 C 198.738 141.340,199.187 142.186,199.192 141.680 C 199.196 141.174,198.928 140.235,198.596 139.593 C 198.264 138.951,197.833 137.745,197.637 136.913 C 197.441 136.081,197.263 135.760,197.242 136.200 M132.432 137.139 C 132.195 137.584,132.008 138.364,132.018 138.874 C 132.030 139.552,132.186 139.376,132.600 138.215 C 133.217 136.483,133.119 135.856,132.432 137.139 M160.854 138.710 C 160.825 139.210,160.440 140.644,160.000 141.896 C 159.560 143.148,159.208 144.449,159.218 144.786 C 159.228 145.124,159.684 144.051,160.233 142.402 C 160.781 140.753,161.158 139.043,161.069 138.602 C 160.928 137.897,160.902 137.910,160.854 138.710 M269.674 139.499 C 273.345 139.565,279.465 139.565,283.274 139.499 C 287.083 139.434,284.080 139.380,276.600 139.380 C 269.120 139.379,266.003 139.433,269.674 139.499 M260.196 209.135 L 260.200 277.671 261.144 278.435 C 262.090 279.201,288.848 279.659,291.475 278.954 C 293.223 278.486,293.204 279.277,293.103 208.440 L 293.006 140.600 292.803 209.080 C 292.639 264.494,292.501 277.659,292.080 278.080 C 291.533 278.628,265.212 279.100,262.539 278.610 C 260.546 278.244,260.610 280.318,260.396 208.800 L 260.192 140.600 260.196 209.135 M130.626 144.077 C 130.234 145.102,130.009 146.179,130.125 146.471 C 130.263 146.814,130.348 146.747,130.368 146.280 C 130.386 145.884,130.681 145.017,131.024 144.353 C 131.368 143.689,131.579 142.936,131.493 142.679 C 131.408 142.423,131.017 143.052,130.626 144.077 M170.416 144.224 C 170.407 144.676,170.664 145.396,170.987 145.824 C 171.742 146.821,171.752 146.442,171.016 144.746 C 170.585 143.753,170.427 143.616,170.416 144.224 M199.769 145.800 C 200.132 147.429,201.165 149.784,201.172 149.000 C 201.176 148.560,200.822 147.480,200.385 146.600 C 199.948 145.720,199.671 145.360,199.769 145.800 M158.893 146.800 C 158.893 147.570,158.975 147.885,159.076 147.500 C 159.176 147.115,159.176 146.485,159.076 146.100 C 158.975 145.715,158.893 146.030,158.893 146.800 M158.044 149.644 C 157.752 150.305,157.598 150.931,157.702 151.036 C 157.807 151.140,158.121 150.674,158.400 150.000 C 159.062 148.401,158.738 148.077,158.044 149.644 M172.034 149.723 C 171.980 150.875,172.858 153.989,173.317 154.272 C 173.591 154.442,173.625 154.267,173.414 153.766 C 173.237 153.345,172.862 152.100,172.580 151.000 C 172.298 149.900,172.053 149.325,172.034 149.723 M128.832 150.339 C 128.595 150.784,128.407 151.474,128.416 151.874 C 128.425 152.308,128.668 152.054,129.022 151.239 C 129.670 149.745,129.523 149.048,128.832 150.339 M201.613 152.854 C 201.606 152.994,201.869 153.624,202.198 154.254 C 202.526 154.884,202.796 155.119,202.798 154.776 C 202.800 154.190,201.640 152.308,201.613 152.854 M156.534 155.700 C 156.288 156.635,155.966 157.850,155.820 158.400 L 155.554 159.400 156.165 158.348 C 156.737 157.361,157.493 154.000,157.142 154.000 C 157.054 154.000,156.780 154.765,156.534 155.700 M126.881 157.859 C 126.390 159.367,125.999 160.870,126.012 161.200 C 126.025 161.530,126.475 160.450,127.012 158.800 C 127.549 157.150,127.940 155.647,127.881 155.459 C 127.821 155.272,127.371 156.352,126.881 157.859 M174.046 158.400 C 174.032 158.950,174.379 160.120,174.817 161.000 C 175.255 161.880,175.499 162.240,175.359 161.800 C 175.220 161.360,174.873 160.190,174.589 159.200 C 174.228 157.945,174.064 157.703,174.046 158.400 M203.851 160.200 C 203.996 160.640,204.347 161.810,204.631 162.800 C 204.982 164.027,205.151 164.282,205.163 163.600 C 205.172 163.050,204.821 161.880,204.383 161.000 C 203.945 160.120,203.706 159.760,203.851 160.200 M125.265 163.817 C 124.595 165.288,124.723 165.602,125.447 164.265 C 125.786 163.640,125.988 163.054,125.896 162.963 C 125.805 162.871,125.521 163.256,125.265 163.817 M154.298 164.639 C 153.356 167.270,153.426 167.822,154.423 165.624 C 154.867 164.647,155.178 163.584,155.115 163.262 C 155.052 162.940,154.684 163.560,154.298 164.639 M205.202 166.024 C 205.201 166.366,205.464 166.996,205.787 167.424 C 206.551 168.434,206.559 167.996,205.802 166.546 C 205.474 165.916,205.204 165.681,205.202 166.024 M176.018 166.474 C 175.996 167.298,176.757 169.377,176.993 169.140 C 177.087 169.046,176.910 168.256,176.600 167.385 C 176.289 166.513,176.027 166.103,176.018 166.474 M123.200 171.200 C 122.921 171.874,122.782 172.516,122.892 172.626 C 123.002 172.736,123.321 172.274,123.600 171.600 C 123.879 170.926,124.018 170.284,123.908 170.174 C 123.798 170.064,123.479 170.526,123.200 171.200 M152.312 172.500 C 151.934 173.632,151.690 174.623,151.770 174.703 C 152.004 174.937,153.301 171.300,153.143 170.851 C 153.064 170.626,152.690 171.369,152.312 172.500 M206.828 171.233 C 206.844 171.765,207.019 172.560,207.219 173.000 C 207.471 173.558,207.507 173.315,207.338 172.200 C 207.055 170.343,206.787 169.836,206.828 171.233 M207.813 174.331 C 207.963 174.624,208.231 175.344,208.409 175.931 C 208.667 176.789,208.738 176.837,208.766 176.176 C 208.785 175.724,208.517 175.004,208.170 174.576 C 207.824 174.149,207.663 174.039,207.813 174.331 M178.400 175.674 C 178.400 175.803,178.679 176.514,179.020 177.254 C 179.637 178.595,179.639 178.596,179.391 177.400 C 179.177 176.364,178.400 175.011,178.400 175.674 M151.246 177.037 C 151.221 177.498,150.837 178.929,150.394 180.218 C 149.950 181.507,149.641 182.724,149.707 182.922 C 149.926 183.578,151.674 177.675,151.482 176.930 C 151.320 176.304,151.286 176.319,151.246 177.037 M121.050 178.791 C 120.693 179.685,120.406 180.728,120.413 181.108 C 120.420 181.489,120.767 180.812,121.184 179.604 C 122.077 177.016,121.985 176.455,121.050 178.791 M179.644 180.431 C 179.620 180.998,180.043 182.708,180.585 184.231 C 181.127 185.754,181.577 186.679,181.585 186.287 C 181.593 185.895,181.316 184.905,180.970 184.087 C 180.623 183.269,180.193 181.880,180.014 181.000 C 179.780 179.853,179.675 179.692,179.644 180.431 M209.451 180.600 C 209.596 181.040,209.947 182.210,210.231 183.200 C 210.582 184.427,210.751 184.682,210.763 184.000 C 210.772 183.450,210.421 182.280,209.983 181.400 C 209.545 180.520,209.306 180.160,209.451 180.600 M120.046 183.320 C 120.021 183.716,119.745 184.532,119.434 185.134 C 119.123 185.735,118.765 186.941,118.639 187.814 L 118.409 189.400 118.825 188.000 C 119.054 187.230,119.514 186.008,119.847 185.284 C 120.180 184.560,120.372 183.660,120.273 183.284 C 120.111 182.668,120.088 182.672,120.046 183.320 M149.246 185.400 C 149.221 185.840,148.840 187.147,148.400 188.304 C 147.960 189.462,147.621 190.812,147.646 191.304 C 147.688 192.107,147.711 192.117,147.866 191.400 C 147.962 190.960,148.407 189.580,148.856 188.334 C 149.305 187.088,149.587 185.738,149.482 185.334 C 149.312 184.673,149.288 184.680,149.246 185.400 M181.693 188.400 C 181.693 189.170,181.775 189.485,181.876 189.100 C 181.976 188.715,181.976 188.085,181.876 187.700 C 181.775 187.315,181.693 187.630,181.693 188.400 M211.227 187.600 C 211.226 187.930,211.490 188.549,211.813 188.976 C 212.560 189.964,212.552 189.315,211.800 188.000 C 211.468 187.420,211.228 187.252,211.227 187.600 M182.017 190.400 C 182.031 191.117,183.165 193.200,183.186 192.546 C 183.194 192.296,182.931 191.576,182.602 190.946 C 182.274 190.316,182.010 190.070,182.017 190.400 M212.493 191.200 C 212.493 191.970,212.575 192.285,212.676 191.900 C 212.776 191.515,212.776 190.885,212.676 190.500 C 212.575 190.115,212.493 190.430,212.493 191.200 M117.232 192.339 C 116.995 192.784,116.807 193.474,116.816 193.874 C 116.825 194.308,117.068 194.054,117.422 193.239 C 118.070 191.745,117.923 191.048,117.232 192.339 M147.254 194.251 C 147.167 196.911,146.471 196.820,165.846 196.700 L 183.400 196.591 165.708 196.496 L 148.015 196.400 147.820 195.500 C 147.712 195.005,147.553 194.150,147.466 193.600 C 147.372 192.998,147.287 193.258,147.254 194.251 M183.293 194.800 C 183.293 195.570,183.375 195.885,183.476 195.500 C 183.576 195.115,183.576 194.485,183.476 194.100 C 183.375 193.715,183.293 194.030,183.293 194.800 M213.213 194.454 C 213.206 194.594,213.463 195.314,213.784 196.054 C 214.215 197.047,214.373 197.184,214.384 196.576 C 214.398 195.862,213.247 193.777,213.213 194.454 M116.446 195.885 C 116.421 196.372,116.022 197.779,115.561 199.013 C 115.099 200.246,114.797 201.330,114.889 201.422 C 115.205 201.739,116.869 196.452,116.681 195.727 C 116.529 195.138,116.484 195.168,116.446 195.885 M214.800 200.662 C 214.800 200.910,215.156 201.897,215.591 202.856 C 216.026 203.815,216.386 204.284,216.391 203.899 C 216.396 203.513,216.040 202.525,215.600 201.704 C 215.160 200.884,214.800 200.415,214.800 200.662 M113.685 205.613 C 113.418 206.040,113.207 206.617,113.216 206.895 C 113.225 207.173,113.509 206.889,113.847 206.265 C 114.550 204.968,114.418 204.438,113.685 205.613 M111.600 213.200 C 111.321 213.874,111.182 214.516,111.292 214.626 C 111.402 214.736,111.721 214.274,112.000 213.600 C 112.279 212.926,112.418 212.284,112.308 212.174 C 112.198 212.064,111.879 212.526,111.600 213.200 M218.446 213.313 C 218.421 213.705,218.691 214.695,219.048 215.513 C 219.404 216.331,219.835 217.540,220.007 218.200 C 220.266 219.200,220.325 219.246,220.359 218.478 C 220.382 217.971,220.059 216.801,219.643 215.878 C 219.226 214.955,218.797 213.840,218.689 213.400 C 218.525 212.731,218.485 212.717,218.446 213.313 M109.878 219.369 C 109.488 220.313,109.091 221.786,108.997 222.642 C 108.902 223.499,108.918 223.840,109.033 223.400 C 109.147 222.960,109.615 221.559,110.074 220.287 C 111.053 217.568,110.907 216.881,109.878 219.369 M220.432 220.920 C 220.414 221.316,220.682 222.185,221.026 222.850 C 221.370 223.516,221.815 224.812,222.015 225.731 L 222.378 227.400 222.235 225.757 C 222.156 224.853,221.817 223.503,221.482 222.757 C 221.146 222.011,220.780 221.130,220.667 220.800 C 220.512 220.343,220.456 220.371,220.432 220.920 M107.894 226.803 C 107.512 227.684,107.208 228.719,107.218 229.103 C 107.233 229.711,108.015 227.989,108.673 225.900 C 109.075 224.624,108.600 225.175,107.894 226.803 M138.480 228.480 C 138.216 228.744,138.018 229.329,138.040 229.780 C 138.073 230.467,138.125 230.438,138.358 229.600 L 138.636 228.600 164.906 228.497 L 191.176 228.394 191.792 229.584 C 192.130 230.239,192.567 231.455,192.763 232.287 C 192.961 233.128,193.137 233.423,193.160 232.950 C 193.214 231.805,192.095 228.708,191.488 228.322 C 190.627 227.775,139.031 227.929,138.480 228.480 M222.813 229.254 C 222.806 229.394,223.069 230.024,223.398 230.654 C 223.726 231.284,223.996 231.519,223.998 231.176 C 224.000 230.590,222.840 228.708,222.813 229.254 M106.849 230.600 C 106.816 231.040,106.696 231.850,106.583 232.400 L 106.377 233.400 106.806 232.419 C 107.042 231.879,107.161 231.069,107.072 230.619 C 106.913 229.821,106.907 229.821,106.849 230.600 M105.632 234.339 C 105.395 234.784,105.207 235.474,105.216 235.874 C 105.225 236.308,105.468 236.054,105.822 235.239 C 106.470 233.745,106.323 233.048,105.632 234.339 M224.637 235.974 C 225.141 237.833,225.969 239.467,225.968 238.600 C 225.967 238.160,225.608 237.170,225.169 236.400 C 224.608 235.414,224.451 235.288,224.637 235.974 M193.628 236.800 C 193.628 237.130,193.886 237.850,194.200 238.400 C 194.530 238.978,194.772 239.147,194.772 238.800 C 194.772 238.470,194.514 237.750,194.200 237.200 C 193.870 236.622,193.628 236.453,193.628 236.800 M103.850 241.191 C 103.493 242.085,103.206 243.128,103.213 243.508 C 103.220 243.889,103.567 243.212,103.984 242.004 C 104.877 239.416,104.785 238.855,103.850 241.191 M134.865 242.617 C 134.609 243.178,134.407 243.854,134.416 244.119 C 134.424 244.383,134.697 243.988,135.022 243.239 C 135.705 241.665,135.561 241.090,134.865 242.617 M195.213 243.056 C 195.206 243.527,195.556 244.697,195.991 245.656 C 196.998 247.874,197.002 247.248,196.000 244.400 C 195.574 243.190,195.220 242.585,195.213 243.056 M226.569 243.000 C 226.932 244.629,227.965 246.984,227.972 246.200 C 227.976 245.760,227.622 244.680,227.185 243.800 C 226.748 242.920,226.471 242.560,226.569 243.000 M134.054 246.485 C 134.025 247.082,133.640 248.484,133.200 249.600 C 132.760 250.716,132.408 251.938,132.418 252.315 C 132.427 252.692,132.708 252.280,133.042 251.400 C 134.119 248.560,134.453 247.174,134.279 246.278 C 134.137 245.542,134.100 245.576,134.054 246.485 M102.032 247.539 C 101.795 247.984,101.607 248.674,101.616 249.074 C 101.625 249.508,101.868 249.254,102.222 248.439 C 102.870 246.945,102.723 246.248,102.032 247.539 M228.413 249.654 C 228.406 249.794,228.663 250.514,228.984 251.254 C 229.415 252.247,229.573 252.384,229.584 251.776 C 229.598 251.062,228.447 248.977,228.413 249.654 M197.216 251.424 C 197.207 251.876,197.464 252.596,197.787 253.024 C 198.542 254.021,198.552 253.642,197.816 251.946 C 197.385 250.953,197.227 250.816,197.216 251.424 M100.257 254.457 C 99.863 255.566,99.610 256.543,99.695 256.628 C 99.779 256.713,100.174 255.877,100.571 254.771 C 100.969 253.666,101.222 252.689,101.134 252.601 C 101.046 252.512,100.651 253.348,100.257 254.457 M132.093 254.400 C 132.093 255.170,132.175 255.485,132.276 255.100 C 132.376 254.715,132.376 254.085,132.276 253.700 C 132.175 253.315,132.093 253.630,132.093 254.400 M230.032 255.485 C 230.014 255.752,230.343 256.839,230.761 257.902 C 231.180 258.964,231.607 260.185,231.710 260.616 C 231.814 261.047,231.823 260.689,231.732 259.820 C 231.640 258.951,231.417 258.051,231.236 257.820 C 231.055 257.589,230.717 256.860,230.485 256.200 C 230.253 255.540,230.049 255.218,230.032 255.485 M131.300 257.085 C 130.602 258.584,130.676 259.155,131.428 258.082 C 131.773 257.589,131.998 256.921,131.928 256.598 C 131.846 256.220,131.622 256.393,131.300 257.085 M198.834 256.923 C 198.780 258.075,199.658 261.189,200.117 261.472 C 200.391 261.642,200.425 261.467,200.214 260.966 C 200.037 260.545,199.662 259.300,199.380 258.200 C 199.098 257.100,198.853 256.525,198.834 256.923 M98.272 261.419 C 97.902 262.193,97.606 263.226,97.613 263.714 C 97.620 264.201,97.967 263.612,98.384 262.404 C 99.270 259.838,99.223 259.424,98.272 261.419 M129.603 263.900 C 128.764 266.730,128.720 267.104,129.354 265.992 C 129.915 265.008,130.649 262.000,130.327 262.000 C 130.239 262.000,129.913 262.855,129.603 263.900 M232.002 263.224 C 232.001 263.566,232.264 264.196,232.587 264.624 C 233.351 265.634,233.359 265.196,232.602 263.746 C 232.274 263.116,232.004 262.881,232.002 263.224 M200.846 265.600 C 200.832 266.150,201.179 267.320,201.617 268.200 C 202.055 269.080,202.299 269.440,202.159 269.000 C 202.020 268.560,201.673 267.390,201.389 266.400 C 201.028 265.145,200.864 264.903,200.846 265.600 M96.400 268.400 C 96.121 269.074,95.982 269.716,96.092 269.826 C 96.202 269.936,96.521 269.474,96.800 268.800 C 97.079 268.126,97.218 267.484,97.108 267.374 C 96.998 267.264,96.679 267.726,96.400 268.400 M234.144 270.200 C 234.561 271.841,235.566 274.176,235.582 273.544 C 235.592 273.183,235.227 272.103,234.771 271.144 C 234.314 270.185,234.033 269.760,234.144 270.200 M127.883 271.263 C 127.729 271.847,127.501 272.657,127.376 273.063 C 127.251 273.468,127.442 273.295,127.799 272.677 C 128.157 272.059,128.385 271.249,128.307 270.877 C 128.206 270.402,128.080 270.517,127.883 271.263 M94.694 274.531 C 92.738 279.259,92.543 279.200,110.047 279.200 L 124.836 279.200 125.818 278.218 C 126.358 277.678,126.790 276.823,126.777 276.318 C 126.760 275.597,126.652 275.697,126.277 276.784 C 125.612 278.711,125.576 278.716,110.200 278.755 C 93.379 278.797,93.441 278.813,95.047 274.800 C 95.406 273.902,95.630 273.096,95.544 273.010 C 95.458 272.924,95.075 273.609,94.694 274.531 M202.997 274.556 C 203.091 275.412,203.628 276.807,204.190 277.656 L 205.211 279.200 219.773 279.200 C 234.222 279.200,235.600 279.120,235.600 278.277 C 235.600 277.985,235.441 277.999,235.120 278.320 C 234.764 278.676,230.895 278.800,220.190 278.800 L 205.739 278.800 204.934 277.900 C 204.176 277.052,203.512 275.620,203.035 273.800 C 202.920 273.360,202.902 273.700,202.997 274.556 M235.693 276.400 C 235.693 277.170,235.775 277.485,235.876 277.100 C 235.976 276.715,235.976 276.085,235.876 275.700 C 235.775 275.315,235.693 275.630,235.693 276.400 " stroke="none" fill="#703c10" fill-rule="evenodd"></path></g></svg>