<svg id="svg" version="1.1" xmlns="http://www.w3.org/2000/svg" xmlns:xlink="http://www.w3.org/1999/xlink" width="400" height="400" viewBox="0, 0, 400,400"><g id="svgg"><path id="path0" d="M206.500 35.082 L 205.600 35.256 205.600 200.561 C 205.600 291.479,205.714 365.980,205.853 366.119 C 205.992 366.258,206.415 366.206,206.794 366.003 C 207.173 365.800,208.725 365.518,210.242 365.375 C 211.759 365.233,213.720 364.753,214.600 364.310 C 215.480 363.866,217.338 363.360,218.730 363.186 C 220.121 363.012,221.575 362.585,221.960 362.236 C 222.345 361.887,223.727 361.490,225.030 361.354 C 226.334 361.217,227.672 360.868,228.004 360.578 C 228.609 360.049,229.350 359.860,232.763 359.362 C 233.773 359.215,235.230 358.784,236.000 358.404 C 236.770 358.023,238.425 357.597,239.679 357.455 C 240.932 357.314,242.552 356.860,243.279 356.446 C 244.005 356.032,245.576 355.587,246.770 355.457 C 247.963 355.328,249.052 355.040,249.189 354.817 C 249.326 354.595,250.939 354.129,252.774 353.781 C 254.608 353.433,256.349 352.908,256.642 352.615 C 256.936 352.321,258.306 351.952,259.688 351.793 C 261.070 351.635,262.830 351.186,263.600 350.796 C 264.370 350.405,265.090 350.090,265.200 350.094 C 266.444 350.146,269.891 349.366,271.070 348.765 C 271.894 348.344,273.167 348.000,273.897 348.000 C 274.627 348.000,276.293 347.550,277.600 347.000 C 278.907 346.450,280.688 346.000,281.559 346.000 C 282.430 346.000,283.401 345.742,283.717 345.426 C 284.033 345.110,285.758 344.573,287.551 344.233 C 289.345 343.893,291.307 343.358,291.913 343.045 C 292.519 342.731,293.982 342.367,295.163 342.236 C 296.344 342.104,297.871 341.654,298.555 341.235 C 299.240 340.817,300.970 340.350,302.400 340.199 C 303.830 340.048,305.270 339.688,305.600 339.398 C 305.930 339.108,307.370 338.649,308.800 338.378 C 310.230 338.106,311.859 337.654,312.420 337.373 C 312.980 337.092,314.240 336.743,315.220 336.597 C 316.199 336.452,317.041 336.291,317.091 336.242 C 317.141 336.192,317.290 333.912,317.423 331.176 C 317.555 328.439,317.906 325.120,318.204 323.800 C 319.065 319.973,319.162 318.944,319.259 312.600 C 319.309 309.300,319.594 305.250,319.891 303.600 C 320.795 298.592,321.120 295.293,321.368 288.600 C 321.619 281.845,321.873 279.528,322.400 279.200 C 322.577 279.090,322.846 275.850,322.997 272.000 C 323.343 263.183,323.348 263.123,324.159 258.800 C 324.665 256.100,324.793 254.599,325.009 248.800 C 325.144 245.170,325.407 241.300,325.593 240.200 C 326.528 234.669,326.749 232.464,326.995 226.200 C 327.295 218.551,327.406 217.361,327.954 215.921 C 328.318 214.963,328.504 212.551,329.009 202.200 C 329.248 197.313,329.507 195.322,330.030 194.344 C 330.224 193.982,330.480 191.192,330.600 188.144 C 330.936 179.625,331.165 175.980,331.387 175.621 C 331.756 175.023,332.344 169.866,332.574 165.200 C 332.797 160.665,333.302 153.190,333.411 152.800 C 333.442 152.690,333.663 152.130,333.902 151.556 C 334.141 150.982,334.376 148.012,334.423 144.956 C 334.523 138.507,335.163 131.439,335.732 130.507 C 336.060 129.968,336.366 125.608,336.609 118.000 C 336.881 109.500,337.172 106.225,337.736 105.298 C 337.837 105.134,338.033 102.660,338.173 99.800 C 338.313 96.940,338.519 92.800,338.630 90.600 C 338.742 88.400,339.086 85.520,339.396 84.200 C 339.705 82.880,340.062 78.920,340.188 75.400 C 340.386 69.890,341.361 60.712,341.828 59.955 C 341.911 59.821,342.082 56.311,342.207 52.155 C 342.444 44.325,342.633 42.408,343.328 40.800 C 343.471 40.470,343.636 39.030,343.694 37.600 L 343.800 35.000 275.600 34.954 C 238.090 34.929,206.995 34.986,206.500 35.082 M326.690 79.900 C 326.740 81.165,326.830 85.260,326.890 89.000 C 326.954 92.942,327.168 95.921,327.400 96.089 C 328.066 96.569,327.027 97.780,325.757 98.003 C 324.473 98.228,323.853 100.122,324.476 101.919 C 325.718 105.502,325.514 114.716,324.200 114.419 C 323.760 114.320,308.143 114.182,289.496 114.113 L 255.592 113.987 255.604 148.332 L 255.617 182.677 257.209 182.677 C 258.092 182.677,258.803 182.482,258.806 182.238 C 258.809 181.997,258.987 182.070,259.200 182.400 C 259.564 182.963,259.815 182.262,259.657 181.128 C 259.556 180.407,262.679 179.918,265.753 180.173 C 271.547 180.655,273.009 180.732,272.500 180.531 C 271.496 180.134,271.928 178.508,273.100 178.274 C 274.413 178.012,280.023 178.219,282.010 178.603 C 283.335 178.859,283.425 178.809,283.511 177.770 C 283.561 177.162,283.681 176.586,283.777 176.490 C 284.182 176.085,291.133 175.998,292.794 176.377 C 296.546 177.233,296.694 177.225,296.490 176.160 C 296.159 174.428,296.801 174.178,301.271 174.298 C 303.542 174.359,305.940 174.571,306.600 174.768 C 308.362 175.297,309.032 175.164,309.100 174.274 C 309.209 172.820,309.905 172.600,314.387 172.600 C 319.787 172.600,319.309 171.794,319.358 180.971 C 319.402 189.090,319.306 189.581,317.660 189.705 C 316.762 189.773,316.428 190.795,317.300 190.806 C 317.682 190.811,317.687 190.884,317.320 191.117 C 316.814 191.439,316.885 194.447,317.506 199.018 C 317.892 201.862,317.404 209.556,316.799 210.161 C 316.507 210.453,316.147 210.434,315.610 210.099 C 314.745 209.559,314.751 209.003,315.495 221.400 C 315.874 227.717,315.599 229.430,314.162 229.705 C 313.548 229.823,313.175 229.666,313.054 229.241 C 312.954 228.888,312.939 230.451,313.021 232.714 C 313.103 234.977,313.264 236.981,313.379 237.167 C 314.775 239.424,313.723 250.400,312.112 250.400 L 311.080 250.400 311.394 254.900 C 312.110 265.161,312.188 267.056,311.939 268.200 C 311.149 271.827,311.220 271.697,310.153 271.493 L 309.142 271.300 309.362 274.550 C 310.350 289.145,309.995 292.738,307.785 290.527 C 307.061 289.804,307.080 295.304,307.809 297.545 L 308.117 298.490 304.958 298.314 C 303.221 298.218,301.534 298.062,301.209 297.969 C 300.824 297.859,300.567 298.147,300.469 298.800 C 300.266 300.155,299.744 300.423,297.400 300.374 C 294.439 300.312,294.293 300.343,294.540 300.989 C 294.840 301.770,291.974 302.558,290.027 302.230 C 287.055 301.729,287.007 301.739,286.876 302.869 C 286.719 304.232,284.548 304.706,281.945 303.945 C 279.538 303.241,279.400 303.266,279.400 304.395 C 279.400 306.432,276.899 306.794,272.500 305.393 C 271.700 305.139,271.600 305.243,271.600 306.330 C 271.600 308.042,270.259 308.511,267.300 307.834 C 266.189 307.580,266.000 307.646,266.000 308.288 C 266.000 309.908,261.754 310.753,259.549 309.573 C 258.858 309.203,258.689 309.309,258.293 310.359 C 257.768 311.751,256.618 312.144,253.686 311.935 C 252.368 311.841,251.828 311.946,251.895 312.284 C 252.093 313.300,249.292 314.156,247.276 313.694 C 245.180 313.215,244.800 313.323,244.800 314.397 C 244.800 315.609,242.073 316.041,238.600 315.380 C 237.774 315.223,237.572 315.270,237.953 315.532 C 240.053 316.978,233.748 318.273,230.729 317.016 C 230.187 316.790,230.103 316.908,230.291 317.628 C 230.727 319.295,227.633 320.288,225.523 319.159 C 224.631 318.682,223.839 319.338,224.180 320.271 C 224.480 321.090,223.193 321.756,221.504 321.656 C 219.015 321.509,218.362 321.029,218.830 319.687 C 219.197 318.634,219.136 283.053,218.764 280.814 C 218.585 279.736,223.413 279.015,224.542 279.952 C 225.160 280.465,225.864 280.027,226.058 279.008 C 226.286 277.806,228.016 277.384,230.821 277.848 C 232.377 278.105,233.332 278.111,233.485 277.863 C 233.616 277.650,233.516 277.605,233.262 277.762 C 232.486 278.241,232.748 277.371,233.616 276.585 C 234.398 275.878,235.990 275.737,239.200 276.090 C 239.957 276.173,240.229 275.995,240.321 275.355 C 240.491 274.163,241.890 273.658,244.480 273.852 C 246.568 274.009,246.724 273.958,246.952 273.049 C 247.200 272.062,251.125 271.751,253.854 272.501 C 254.553 272.694,254.671 272.595,254.504 271.955 C 253.977 269.938,256.304 269.468,261.438 270.553 C 262.124 270.698,262.245 270.569,262.106 269.841 C 261.782 268.148,264.174 267.538,267.565 268.448 C 267.900 268.538,268.231 268.199,268.380 267.611 C 268.726 266.246,270.708 265.703,273.051 266.329 C 276.467 267.243,276.454 267.254,276.106 263.500 C 275.255 254.328,275.858 247.377,277.468 247.781 L 278.486 248.037 278.243 244.718 C 277.316 232.101,277.490 230.000,279.460 230.000 L 280.487 230.000 280.227 226.900 C 280.084 225.195,279.840 222.143,279.684 220.119 C 279.363 215.959,279.226 215.724,276.984 215.470 C 275.479 215.301,275.361 215.360,275.281 216.326 C 275.234 216.897,275.040 217.520,274.849 217.711 C 274.392 218.168,267.825 218.113,265.846 217.635 C 264.208 217.240,262.800 217.724,262.800 218.682 C 262.800 219.974,257.228 220.599,254.605 219.602 C 252.421 218.771,250.087 219.076,250.295 220.165 C 250.660 222.071,249.021 222.286,241.100 221.367 C 238.812 221.102,238.800 221.106,238.800 222.160 C 238.800 224.003,234.912 224.606,230.542 223.443 C 227.792 222.710,226.481 222.983,226.322 224.319 C 226.168 225.623,224.341 226.179,221.243 225.865 C 218.254 225.562,217.453 224.122,219.756 223.192 C 220.439 222.916,220.467 222.846,219.900 222.825 C 219.236 222.801,219.200 219.067,219.200 150.200 L 219.200 77.600 272.900 77.600 L 326.600 77.600 326.690 79.900 M44.901 184.200 C 44.905 185.080,44.987 185.393,45.083 184.895 C 45.179 184.398,45.175 183.678,45.075 183.295 C 44.975 182.913,44.896 183.320,44.901 184.200 M44.950 194.200 C 44.951 196.620,45.016 197.558,45.096 196.285 C 45.176 195.012,45.175 193.032,45.094 191.885 C 45.014 190.738,44.949 191.780,44.950 194.200 M252.230 220.278 C 252.086 221.258,251.382 221.355,251.310 220.405 C 251.277 219.962,251.493 219.600,251.789 219.600 C 252.086 219.600,252.284 219.905,252.230 220.278 M96.305 293.883 C 96.802 293.979,97.522 293.975,97.905 293.875 C 98.287 293.775,97.880 293.696,97.000 293.701 C 96.120 293.705,95.807 293.787,96.305 293.883 " stroke="none" fill="#fcdb04" fill-rule="evenodd"></path><path id="path1" d="M29.600 5.831 C 29.600 7.837,29.614 7.859,30.743 7.694 C 31.576 7.571,31.972 7.726,32.204 8.263 C 32.831 9.717,32.918 24.420,32.315 27.000 C 31.658 29.811,31.390 34.473,31.932 33.665 C 32.853 32.291,34.190 33.314,34.460 35.600 C 34.865 39.021,34.797 45.987,34.336 48.200 C 34.107 49.300,33.833 51.403,33.728 52.872 L 33.537 55.545 34.868 55.672 C 36.141 55.794,36.212 55.889,36.465 57.800 C 36.860 60.778,36.806 67.124,36.366 69.400 C 36.154 70.500,35.872 72.691,35.740 74.269 L 35.499 77.137 36.623 77.269 C 37.474 77.368,37.834 77.691,38.105 78.600 C 38.634 80.376,38.617 90.759,38.082 92.400 C 36.864 96.140,37.065 98.800,38.568 98.800 C 40.378 98.800,41.199 109.494,39.837 115.325 C 38.813 119.707,38.934 120.724,40.495 120.875 C 41.663 120.988,41.819 121.158,42.072 122.600 C 42.595 125.571,42.424 134.474,41.800 136.800 C 40.822 140.443,40.976 143.532,42.124 143.312 C 42.639 143.214,43.262 143.393,43.530 143.716 C 44.251 144.584,44.600 153.709,44.015 156.400 C 42.953 161.290,42.988 164.400,44.107 164.400 C 44.654 164.400,45.325 164.669,45.598 164.998 C 46.258 165.792,46.340 178.300,45.702 180.800 C 45.449 181.790,45.167 184.220,45.074 186.200 C 44.981 188.180,44.981 188.945,45.074 187.900 C 45.266 185.727,46.715 185.146,47.638 186.870 C 48.408 188.310,48.278 199.195,47.444 203.068 C 46.504 207.436,46.647 208.587,48.140 208.641 C 48.767 208.663,49.397 208.871,49.540 209.103 C 50.147 210.085,50.057 222.169,49.428 224.200 C 48.406 227.499,48.564 230.058,49.777 229.839 C 50.314 229.741,50.948 229.896,51.186 230.183 C 51.887 231.028,52.184 241.796,51.583 244.600 C 50.516 249.588,50.581 251.954,51.782 251.822 C 53.351 251.649,53.655 252.653,53.881 258.748 C 54.033 262.863,53.925 264.936,53.441 267.200 C 52.388 272.132,52.534 274.000,53.971 274.000 C 55.092 274.000,55.157 274.099,55.471 276.300 C 55.928 279.492,55.789 287.615,55.250 289.248 C 55.005 289.992,54.711 291.721,54.596 293.091 L 54.388 295.582 55.541 295.352 C 56.565 295.147,56.745 295.266,57.147 296.420 C 57.827 298.370,57.709 309.800,56.988 311.800 C 56.030 314.461,56.183 318.139,57.226 317.503 C 59.337 316.217,60.616 327.272,59.089 333.600 C 58.569 335.752,58.211 340.689,58.647 339.700 C 58.992 338.915,60.326 339.115,60.813 340.024 C 61.624 341.540,61.792 351.865,61.053 354.732 C 60.694 356.125,60.400 357.386,60.400 357.535 C 60.400 357.684,61.214 357.741,62.208 357.662 C 64.605 357.471,65.983 358.350,66.046 360.109 C 66.072 360.819,66.171 361.107,66.266 360.749 C 66.548 359.692,71.396 359.156,72.320 360.080 C 72.584 360.344,72.800 361.064,72.800 361.680 C 72.800 362.920,73.343 363.114,74.257 362.200 C 75.376 361.081,78.313 361.422,79.622 362.824 C 80.660 363.935,80.891 364.013,82.133 363.670 C 84.740 362.950,87.021 363.865,86.618 365.470 C 86.390 366.378,86.925 366.768,87.383 366.028 C 88.406 364.373,94.000 365.355,94.000 367.190 C 94.000 368.362,94.510 368.793,94.986 368.023 C 95.849 366.626,101.200 367.347,101.200 368.861 C 101.200 369.783,102.277 370.283,102.907 369.653 C 104.337 368.223,108.257 369.542,107.914 371.337 C 107.802 371.922,107.866 372.400,108.055 372.400 C 108.245 372.400,108.400 372.233,108.400 372.029 C 108.400 370.456,114.740 371.200,115.062 372.811 C 115.193 373.465,115.340 374.000,115.389 374.000 C 115.437 374.000,116.055 373.712,116.761 373.360 C 119.061 372.212,121.966 373.358,121.479 375.221 C 121.323 375.816,121.393 375.940,121.731 375.668 C 123.616 374.147,128.400 374.999,128.400 376.856 C 128.400 377.544,128.560 377.641,129.300 377.401 C 131.058 376.831,133.123 376.731,133.956 377.176 C 134.884 377.673,135.117 379.405,134.300 379.735 C 133.988 379.861,134.051 379.949,134.467 379.968 C 134.833 379.986,135.194 379.817,135.269 379.594 C 135.837 377.889,141.777 378.945,141.794 380.754 C 141.798 381.180,142.072 381.351,142.600 381.255 C 146.397 380.569,147.558 380.705,148.713 381.969 C 149.749 383.103,149.955 383.174,151.078 382.783 C 153.129 382.068,154.973 382.770,155.125 384.323 C 155.271 385.808,155.184 385.769,156.654 385.002 C 158.053 384.273,160.028 384.225,160.872 384.900 C 161.636 385.510,162.094 387.200,161.496 387.200 C 161.260 387.200,161.182 387.316,161.324 387.457 C 161.465 387.598,161.828 387.508,162.131 387.257 C 163.001 386.535,167.469 386.193,168.191 386.793 C 168.926 387.402,168.996 389.054,168.300 389.335 C 168.012 389.451,168.108 389.550,168.529 389.568 C 168.929 389.586,169.527 389.330,169.857 389.000 C 171.202 387.655,175.600 388.471,175.600 390.066 C 175.600 390.823,175.746 390.875,177.100 390.597 C 180.583 389.881,182.619 390.540,182.288 392.276 C 182.114 393.184,182.902 393.605,183.368 392.853 C 184.005 391.821,188.800 392.159,188.800 393.236 C 188.800 394.242,189.999 394.689,191.570 394.270 C 193.967 393.630,195.401 394.247,195.396 395.915 C 195.392 397.381,195.486 397.420,197.054 396.602 C 199.823 395.158,203.898 396.127,203.514 398.137 C 203.320 399.152,203.388 399.200,205.000 399.200 C 206.587 399.200,206.677 399.139,206.497 398.198 C 206.111 396.175,209.973 395.076,212.526 396.481 C 213.988 397.285,214.420 397.217,214.170 396.222 C 213.714 394.404,216.046 393.429,218.560 394.385 C 219.548 394.760,220.800 394.109,220.800 393.220 C 220.800 392.118,225.575 391.789,226.228 392.845 C 226.667 393.556,227.600 393.186,227.606 392.300 C 227.618 390.533,229.324 389.747,231.681 390.423 C 233.039 390.813,234.000 390.543,234.000 389.771 C 234.000 388.521,236.384 388.169,240.185 388.858 C 240.716 388.954,241.021 388.741,241.128 388.200 C 241.453 386.555,242.025 386.292,244.687 386.565 C 246.770 386.778,247.200 386.719,247.200 386.221 C 247.200 384.765,251.143 383.868,252.624 384.987 C 253.762 385.849,254.400 385.727,254.400 384.649 C 254.400 382.666,258.745 381.883,261.229 383.418 C 261.392 383.519,261.431 383.240,261.315 382.798 C 260.887 381.160,265.669 379.694,266.589 381.183 C 266.902 381.689,268.000 381.250,268.000 380.619 C 268.000 378.966,271.491 378.227,273.746 379.402 C 275.232 380.178,275.200 380.190,275.200 378.849 C 275.200 376.838,276.995 376.329,280.300 377.401 C 281.027 377.637,281.200 377.542,281.200 376.909 C 281.200 375.316,282.502 374.705,285.270 374.998 C 287.660 375.250,287.822 375.214,288.200 374.333 C 288.764 373.018,291.301 372.414,292.755 373.248 C 293.936 373.926,294.800 373.819,294.800 372.995 C 294.800 371.309,299.531 370.389,300.943 371.800 C 301.836 372.694,302.313 372.527,302.097 371.398 C 301.763 369.646,302.657 369.076,305.358 369.321 C 307.601 369.524,307.801 369.469,308.830 368.368 C 310.083 367.027,311.601 366.855,313.862 367.800 C 315.698 368.567,315.600 368.602,315.600 367.190 C 315.600 365.251,318.507 364.566,321.474 365.805 C 323.109 366.488,323.132 366.482,323.316 365.270 C 323.583 363.525,327.286 362.761,329.564 363.981 C 330.301 364.375,330.400 364.317,330.400 363.494 C 330.400 361.832,334.533 360.597,335.400 362.000 C 335.849 362.726,336.436 362.417,336.847 361.237 C 337.340 359.824,338.403 359.499,341.389 359.850 C 343.193 360.062,343.600 360.001,343.600 359.517 C 343.600 358.543,344.899 357.668,346.548 357.530 L 348.095 357.400 348.188 350.713 C 348.287 343.535,348.483 342.800,350.300 342.800 C 351.389 342.800,351.424 340.759,350.416 336.000 C 349.984 333.961,349.936 326.414,350.335 323.400 C 350.611 321.316,352.014 320.348,352.849 321.665 C 353.441 322.599,353.237 317.778,352.581 315.320 C 351.857 312.609,351.747 303.225,352.410 300.762 C 352.841 299.162,354.446 298.487,354.935 299.700 C 355.426 300.917,355.140 295.938,354.600 293.865 C 354.185 292.271,354.000 289.543,354.000 285.009 C 354.000 278.002,354.258 277.029,355.993 277.482 C 357.037 277.755,357.084 275.626,356.153 270.300 C 355.514 266.650,355.558 259.819,356.242 256.463 C 356.486 255.266,356.634 255.144,357.657 255.294 C 359.068 255.501,359.206 253.703,358.158 248.800 C 357.664 246.492,357.566 244.478,357.733 240.071 C 357.964 233.971,358.244 233.084,359.848 233.374 C 360.948 233.574,361.329 229.089,360.300 228.060 C 359.594 227.353,359.589 213.451,360.295 212.745 C 361.085 211.955,362.322 211.934,362.533 212.707 C 362.638 213.088,362.658 211.960,362.579 210.200 C 362.500 208.440,362.244 206.280,362.010 205.400 C 361.535 203.614,361.481 193.881,361.933 191.400 C 362.192 189.979,362.349 189.802,363.341 189.818 L 364.457 189.836 364.292 187.018 C 364.200 185.468,363.899 183.030,363.622 181.600 C 362.495 175.777,363.538 168.000,365.447 168.000 C 366.607 168.000,366.643 166.158,365.615 159.400 C 365.102 156.030,365.360 148.396,366.028 147.148 C 366.406 146.442,367.016 146.383,367.945 146.962 C 368.595 147.369,368.416 142.842,367.599 138.200 C 367.080 135.260,367.223 122.431,367.788 121.100 C 368.129 120.297,369.833 120.152,370.135 120.900 C 370.665 122.213,370.320 116.046,369.754 114.103 C 368.951 111.338,369.083 99.304,369.929 98.286 C 370.529 97.562,371.520 97.629,372.026 98.428 C 372.626 99.376,372.456 94.844,371.800 92.400 C 371.400 90.910,371.208 88.190,371.205 83.976 C 371.200 77.174,371.492 76.069,373.181 76.511 C 374.212 76.781,374.223 73.400,373.208 68.000 C 372.193 62.599,373.180 54.200,374.829 54.200 C 376.099 54.200,376.538 51.368,375.603 49.200 C 375.139 48.123,375.000 46.132,375.002 40.559 C 375.004 32.623,375.231 31.720,377.108 32.191 C 378.211 32.468,378.225 31.406,377.203 25.200 C 376.716 22.243,376.848 12.949,377.397 11.541 C 377.813 10.474,379.585 10.329,379.671 11.355 C 379.709 11.820,379.844 10.940,379.971 9.400 C 380.097 7.860,380.106 6.510,379.992 6.400 C 379.877 6.290,379.566 5.705,379.301 5.101 L 378.818 4.002 204.209 3.901 L 29.600 3.800 29.600 5.831 M344.714 37.000 C 344.826 39.728,344.297 47.394,343.832 49.800 C 343.363 52.222,343.228 53.483,343.015 57.400 C 342.589 65.228,342.339 68.218,341.993 69.600 C 341.524 71.477,341.275 74.305,340.988 81.000 C 340.856 84.080,340.677 86.960,340.589 87.400 C 340.501 87.840,340.323 89.087,340.194 90.172 C 340.064 91.257,339.895 92.247,339.818 92.372 C 339.628 92.682,339.254 97.965,338.813 106.600 C 338.610 110.560,338.264 114.700,338.044 115.800 C 337.824 116.900,337.440 121.760,337.192 126.600 C 336.943 131.440,336.495 136.840,336.196 138.600 C 335.898 140.360,335.539 144.320,335.399 147.400 C 335.183 152.160,334.839 155.527,333.804 163.000 C 333.713 163.660,333.535 166.450,333.409 169.200 C 333.142 175.066,332.795 179.478,332.513 180.600 C 332.201 181.841,331.669 187.571,331.213 194.600 C 330.984 198.120,330.688 201.450,330.555 202.000 C 330.018 204.215,329.708 207.641,329.634 212.173 C 329.592 214.799,329.498 217.049,329.427 217.173 C 329.355 217.298,329.178 218.750,329.032 220.400 C 328.886 222.050,328.691 223.670,328.599 224.000 C 328.153 225.596,327.963 227.581,327.583 234.600 C 327.357 238.780,326.924 243.280,326.620 244.600 C 326.316 245.920,325.955 249.700,325.818 253.000 C 325.504 260.537,325.290 263.038,324.637 266.798 C 324.351 268.446,324.086 271.146,324.047 272.798 C 323.944 277.244,323.235 285.330,322.609 289.200 C 322.306 291.070,321.943 295.480,321.801 299.000 C 321.659 302.520,321.302 306.570,321.008 308.000 C 320.713 309.430,320.359 312.580,320.221 315.000 C 320.082 317.420,319.884 320.930,319.780 322.800 C 319.594 326.142,319.313 328.824,318.941 330.800 C 318.837 331.350,318.613 332.860,318.443 334.157 C 318.123 336.592,317.382 337.600,315.909 337.600 C 315.504 337.600,314.773 337.848,314.286 338.150 C 313.799 338.453,312.230 338.917,310.800 339.182 C 309.370 339.446,307.828 339.901,307.373 340.193 C 306.919 340.484,305.479 340.904,304.173 341.126 C 302.868 341.347,301.075 341.800,300.189 342.132 C 299.303 342.463,297.775 342.855,296.793 343.001 C 295.812 343.147,294.287 343.589,293.404 343.982 C 292.522 344.375,290.814 344.822,289.610 344.974 C 288.405 345.127,287.172 345.457,286.870 345.708 C 286.567 345.959,286.112 346.205,285.860 346.255 C 285.607 346.304,284.321 346.554,283.002 346.811 C 281.683 347.067,280.243 347.478,279.802 347.724 C 279.361 347.970,278.910 348.189,278.800 348.209 C 278.690 348.230,277.790 348.394,276.800 348.572 C 275.810 348.751,274.190 349.211,273.200 349.593 C 272.210 349.976,270.427 350.414,269.237 350.566 C 268.048 350.719,266.548 351.117,265.904 351.450 C 265.260 351.783,263.623 352.233,262.266 352.450 C 260.910 352.667,259.440 353.076,259.000 353.357 C 258.560 353.639,257.032 354.096,255.605 354.374 C 254.178 354.651,252.532 355.125,251.947 355.427 C 251.362 355.730,250.100 356.090,249.142 356.229 C 248.184 356.367,246.110 356.912,244.533 357.440 C 242.956 357.968,241.246 358.404,240.733 358.409 C 240.220 358.414,239.061 358.753,238.158 359.163 C 237.255 359.573,235.545 360.041,234.358 360.201 C 233.171 360.362,231.703 360.748,231.096 361.059 C 230.489 361.370,229.229 361.728,228.296 361.853 C 227.363 361.979,225.610 362.443,224.400 362.885 C 223.190 363.327,221.132 363.866,219.827 364.083 C 218.521 364.300,217.081 364.716,216.627 365.007 C 216.172 365.298,215.098 365.644,214.241 365.775 C 211.871 366.139,210.743 366.414,209.092 367.034 C 206.371 368.055,205.299 367.820,204.821 366.100 C 204.261 364.083,204.231 36.497,204.791 35.025 L 205.181 33.998 274.891 34.099 L 344.600 34.200 344.714 37.000 M172.855 77.508 L 190.311 77.616 190.548 78.508 C 190.679 78.999,190.792 133.848,190.799 200.396 L 190.813 321.392 189.747 321.678 C 187.772 322.206,185.817 321.519,185.670 320.246 C 185.560 319.300,185.402 319.164,184.670 319.382 C 181.030 320.468,178.484 319.713,178.990 317.698 C 179.207 316.834,179.155 316.739,178.684 317.130 C 176.804 318.690,172.000 318.035,172.000 316.218 C 172.000 314.965,171.622 314.739,170.658 315.414 C 168.899 316.647,164.800 315.944,164.800 314.410 C 164.800 313.306,164.343 313.176,162.588 313.780 C 159.847 314.722,158.004 313.949,157.994 311.851 C 157.990 311.128,157.860 310.801,157.684 311.077 C 157.130 311.949,153.782 312.611,152.615 312.079 C 151.678 311.653,151.459 311.336,150.980 309.714 C 150.871 309.348,150.562 309.372,149.718 309.812 C 147.682 310.874,144.509 310.303,144.117 308.804 C 143.929 308.085,143.667 308.038,141.047 308.260 C 137.831 308.532,136.945 308.046,137.297 306.202 C 137.523 305.021,137.590 305.044,136.146 305.798 C 133.923 306.957,130.078 306.608,129.281 305.175 C 128.646 304.032,128.491 303.968,127.000 304.224 C 123.529 304.820,122.400 304.465,122.400 302.776 C 122.400 301.438,122.152 301.360,120.546 302.198 C 118.349 303.343,115.885 302.855,115.172 301.131 C 114.775 300.175,114.511 299.992,113.839 300.207 C 110.862 301.158,108.956 300.864,108.387 299.365 C 108.010 298.374,107.939 298.358,105.204 298.627 C 102.124 298.931,101.200 298.559,101.200 297.018 C 101.200 295.778,100.843 295.556,99.854 296.182 C 97.586 297.615,94.689 297.212,93.987 295.365 C 93.642 294.458,93.440 294.358,92.494 294.626 C 89.519 295.466,88.146 295.123,87.405 293.351 C 86.412 290.974,86.460 253.141,87.457 252.749 C 89.733 251.853,92.400 252.644,92.400 254.214 C 92.400 255.212,92.947 255.533,93.400 254.800 C 94.014 253.806,97.939 254.349,98.827 255.551 C 99.648 256.662,99.769 256.694,102.301 256.491 C 105.190 256.259,106.131 256.813,105.693 258.486 C 105.507 259.198,105.595 259.284,106.236 259.017 C 109.108 257.822,112.579 258.015,113.010 259.394 C 113.115 259.727,113.282 260.264,113.382 260.586 C 113.541 261.099,113.702 261.099,114.682 260.588 C 116.551 259.613,118.326 259.836,119.607 261.207 C 120.678 262.355,120.846 262.402,122.974 262.151 C 125.605 261.842,126.861 262.571,126.560 264.233 C 126.359 265.339,126.599 265.401,128.000 264.600 C 130.104 263.397,134.000 264.223,134.000 265.873 C 134.000 266.378,134.252 266.439,135.300 266.185 C 138.494 265.410,141.036 266.207,140.622 267.854 C 140.408 268.707,140.472 268.791,141.087 268.467 C 143.898 266.989,147.600 267.641,147.600 269.614 C 147.600 270.818,148.265 271.175,149.049 270.391 C 149.273 270.167,150.254 269.847,151.229 269.680 L 153.000 269.378 153.101 173.629 C 153.205 74.520,153.175 76.287,154.764 77.082 C 155.114 77.257,163.255 77.449,172.855 77.508 " stroke="none" fill="#e4bc04" fill-rule="evenodd"></path><path id="path2" d="M30.900 1.081 C 30.338 1.190,30.000 1.545,30.000 2.028 C 30.000 2.453,30.000 2.935,30.000 3.100 C 30.000 3.265,30.180 3.423,30.400 3.450 C 30.620 3.478,109.269 3.522,205.175 3.550 L 379.549 3.600 379.675 4.900 C 379.896 7.194,381.369 6.691,381.523 4.269 C 381.652 2.254,381.212 1.314,380.073 1.167 C 378.745 0.996,31.780 0.911,30.900 1.081 M29.787 12.109 C 29.569 12.977,29.783 27.539,30.031 28.671 C 30.264 29.742,31.517 29.516,31.748 28.361 C 32.867 22.763,32.317 11.473,30.914 11.274 C 30.259 11.181,29.966 11.398,29.787 12.109 M377.572 15.473 C 376.673 17.839,377.656 29.325,378.739 29.116 C 379.779 28.916,380.599 17.228,379.732 14.968 C 379.360 13.999,378.013 14.314,377.572 15.473 M32.223 35.637 C 32.346 35.837,32.257 36.000,32.024 36.000 C 31.164 36.000,31.495 50.040,32.382 51.194 C 33.409 52.532,33.473 52.397,33.975 47.797 C 34.670 41.440,34.124 35.830,32.777 35.478 C 32.349 35.366,32.100 35.438,32.223 35.637 M375.800 36.401 C 374.869 39.334,375.652 50.400,376.791 50.400 C 378.343 50.400,378.484 35.897,376.934 35.677 C 376.340 35.592,375.984 35.819,375.800 36.401 M373.863 58.472 C 372.925 66.275,374.153 76.007,375.595 72.212 C 376.078 70.942,376.050 57.200,375.564 57.200 C 375.364 57.200,375.085 57.215,374.945 57.234 C 374.804 57.253,374.561 57.060,374.404 56.806 C 374.247 56.552,374.003 57.301,373.863 58.472 M33.852 58.681 C 33.289 59.245,33.628 72.485,34.221 73.078 C 35.528 74.385,35.913 72.597,35.959 65.000 C 35.997 58.865,35.415 57.118,33.852 58.681 M153.884 77.450 C 153.728 77.606,153.600 120.908,153.600 173.677 L 153.600 269.620 152.574 270.010 C 152.010 270.224,150.924 270.400,150.161 270.400 C 148.624 270.400,147.998 271.233,148.804 272.205 C 149.603 273.168,154.182 273.018,155.204 271.996 C 156.005 271.195,156.008 270.886,155.904 174.296 L 155.800 77.400 154.984 77.283 C 154.534 77.219,154.039 77.294,153.884 77.450 M189.467 77.867 C 189.320 78.013,189.200 132.283,189.200 198.467 L 189.200 318.800 187.800 318.800 C 186.040 318.800,185.677 320.603,187.352 321.024 C 189.197 321.487,190.603 321.084,190.571 320.100 C 190.556 319.605,190.511 264.840,190.471 198.400 C 190.432 131.960,190.250 77.600,190.067 77.600 C 189.883 77.600,189.613 77.720,189.467 77.867 M36.135 79.853 C 35.628 80.060,35.353 92.491,35.828 93.728 C 36.418 95.265,37.480 94.472,37.741 92.300 C 38.313 87.532,37.876 79.572,37.044 79.632 C 36.800 79.649,36.391 79.749,36.135 79.853 M371.857 81.100 C 371.137 85.453,371.873 94.492,372.931 94.290 C 373.773 94.129,373.907 93.092,373.969 86.300 L 374.030 79.600 373.068 79.600 C 372.266 79.600,372.063 79.851,371.857 81.100 M325.292 81.302 C 323.751 82.942,324.076 95.648,325.666 95.910 C 327.163 96.156,327.790 85.630,326.525 81.477 L 326.183 80.353 325.292 81.302 M371.100 100.718 C 370.038 100.931,369.794 102.479,369.862 108.600 C 369.935 115.287,370.221 116.619,371.394 115.757 C 372.975 114.597,372.697 100.398,371.100 100.718 M323.356 101.265 C 322.769 102.206,322.674 102.910,322.511 107.500 L 322.352 112.000 289.799 112.000 C 268.181 112.000,257.163 112.137,256.996 112.407 C 256.858 112.630,256.596 112.721,256.414 112.609 C 256.138 112.438,255.600 113.248,255.600 113.833 C 255.600 113.925,270.618 114.000,288.974 114.000 C 308.107 114.000,322.757 114.156,323.307 114.365 C 324.991 115.005,325.234 114.449,325.229 109.966 C 325.224 104.021,324.304 99.748,323.356 101.265 M37.356 103.035 C 36.723 105.555,37.376 116.447,38.195 117.046 C 38.927 117.581,39.014 117.540,39.314 116.513 C 39.882 114.571,40.159 104.245,39.668 103.328 C 38.978 102.038,37.648 101.869,37.356 103.035 M39.431 124.264 C 38.666 126.258,39.258 137.460,40.190 138.628 L 41.114 139.787 41.457 136.594 C 41.870 132.746,41.881 126.220,41.477 124.700 C 41.147 123.459,39.846 123.182,39.431 124.264 M368.165 124.057 C 367.257 125.526,367.975 142.607,368.932 142.291 C 370.219 141.867,371.227 127.020,370.157 124.233 C 369.876 123.500,368.580 123.386,368.165 124.057 M42.000 146.436 C 42.000 146.662,41.820 146.736,41.600 146.600 C 40.600 145.982,41.125 158.588,42.149 159.780 L 43.097 160.884 43.377 158.646 C 43.716 155.935,43.736 148.257,43.406 147.220 C 43.149 146.408,42.000 145.768,42.000 146.436 M366.195 151.216 C 365.417 153.667,366.054 163.600,366.989 163.600 C 368.751 163.600,369.090 150.727,367.334 150.477 C 366.736 150.391,366.384 150.620,366.195 151.216 M43.685 167.870 C 42.650 168.286,43.073 181.978,44.134 182.374 C 45.250 182.791,45.547 181.261,45.591 174.865 C 45.638 168.245,45.353 167.200,43.685 167.870 M364.258 172.479 C 363.423 175.597,364.196 186.379,365.235 186.107 C 366.807 185.696,366.919 171.903,365.352 171.679 C 364.750 171.593,364.433 171.825,364.258 172.479 M311.433 172.926 C 309.807 174.115,310.795 174.991,313.904 175.118 L 316.800 175.235 316.800 182.244 L 316.800 189.253 317.900 189.127 C 320.051 188.879,320.267 173.586,318.132 172.774 C 316.665 172.216,312.267 172.316,311.433 172.926 M301.241 174.396 C 298.964 174.611,298.060 175.336,298.532 176.567 C 299.031 177.868,308.016 177.177,308.546 175.796 C 308.672 175.468,308.556 175.194,308.287 175.186 C 308.019 175.178,306.810 174.951,305.600 174.682 C 304.390 174.412,302.428 174.284,301.241 174.396 M286.938 176.471 C 286.464 176.701,285.998 177.298,285.902 177.799 C 285.700 178.858,293.834 179.368,295.036 178.370 C 296.938 176.791,289.757 175.107,286.938 176.471 M274.800 178.356 C 274.099 178.549,273.762 178.955,273.673 179.716 L 273.547 180.800 277.727 180.800 C 281.701 180.800,281.939 180.752,282.538 179.838 L 283.168 178.877 280.651 178.438 C 277.888 177.957,276.324 177.935,274.800 178.356 M261.700 180.412 C 260.636 180.840,260.505 182.201,261.491 182.580 C 263.517 183.357,270.244 182.641,270.511 181.620 C 270.842 180.353,264.135 179.434,261.700 180.412 M45.467 189.067 C 44.897 189.637,45.171 203.807,45.767 204.623 C 46.577 205.730,46.920 205.146,47.260 202.086 C 48.205 193.591,47.326 187.208,45.467 189.067 M362.740 193.072 C 361.699 194.326,362.154 208.800,363.234 208.800 C 364.083 208.800,364.400 206.444,364.400 200.145 C 364.400 193.153,364.019 191.531,362.740 193.072 M315.747 193.704 C 314.086 195.816,314.476 210.000,316.196 210.000 C 317.631 210.000,318.136 201.578,317.069 195.418 L 316.588 192.635 315.747 193.704 M46.869 217.089 C 47.010 225.795,47.630 228.418,48.826 225.369 C 50.190 221.891,49.646 211.600,48.097 211.600 C 47.603 211.600,47.347 211.263,47.286 210.532 C 46.976 206.789,46.757 210.227,46.869 217.089 M277.242 213.966 C 276.477 214.450,276.992 215.600,277.973 215.600 C 279.151 215.600,279.600 216.807,279.600 219.968 C 279.600 225.065,280.953 228.030,281.961 225.140 C 282.505 223.580,282.540 216.021,282.010 214.626 C 281.597 213.541,278.574 213.122,277.242 213.966 M313.735 214.100 C 313.166 215.010,313.084 215.752,312.911 221.574 C 312.695 228.821,312.870 229.952,314.171 229.703 C 315.437 229.461,315.588 228.730,315.595 222.812 C 315.602 216.377,314.764 212.453,313.735 214.100 M266.076 215.479 C 264.808 215.730,265.037 217.267,266.400 217.644 C 267.847 218.044,273.706 218.048,274.335 217.649 C 276.852 216.053,270.972 214.508,266.076 215.479 M360.165 217.043 C 359.664 219.718,360.515 230.000,361.238 230.000 C 362.222 230.000,362.570 227.927,362.585 222.000 L 362.600 215.800 361.523 215.676 C 360.563 215.565,360.415 215.714,360.165 217.043 M253.160 217.749 C 250.942 218.865,253.814 220.006,258.812 219.994 C 261.964 219.986,262.602 219.657,262.242 218.224 L 261.975 217.161 258.016 217.229 C 255.839 217.267,253.654 217.501,253.160 217.749 M241.100 219.625 C 239.807 220.391,240.356 221.031,242.724 221.520 C 247.323 222.470,250.562 221.950,250.328 220.299 C 250.184 219.287,242.605 218.733,241.100 219.625 M229.071 221.544 C 228.284 223.189,231.770 224.319,235.913 223.761 C 238.456 223.419,238.607 223.340,238.728 222.281 L 238.857 221.163 234.025 221.225 C 231.367 221.260,229.138 221.403,229.071 221.544 M219.756 223.192 C 217.045 224.287,218.462 225.804,222.178 225.784 C 225.251 225.767,226.400 225.281,226.400 223.998 C 226.400 222.870,221.901 222.325,219.756 223.192 M278.021 231.500 C 277.039 235.036,277.838 244.012,279.118 243.824 C 280.150 243.672,280.342 242.485,280.372 236.100 L 280.400 230.000 279.419 230.000 C 278.626 230.000,278.358 230.288,278.021 231.500 M49.214 233.300 C 48.981 234.271,48.828 246.210,49.040 246.900 C 50.431 251.448,52.311 240.452,51.125 234.700 C 50.746 232.858,49.532 231.970,49.214 233.300 M311.415 235.187 C 311.346 235.304,311.260 238.775,311.223 242.900 L 311.155 250.400 312.141 250.400 C 313.821 250.400,314.381 244.332,313.383 236.928 C 313.128 235.029,312.060 234.085,311.415 235.187 M358.979 236.434 C 358.093 237.867,358.160 250.697,359.058 251.590 C 360.473 252.998,361.753 238.893,360.400 236.800 C 360.187 236.470,360.007 236.380,360.000 236.600 C 359.993 236.820,359.833 236.756,359.644 236.457 C 359.364 236.016,359.240 236.012,358.979 236.434 M276.003 250.981 C 275.145 256.493,275.869 264.800,277.207 264.800 C 278.303 264.800,278.400 264.071,278.400 255.810 C 278.400 249.135,278.314 248.053,277.767 247.843 C 276.625 247.405,276.534 247.567,276.003 250.981 M87.700 253.084 L 86.800 253.256 86.800 272.665 C 86.800 291.551,86.821 292.080,87.578 292.278 C 88.005 292.390,88.410 292.868,88.478 293.341 C 88.619 294.336,90.304 294.619,93.049 294.107 C 96.023 293.553,94.818 292.000,91.413 292.000 L 88.800 292.000 88.800 273.800 L 88.800 255.600 89.700 255.553 C 90.195 255.527,90.735 255.527,90.900 255.553 C 91.065 255.579,91.200 255.060,91.200 254.400 C 91.200 253.484,91.019 253.200,90.433 253.200 C 90.011 253.200,89.426 253.135,89.133 253.056 C 88.840 252.977,88.195 252.990,87.700 253.084 M93.100 255.281 C 91.270 255.767,91.216 256.150,92.861 256.971 C 94.144 257.610,97.575 257.847,97.631 257.300 C 97.647 257.135,97.722 256.683,97.796 256.295 C 98.057 254.928,96.056 254.496,93.100 255.281 M309.891 255.566 C 308.704 256.769,309.031 271.347,310.249 271.521 C 311.802 271.743,312.526 264.726,311.614 258.296 C 311.086 254.582,310.999 254.443,309.891 255.566 M51.053 255.880 C 50.699 256.235,50.773 269.320,51.133 269.859 C 52.594 272.045,53.331 268.908,53.251 260.837 C 53.203 255.949,52.521 254.412,51.053 255.880 M100.076 257.091 C 98.981 257.226,98.773 257.406,98.876 258.127 C 99.057 259.402,104.576 259.698,104.903 258.450 C 105.301 256.926,104.119 256.593,100.076 257.091 M356.650 259.488 C 355.922 264.797,356.552 274.390,357.610 274.113 C 359.482 273.624,359.344 258.601,357.461 257.879 C 357.049 257.721,356.834 258.148,356.650 259.488 M107.077 259.080 C 104.997 259.619,106.535 260.997,109.352 261.119 C 111.613 261.218,112.229 261.395,112.812 262.114 C 113.953 263.523,118.600 263.432,118.600 262.000 C 118.600 261.013,118.560 261.001,115.500 261.073 C 112.501 261.144,112.400 261.116,112.400 260.216 C 112.400 258.907,109.848 258.362,107.077 259.080 M121.496 262.784 C 118.669 263.332,119.069 264.626,122.185 265.015 C 124.544 265.310,125.988 264.802,125.831 263.733 C 125.660 262.563,124.239 262.252,121.496 262.784 M128.070 264.823 C 126.183 265.580,127.158 266.588,129.904 266.719 C 132.316 266.834,132.400 266.805,132.400 265.862 C 132.400 264.437,130.294 263.932,128.070 264.823 M269.997 266.513 C 269.665 266.781,269.453 267.405,269.525 267.900 C 269.757 269.494,276.000 268.885,276.000 267.268 C 276.000 266.451,270.872 265.806,269.997 266.513 M134.596 266.753 C 133.933 266.889,133.396 267.180,133.402 267.400 C 133.446 269.086,139.600 269.546,139.600 267.864 C 139.600 266.438,137.932 266.067,134.596 266.753 M262.900 268.265 C 262.625 268.376,262.400 268.992,262.400 269.633 L 262.400 270.800 265.120 270.800 C 267.761 270.800,268.800 270.396,268.800 269.367 C 268.800 268.537,264.308 267.697,262.900 268.265 M141.477 268.672 C 139.332 269.253,140.942 270.598,143.928 270.718 L 146.857 270.836 146.728 269.718 C 146.598 268.582,143.837 268.032,141.477 268.672 M256.154 270.306 C 255.142 270.973,255.111 272.363,256.104 272.612 C 258.411 273.191,261.000 272.665,261.000 271.618 C 261.000 270.330,257.540 269.393,256.154 270.306 M248.954 272.577 C 248.417 273.976,248.965 274.599,250.788 274.659 C 254.225 274.772,256.114 273.376,253.673 272.525 C 251.661 271.824,249.232 271.851,248.954 272.577 M242.400 273.895 C 241.294 274.100,240.815 274.642,240.806 275.700 C 240.795 276.987,247.399 276.722,247.506 275.432 C 247.573 274.613,244.238 273.140,243.480 273.654 C 243.436 273.684,242.950 273.793,242.400 273.895 M307.564 276.294 C 306.887 278.077,307.255 290.339,308.000 290.809 C 309.378 291.679,309.603 291.024,309.893 285.280 C 310.255 278.100,308.886 272.817,307.564 276.294 M234.800 275.958 C 232.356 276.638,233.514 278.188,236.564 278.320 C 240.409 278.486,241.514 276.971,238.194 276.083 C 236.221 275.555,236.245 275.556,234.800 275.958 M52.840 283.300 C 52.882 290.221,53.052 291.416,53.993 291.406 C 54.804 291.398,55.149 289.165,55.177 283.750 C 55.207 277.905,54.980 276.800,53.750 276.800 L 52.800 276.800 52.840 283.300 M227.190 278.113 C 226.854 278.381,226.607 278.825,226.640 279.100 C 226.673 279.375,226.722 279.788,226.750 280.018 C 226.874 281.054,232.200 280.272,232.200 279.218 C 232.200 277.790,228.591 276.994,227.190 278.113 M220.168 280.138 C 219.432 282.057,221.571 282.949,224.862 282.096 C 226.395 281.699,226.772 280.285,225.400 280.081 C 221.709 279.534,220.395 279.548,220.168 280.138 M356.197 280.395 C 356.337 280.621,356.178 280.690,355.826 280.555 C 354.688 280.118,354.318 282.252,354.502 288.200 C 354.696 294.516,355.060 296.083,356.093 295.050 C 356.885 294.258,357.168 280.000,356.391 280.000 C 356.150 280.000,356.063 280.178,356.197 280.395 M95.200 294.938 C 95.200 295.993,95.856 296.403,97.533 296.395 C 99.560 296.384,100.450 295.954,100.321 295.048 C 100.120 293.640,95.200 293.534,95.200 294.938 M102.000 296.782 C 102.000 298.787,107.630 298.933,107.921 296.936 C 108.066 295.937,107.137 295.613,104.100 295.605 C 102.039 295.600,102.000 295.622,102.000 296.782 M301.072 296.506 L 299.944 297.409 301.721 297.934 C 304.664 298.802,306.175 298.463,306.325 296.900 L 306.451 295.600 304.325 295.602 C 302.721 295.603,301.923 295.825,301.072 296.506 M54.571 304.043 C 54.627 311.418,54.714 312.409,55.397 313.443 L 56.160 314.600 56.491 313.200 C 57.728 307.969,57.174 297.952,55.660 298.183 C 55.207 298.252,54.923 297.894,54.754 297.042 C 54.618 296.359,54.536 299.510,54.571 304.043 M109.484 297.850 C 108.844 298.490,109.249 299.639,110.250 300.019 C 111.565 300.519,115.600 299.672,115.600 298.896 C 115.600 297.950,110.292 297.042,109.484 297.850 M294.188 298.437 C 293.829 299.567,294.235 299.926,296.204 300.222 C 298.920 300.629,300.078 300.213,299.925 298.886 C 299.760 297.451,294.629 297.049,294.188 298.437 M116.472 300.680 C 116.615 301.934,117.783 302.280,120.288 301.810 C 122.932 301.314,121.942 299.826,118.872 299.680 L 116.343 299.560 116.472 300.680 M286.880 300.080 C 285.683 301.277,286.931 301.974,290.552 302.132 C 292.234 302.206,293.123 301.420,292.676 300.254 C 292.368 299.451,287.651 299.309,286.880 300.080 M123.273 302.700 C 123.396 303.762,123.479 303.798,125.666 303.756 C 128.792 303.695,129.359 303.444,128.713 302.409 C 127.812 300.966,123.103 301.218,123.273 302.700 M280.500 302.605 C 280.500 303.613,280.534 303.632,283.343 304.198 C 284.706 304.473,286.000 303.699,286.000 302.610 C 286.000 301.628,285.924 301.600,283.250 301.600 C 280.580 301.600,280.500 301.629,280.500 302.605 M352.886 302.786 C 352.514 304.104,352.554 314.158,352.939 316.099 L 353.236 317.598 354.087 316.805 C 355.029 315.927,355.575 308.266,355.015 303.783 C 354.715 301.383,353.449 300.790,352.886 302.786 M129.914 304.171 C 130.362 306.014,131.366 306.327,134.935 305.738 C 138.559 305.139,137.057 303.443,132.850 303.385 C 129.867 303.344,129.722 303.383,129.914 304.171 M272.999 304.072 L 271.914 304.926 272.857 305.438 C 275.579 306.918,278.800 306.404,278.800 304.491 C 278.800 302.943,274.801 302.655,272.999 304.072 M138.243 305.833 C 138.109 306.181,138.000 306.635,138.000 306.843 C 138.000 308.129,144.063 308.056,144.311 306.766 C 144.584 305.351,138.771 304.456,138.243 305.833 M265.705 305.565 C 264.723 306.260,265.465 307.376,267.200 307.815 C 269.948 308.510,272.009 307.511,271.147 305.901 C 270.756 305.170,266.625 304.914,265.705 305.565 M145.867 307.467 C 145.256 308.078,145.658 309.242,146.605 309.602 C 147.895 310.092,151.600 309.291,151.600 308.521 C 151.600 307.508,146.722 306.611,145.867 307.467 M258.300 307.632 C 256.534 308.661,260.347 310.502,262.911 309.858 C 263.837 309.626,264.628 307.962,264.076 307.409 C 263.700 307.033,259.018 307.214,258.300 307.632 M152.553 309.779 C 151.931 311.399,153.290 311.962,156.350 311.350 C 157.298 311.160,157.600 310.886,157.600 310.216 C 157.600 309.072,152.977 308.672,152.553 309.779 M252.200 309.506 C 251.173 310.261,251.599 311.168,253.208 311.650 C 255.412 312.310,256.955 311.776,257.127 310.293 C 257.255 309.186,253.460 308.580,252.200 309.506 M159.093 311.966 C 158.741 313.312,159.724 313.723,162.570 313.418 C 164.745 313.185,165.137 313.026,165.090 312.399 C 165.059 311.990,164.891 311.744,164.717 311.851 C 164.543 311.959,164.400 311.885,164.400 311.687 C 164.400 310.846,159.316 311.114,159.093 311.966 M244.636 311.658 C 244.752 311.846,244.657 312.000,244.424 312.000 C 243.057 312.000,244.297 313.103,246.073 313.467 C 248.852 314.036,250.163 313.661,250.329 312.252 L 250.457 311.156 247.441 311.236 C 245.782 311.280,244.520 311.470,244.636 311.658 M165.912 313.764 C 166.308 315.389,166.860 315.704,168.889 315.464 C 171.754 315.125,172.204 314.769,171.171 313.661 C 169.961 312.362,165.591 312.447,165.912 313.764 M238.427 313.663 L 237.587 314.565 238.493 315.068 C 240.678 316.281,244.163 315.568,243.935 313.955 C 243.733 312.529,239.683 312.315,238.427 313.663 M172.800 315.789 C 172.800 316.972,174.226 317.731,175.828 317.401 C 176.362 317.290,177.250 317.107,177.800 316.992 C 178.861 316.772,179.214 315.436,178.300 315.104 C 176.239 314.353,172.800 314.782,172.800 315.789 M231.195 315.203 C 230.425 315.679,230.925 316.943,232.002 317.243 C 235.075 318.098,237.200 317.469,237.200 315.706 C 237.200 314.748,232.559 314.360,231.195 315.203 M180.159 317.363 C 179.570 318.896,180.275 319.320,183.045 319.097 C 185.248 318.920,187.774 318.000,186.056 318.000 C 185.779 318.000,185.645 317.850,185.759 317.667 C 185.996 317.283,185.815 317.241,182.702 316.945 C 180.833 316.767,180.358 316.845,180.159 317.363 M224.400 317.083 C 223.795 317.322,223.217 317.985,223.206 318.455 C 223.200 318.715,224.656 319.076,227.256 319.460 C 229.129 319.737,230.490 319.034,230.324 317.873 C 230.198 316.983,226.054 316.430,224.400 317.083 M218.824 319.700 C 218.434 320.702,219.206 321.600,220.458 321.600 C 221.701 321.600,223.244 320.693,223.015 320.096 C 222.897 319.787,222.800 319.369,222.800 319.167 C 222.800 318.289,219.185 318.773,218.824 319.700 M56.635 321.453 C 56.324 322.263,56.355 333.371,56.672 334.700 C 57.856 339.666,59.888 329.060,58.914 323.000 C 58.570 320.860,57.215 319.941,56.635 321.453 M350.790 325.426 C 350.011 327.474,350.609 338.369,351.552 339.312 C 352.710 340.470,353.990 327.724,352.979 325.091 C 352.576 324.040,351.239 324.245,350.790 325.426 M58.916 342.400 C 59.031 342.839,58.962 343.300,58.762 343.423 C 58.363 343.670,58.255 355.156,58.643 356.167 C 59.119 357.408,60.293 356.889,60.606 355.300 C 61.493 350.796,60.775 341.026,59.636 342.086 C 59.219 342.474,59.152 342.477,59.365 342.100 C 59.521 341.823,59.437 341.600,59.177 341.600 C 58.904 341.600,58.794 341.935,58.916 342.400 M348.985 347.700 C 348.825 348.855,348.704 351.553,348.715 353.696 C 348.738 357.915,348.689 358.015,346.414 358.382 C 345.239 358.571,344.979 358.795,344.873 359.705 C 344.665 361.512,347.905 361.321,349.813 359.413 L 351.200 358.027 351.200 353.063 C 351.200 347.069,350.961 345.600,349.988 345.600 C 349.432 345.600,349.211 346.061,348.985 347.700 M60.471 359.478 C 60.592 360.532,60.728 360.607,62.729 360.722 C 64.849 360.843,64.857 360.839,64.729 359.722 C 64.608 358.668,64.472 358.593,62.471 358.478 C 60.351 358.357,60.343 358.361,60.471 359.478 M67.929 360.284 C 66.733 360.467,65.802 361.356,66.175 361.959 C 66.505 362.493,69.750 362.950,70.995 362.637 C 72.961 362.144,71.574 359.794,69.474 360.060 C 69.213 360.093,68.518 360.194,67.929 360.284 M338.741 360.279 C 337.624 360.557,337.532 361.986,338.600 362.473 C 340.576 363.373,344.593 361.935,343.313 360.785 C 342.915 360.428,339.613 360.062,338.741 360.279 M74.342 362.451 C 73.562 362.737,73.339 363.043,73.489 363.619 C 73.832 364.932,78.400 364.775,78.400 363.450 C 78.400 362.143,76.475 361.669,74.342 362.451 M332.400 362.279 C 331.688 362.565,331.215 363.208,331.206 363.900 C 331.197 364.683,336.554 364.579,337.214 363.783 C 338.091 362.727,334.265 361.532,332.400 362.279 M80.876 364.291 C 79.781 364.426,79.573 364.606,79.676 365.327 C 79.880 366.764,85.600 366.892,85.600 365.460 C 85.600 364.046,84.691 363.821,80.876 364.291 M324.900 364.265 C 324.625 364.376,324.400 364.910,324.400 365.452 C 324.400 366.865,329.718 366.772,329.921 365.356 C 330.072 364.296,326.659 363.555,324.900 364.265 M89.800 365.862 C 89.360 365.955,88.583 366.121,88.074 366.230 C 87.390 366.376,87.181 366.660,87.274 367.314 C 87.480 368.765,93.200 368.903,93.200 367.457 C 93.200 366.677,91.060 365.164,90.640 365.646 C 90.618 365.672,90.240 365.769,89.800 365.862 M317.600 365.956 C 315.235 366.607,316.052 368.400,318.714 368.400 C 323.335 368.400,325.657 366.699,321.708 366.206 C 320.480 366.052,319.278 365.871,319.037 365.804 C 318.797 365.736,318.150 365.805,317.600 365.956 M96.800 367.893 C 95.001 368.104,94.615 368.507,95.188 369.577 C 95.829 370.776,99.706 370.653,99.940 369.426 C 100.071 368.738,99.004 367.498,98.424 367.664 C 98.301 367.699,97.570 367.802,96.800 367.893 M310.116 368.212 C 308.758 369.205,309.674 370.193,312.071 370.319 C 314.330 370.438,315.632 369.426,314.540 368.401 C 313.980 367.875,310.764 367.738,310.116 368.212 M102.395 370.142 C 100.863 370.641,100.525 371.630,101.800 371.882 C 105.807 372.674,107.324 372.360,106.922 370.822 C 106.602 369.600,104.859 369.339,102.395 370.142 M303.700 369.999 C 302.427 370.530,302.522 371.915,303.854 372.249 C 306.401 372.888,310.524 370.963,308.123 370.256 C 306.440 369.760,304.539 369.650,303.700 369.999 M109.476 371.889 C 106.910 372.275,108.268 373.785,111.300 373.918 C 113.542 374.016,114.167 374.203,114.982 375.018 C 116.541 376.577,120.509 376.489,120.327 374.900 C 120.201 373.809,120.175 373.800,117.200 373.800 C 114.436 373.800,114.190 373.732,114.078 372.941 C 113.906 371.735,112.555 371.426,109.476 371.889 M296.800 371.991 C 296.470 372.199,296.180 372.737,296.155 373.185 C 296.085 374.430,300.996 374.423,301.322 373.178 C 301.662 371.877,298.356 371.009,296.800 371.991 M289.661 373.927 C 288.263 374.883,289.341 375.799,291.926 375.851 C 294.432 375.902,296.115 375.155,295.308 374.348 C 294.798 373.838,290.284 373.501,289.661 373.927 M122.061 375.954 C 120.595 376.883,121.757 377.800,124.400 377.800 C 126.616 377.800,127.010 377.692,127.134 377.048 C 127.331 376.027,126.542 375.612,124.400 375.612 C 123.410 375.612,122.357 375.766,122.061 375.954 M282.461 375.954 C 280.562 377.157,284.065 378.572,287.073 377.817 C 288.140 377.550,288.339 376.216,287.367 375.843 C 286.432 375.484,283.083 375.560,282.461 375.954 M129.300 377.691 C 126.484 378.391,127.458 379.554,131.142 379.888 C 133.336 380.087,133.535 380.036,133.796 379.211 C 134.309 377.598,132.344 376.934,129.300 377.691 M276.677 377.480 C 275.544 377.774,275.929 379.762,277.152 379.935 C 278.622 380.142,280.702 379.640,281.444 378.899 C 282.372 377.971,278.840 376.920,276.677 377.480 M136.500 379.489 C 135.310 379.637,134.413 381.547,135.500 381.620 C 139.474 381.888,141.133 382.204,141.952 382.848 C 143.370 383.963,147.024 383.915,147.322 382.777 C 147.665 381.466,146.041 380.936,143.599 381.562 C 141.361 382.135,140.800 381.947,140.800 380.623 C 140.800 379.997,140.506 379.615,139.900 379.452 C 138.981 379.206,138.766 379.208,136.500 379.489 M269.928 379.689 C 268.144 381.082,270.608 382.524,273.463 381.758 C 274.289 381.536,275.009 380.163,274.462 379.851 C 273.570 379.344,270.511 379.234,269.928 379.689 M262.900 381.442 C 261.118 382.241,262.423 383.600,264.971 383.600 C 267.717 383.600,269.582 382.670,268.288 381.946 C 267.534 381.523,263.549 381.151,262.900 381.442 M149.500 383.478 C 146.759 383.915,148.670 385.600,151.907 385.600 C 154.449 385.600,154.453 385.598,154.327 384.500 C 154.194 383.344,152.538 382.993,149.500 383.478 M255.718 383.492 C 254.162 384.567,255.335 385.634,257.945 385.516 C 260.391 385.406,261.910 384.576,261.117 383.784 C 260.704 383.371,256.242 383.129,255.718 383.492 M156.131 385.531 C 155.274 385.796,155.272 385.813,156.013 386.723 C 157.152 388.120,160.600 387.877,160.600 386.400 C 160.600 385.334,158.245 384.876,156.131 385.531 M248.945 385.800 C 248.184 387.782,252.490 388.542,253.733 386.646 C 254.340 385.720,254.322 385.684,253.129 385.446 C 250.963 385.013,249.189 385.163,248.945 385.800 M163.600 387.153 C 161.288 387.561,161.418 389.022,163.798 389.379 C 167.354 389.912,169.764 388.251,166.974 387.190 C 165.878 386.774,165.754 386.772,163.600 387.153 M242.700 387.062 C 242.252 387.188,242.000 387.653,242.000 388.355 C 242.000 389.595,244.367 390.049,246.534 389.225 C 247.936 388.692,248.021 387.200,246.650 387.200 C 246.128 387.200,245.183 387.125,244.550 387.032 C 243.918 386.940,243.085 386.953,242.700 387.062 M170.300 389.076 C 168.262 389.608,169.535 391.200,172.000 391.200 C 174.265 391.200,174.400 391.146,174.400 390.243 C 174.400 388.928,172.709 388.446,170.300 389.076 M235.724 389.300 C 234.453 391.002,238.473 392.030,240.699 390.572 L 241.725 389.900 240.162 389.356 C 238.200 388.673,236.212 388.648,235.724 389.300 M176.500 391.089 C 173.606 391.449,175.490 393.200,178.771 393.200 C 181.066 393.200,181.200 393.147,181.200 392.243 C 181.200 390.849,180.271 390.621,176.500 391.089 M228.900 391.044 C 227.025 391.879,228.435 393.235,231.058 393.118 C 233.502 393.010,235.127 392.194,234.383 391.450 C 234.078 391.144,229.445 390.801,228.900 391.044 M183.261 393.154 C 181.926 394.000,182.946 394.997,185.271 395.119 C 187.557 395.239,188.581 394.464,187.802 393.204 C 187.500 392.714,184.015 392.676,183.261 393.154 M222.267 393.067 C 221.148 394.185,222.046 395.200,224.154 395.200 C 226.904 395.200,228.617 393.503,226.329 393.046 C 224.709 392.722,222.601 392.733,222.267 393.067 M216.000 394.768 C 214.462 395.180,214.594 396.954,216.176 397.134 C 218.483 397.397,220.800 396.820,220.800 395.983 C 220.800 394.998,217.889 394.261,216.000 394.768 M189.300 395.056 C 188.463 395.408,188.734 396.689,189.700 396.948 C 192.384 397.667,194.859 397.250,194.727 396.100 C 194.601 395.007,191.043 394.323,189.300 395.056 M197.876 396.689 C 195.113 397.104,196.422 399.073,199.507 399.141 C 202.113 399.198,202.814 398.923,202.658 397.903 C 202.460 396.605,200.963 396.225,197.876 396.689 M208.100 396.812 C 207.398 397.095,206.763 398.691,207.300 398.825 C 210.193 399.547,213.200 399.118,213.200 397.982 C 213.200 396.634,210.236 395.954,208.100 396.812 " stroke="none" fill="#ebd73f" fill-rule="evenodd"></path><path id="path3" d="M204.791 35.025 C 204.231 36.497,204.261 364.083,204.821 366.100 C 205.299 367.820,206.371 368.055,209.092 367.034 C 210.743 366.414,211.871 366.139,214.241 365.775 C 215.098 365.644,216.172 365.298,216.627 365.007 C 217.081 364.716,218.521 364.300,219.827 364.083 C 221.132 363.866,223.190 363.327,224.400 362.885 C 225.610 362.443,227.363 361.979,228.296 361.853 C 229.229 361.728,230.489 361.370,231.096 361.059 C 231.703 360.748,233.171 360.362,234.358 360.201 C 235.545 360.041,237.255 359.573,238.158 359.163 C 239.061 358.753,240.220 358.414,240.733 358.409 C 241.246 358.404,242.956 357.968,244.533 357.440 C 246.110 356.912,248.184 356.367,249.142 356.229 C 250.100 356.090,251.362 355.730,251.947 355.427 C 252.532 355.125,254.178 354.651,255.605 354.374 C 257.032 354.096,258.560 353.639,259.000 353.357 C 259.440 353.076,260.910 352.667,262.266 352.450 C 263.623 352.233,265.260 351.783,265.904 351.450 C 266.548 351.117,268.048 350.719,269.237 350.566 C 270.427 350.414,272.210 349.976,273.200 349.593 C 274.190 349.211,275.810 348.751,276.800 348.572 C 277.790 348.394,278.690 348.230,278.800 348.209 C 278.910 348.189,279.361 347.970,279.802 347.724 C 280.243 347.478,281.683 347.067,283.002 346.811 C 284.321 346.554,285.607 346.304,285.860 346.255 C 286.112 346.205,286.567 345.959,286.870 345.708 C 287.172 345.457,288.405 345.127,289.610 344.974 C 290.814 344.822,292.522 344.375,293.404 343.982 C 294.287 343.589,295.812 343.147,296.793 343.001 C 297.775 342.855,299.303 342.463,300.189 342.132 C 301.075 341.800,302.868 341.347,304.173 341.126 C 305.479 340.904,306.919 340.484,307.373 340.193 C 307.828 339.901,309.370 339.446,310.800 339.182 C 312.230 338.917,313.799 338.453,314.286 338.150 C 314.773 337.848,315.504 337.600,315.909 337.600 C 317.382 337.600,318.123 336.592,318.443 334.157 C 318.613 332.860,318.837 331.350,318.941 330.800 C 319.313 328.824,319.594 326.142,319.780 322.800 C 319.884 320.930,320.082 317.420,320.221 315.000 C 320.359 312.580,320.713 309.430,321.008 308.000 C 321.302 306.570,321.659 302.520,321.801 299.000 C 321.943 295.480,322.306 291.070,322.609 289.200 C 323.235 285.330,323.944 277.244,324.047 272.798 C 324.086 271.146,324.351 268.446,324.637 266.798 C 325.290 263.038,325.504 260.537,325.818 253.000 C 325.955 249.700,326.316 245.920,326.620 244.600 C 326.924 243.280,327.357 238.780,327.583 234.600 C 327.963 227.581,328.153 225.596,328.599 224.000 C 328.691 223.670,328.886 222.050,329.032 220.400 C 329.178 218.750,329.355 217.298,329.427 217.173 C 329.498 217.049,329.592 214.799,329.634 212.173 C 329.708 207.641,330.018 204.215,330.555 202.000 C 330.688 201.450,330.984 198.120,331.213 194.600 C 331.669 187.571,332.201 181.841,332.513 180.600 C 332.795 179.478,333.142 175.066,333.409 169.200 C 333.535 166.450,333.713 163.660,333.804 163.000 C 334.839 155.527,335.183 152.160,335.399 147.400 C 335.539 144.320,335.898 140.360,336.196 138.600 C 336.495 136.840,336.943 131.440,337.192 126.600 C 337.440 121.760,337.824 116.900,338.044 115.800 C 338.264 114.700,338.610 110.560,338.813 106.600 C 339.254 97.965,339.628 92.682,339.818 92.372 C 339.895 92.247,340.064 91.257,340.194 90.172 C 340.323 89.087,340.501 87.840,340.589 87.400 C 340.677 86.960,340.856 84.080,340.988 81.000 C 341.275 74.305,341.524 71.477,341.993 69.600 C 342.339 68.218,342.589 65.228,343.015 57.400 C 343.228 53.483,343.363 52.222,343.832 49.800 C 344.297 47.394,344.826 39.728,344.714 37.000 L 344.600 34.200 274.891 34.099 L 205.181 33.998 204.791 35.025 M343.694 37.600 C 343.636 39.030,343.471 40.470,343.328 40.800 C 342.633 42.408,342.444 44.325,342.207 52.155 C 342.082 56.311,341.911 59.821,341.828 59.955 C 341.361 60.712,340.386 69.890,340.188 75.400 C 340.062 78.920,339.705 82.880,339.396 84.200 C 339.086 85.520,338.742 88.400,338.630 90.600 C 338.519 92.800,338.313 96.940,338.173 99.800 C 338.033 102.660,337.837 105.134,337.736 105.298 C 337.172 106.225,336.881 109.500,336.609 118.000 C 336.366 125.608,336.060 129.968,335.732 130.507 C 335.163 131.439,334.523 138.507,334.423 144.956 C 334.376 148.012,334.141 150.982,333.902 151.556 C 333.663 152.130,333.442 152.690,333.411 152.800 C 333.302 153.190,332.797 160.665,332.574 165.200 C 332.344 169.866,331.756 175.023,331.387 175.621 C 331.165 175.980,330.936 179.625,330.600 188.144 C 330.480 191.192,330.224 193.982,330.030 194.344 C 329.507 195.322,329.248 197.313,329.009 202.200 C 328.504 212.551,328.318 214.963,327.954 215.921 C 327.406 217.361,327.295 218.551,326.995 226.200 C 326.749 232.464,326.528 234.669,325.593 240.200 C 325.407 241.300,325.144 245.170,325.009 248.800 C 324.793 254.599,324.665 256.100,324.159 258.800 C 323.348 263.123,323.343 263.183,322.997 272.000 C 322.846 275.850,322.577 279.090,322.400 279.200 C 321.873 279.528,321.619 281.845,321.368 288.600 C 321.120 295.293,320.795 298.592,319.891 303.600 C 319.594 305.250,319.309 309.300,319.259 312.600 C 319.162 318.944,319.065 319.973,318.204 323.800 C 317.906 325.120,317.555 328.439,317.423 331.176 C 317.290 333.912,317.141 336.192,317.091 336.242 C 317.041 336.291,316.199 336.452,315.220 336.597 C 314.240 336.743,312.980 337.092,312.420 337.373 C 311.859 337.654,310.230 338.106,308.800 338.378 C 307.370 338.649,305.930 339.108,305.600 339.398 C 305.270 339.688,303.830 340.048,302.400 340.199 C 300.970 340.350,299.240 340.817,298.555 341.235 C 297.871 341.654,296.344 342.104,295.163 342.236 C 293.982 342.367,292.519 342.731,291.913 343.045 C 291.307 343.358,289.345 343.893,287.551 344.233 C 285.758 344.573,284.033 345.110,283.717 345.426 C 283.401 345.742,282.430 346.000,281.559 346.000 C 280.688 346.000,278.907 346.450,277.600 347.000 C 276.293 347.550,274.627 348.000,273.897 348.000 C 273.167 348.000,271.894 348.344,271.070 348.765 C 269.891 349.366,266.444 350.146,265.200 350.094 C 265.090 350.090,264.370 350.405,263.600 350.796 C 262.830 351.186,261.070 351.635,259.688 351.793 C 258.306 351.952,256.936 352.321,256.642 352.615 C 256.349 352.908,254.608 353.433,252.774 353.781 C 250.939 354.129,249.326 354.595,249.189 354.817 C 249.052 355.040,247.963 355.328,246.770 355.457 C 245.576 355.587,244.005 356.032,243.279 356.446 C 242.552 356.860,240.932 357.314,239.679 357.455 C 238.425 357.597,236.770 358.023,236.000 358.404 C 235.230 358.784,233.773 359.215,232.763 359.362 C 229.350 359.860,228.609 360.049,228.004 360.578 C 227.672 360.868,226.334 361.217,225.030 361.354 C 223.727 361.490,222.345 361.887,221.960 362.236 C 221.575 362.585,220.121 363.012,218.730 363.186 C 217.338 363.360,215.480 363.866,214.600 364.310 C 213.720 364.753,211.759 365.233,210.242 365.375 C 208.725 365.518,207.173 365.800,206.794 366.003 C 206.415 366.206,205.992 366.258,205.853 366.119 C 205.714 365.980,205.600 291.479,205.600 200.561 L 205.600 35.256 206.500 35.082 C 206.995 34.986,238.090 34.929,275.600 34.954 L 343.800 35.000 343.694 37.600 M190.597 198.800 C 190.597 264.910,190.644 291.955,190.700 258.900 C 190.756 225.845,190.756 171.755,190.700 138.700 C 190.644 105.645,190.597 132.690,190.597 198.800 M326.895 96.796 C 326.611 97.252,325.962 97.600,325.397 97.600 C 324.848 97.600,324.400 97.749,324.400 97.931 C 324.400 98.113,324.934 98.183,325.587 98.087 C 326.843 97.903,327.769 97.106,327.537 96.410 C 327.460 96.180,327.171 96.354,326.895 96.796 M309.101 173.919 C 308.578 174.966,308.597 175.042,309.400 175.108 C 310.136 175.169,310.233 175.009,310.084 173.990 C 309.869 172.525,309.798 172.520,309.101 173.919 M296.903 174.500 C 296.225 175.357,296.047 177.157,296.662 176.921 C 296.958 176.807,297.200 176.284,297.200 175.757 C 297.200 175.173,297.434 174.800,297.800 174.800 C 298.130 174.800,298.400 174.620,298.400 174.400 C 298.400 173.834,297.375 173.903,296.903 174.500 M284.300 176.276 C 283.915 176.376,283.600 176.805,283.600 177.229 C 283.600 177.653,283.587 178.131,283.570 178.290 C 283.553 178.450,283.733 178.644,283.970 178.723 C 284.207 178.802,284.400 178.429,284.400 177.894 C 284.400 177.282,284.733 176.762,285.300 176.488 C 286.200 176.054,285.620 175.931,284.300 176.276 M272.000 179.400 C 272.000 179.950,272.069 180.400,272.153 180.400 C 272.238 180.400,272.393 179.950,272.498 179.400 C 272.603 178.850,272.534 178.400,272.345 178.400 C 272.155 178.400,272.000 178.850,272.000 179.400 M262.720 217.680 C 263.093 218.053,263.307 218.053,263.680 217.680 C 264.053 217.307,263.947 217.200,263.200 217.200 C 262.453 217.200,262.347 217.307,262.720 217.680 M251.310 220.405 C 251.382 221.355,252.086 221.258,252.230 220.278 C 252.284 219.905,252.086 219.600,251.789 219.600 C 251.493 219.600,251.277 219.962,251.310 220.405 M246.991 272.829 C 246.732 273.643,247.658 274.766,248.600 274.781 C 248.820 274.785,248.751 274.630,248.446 274.437 C 248.079 274.204,247.980 273.733,248.153 273.043 C 248.478 271.750,247.396 271.551,246.991 272.829 M218.554 280.176 C 218.432 280.492,218.523 281.077,218.754 281.476 C 219.126 282.115,219.177 282.121,219.188 281.533 C 219.195 281.166,219.309 280.581,219.443 280.233 C 219.577 279.884,219.481 279.600,219.230 279.600 C 218.980 279.600,218.675 279.859,218.554 280.176 M307.297 296.600 C 307.342 297.040,307.239 297.625,307.066 297.900 C 306.866 298.220,306.977 298.400,307.376 298.400 C 308.067 298.400,308.132 297.813,307.578 296.600 L 307.213 295.800 307.297 296.600 M293.533 300.700 C 293.336 302.017,293.476 302.226,294.200 301.694 C 294.674 301.346,294.856 299.918,294.389 300.207 C 294.213 300.316,293.991 300.179,293.897 299.902 C 293.803 299.626,293.639 299.985,293.533 300.700 M264.897 308.024 C 265.326 308.728,265.286 308.933,264.624 309.424 C 264.044 309.854,263.998 310.000,264.444 310.000 C 265.835 310.000,266.590 307.912,265.367 307.443 C 264.402 307.072,264.353 307.134,264.897 308.024 M251.200 312.267 C 251.200 313.441,251.683 313.242,251.874 311.990 C 251.941 311.555,251.816 311.200,251.597 311.200 C 251.379 311.200,251.200 311.680,251.200 312.267 " stroke="none" fill="#f4cc04" fill-rule="evenodd"></path><path id="path4" d="M29.822 3.635 C 29.957 3.854,99.783 4.000,204.404 4.000 C 370.036 4.000,378.781 4.035,379.168 4.700 C 379.532 5.325,379.577 5.304,379.588 4.500 L 379.600 3.600 205.300 3.569 C 109.435 3.553,30.684 3.478,30.298 3.405 C 29.912 3.331,29.698 3.434,29.822 3.635 M29.867 7.867 C 29.720 8.013,29.603 9.048,29.606 10.167 C 29.610 11.448,29.739 12.000,29.954 11.661 C 31.587 9.084,32.592 13.962,32.249 22.800 C 32.100 26.639,32.148 27.429,32.457 26.200 C 32.906 24.417,32.705 9.424,32.218 8.300 C 31.922 7.616,30.398 7.336,29.867 7.867 M378.501 10.682 C 377.944 10.789,377.487 11.265,377.301 11.928 C 376.805 13.696,377.001 26.469,377.541 27.600 C 378.010 28.582,378.014 28.578,377.773 27.400 C 377.304 25.108,377.160 16.557,377.572 15.473 C 377.988 14.380,379.390 13.971,379.686 14.857 C 379.770 15.109,379.857 14.659,379.879 13.858 C 379.902 13.057,379.791 12.482,379.633 12.580 C 379.474 12.678,379.423 12.227,379.518 11.579 C 379.613 10.930,379.625 10.425,379.545 10.454 C 379.465 10.484,378.995 10.587,378.501 10.682 M375.551 32.659 C 374.810 33.551,374.776 47.312,375.510 48.800 C 375.976 49.742,375.989 49.719,375.747 48.400 C 375.403 46.520,375.438 37.539,375.795 36.416 C 376.011 35.735,376.308 35.566,377.039 35.705 C 378.233 35.934,378.540 32.693,377.367 32.243 C 376.415 31.878,376.149 31.939,375.551 32.659 M31.851 33.811 C 31.462 34.825,31.554 36.000,32.024 36.000 C 32.257 36.000,32.346 35.837,32.223 35.637 C 32.100 35.438,32.355 35.368,32.790 35.481 C 34.062 35.814,34.798 45.335,33.864 49.400 C 33.634 50.406,33.662 50.479,34.043 49.849 C 34.633 48.872,34.958 39.803,34.531 36.200 C 34.188 33.301,32.593 31.879,31.851 33.811 M373.825 54.359 C 373.259 55.275,372.720 62.045,372.947 65.400 C 373.321 70.940,373.922 72.209,373.690 66.968 C 373.486 62.368,373.886 56.014,374.340 56.641 C 375.142 57.748,376.049 57.223,375.926 55.723 C 375.800 54.194,374.464 53.326,373.825 54.359 M33.600 57.119 C 33.600 58.567,33.676 58.675,34.574 58.503 C 35.912 58.247,36.149 59.734,35.921 66.931 C 35.806 70.523,35.869 72.160,36.091 71.400 C 36.613 69.608,36.899 60.945,36.526 58.200 C 36.096 55.038,33.600 54.116,33.600 57.119 M371.627 77.149 C 371.366 77.638,371.227 80.477,371.269 84.474 L 371.337 91.000 371.621 85.600 C 371.778 82.630,371.927 80.065,371.953 79.900 C 371.979 79.735,372.442 79.600,372.983 79.600 C 373.867 79.600,373.958 79.449,373.883 78.100 C 373.785 76.331,372.381 75.740,371.627 77.149 M153.680 77.280 C 153.309 77.651,153.200 99.567,153.200 173.493 C 153.200 249.729,153.098 269.257,152.700 269.381 C 152.425 269.467,151.480 269.679,150.600 269.852 C 149.053 270.156,149.041 270.171,150.223 270.303 C 150.895 270.378,151.930 270.255,152.523 270.029 L 153.600 269.620 153.600 173.630 C 153.600 82.633,153.636 77.619,154.300 77.232 C 154.685 77.008,154.811 76.819,154.580 76.812 C 154.349 76.805,153.944 77.016,153.680 77.280 M35.600 78.581 C 35.600 79.896,35.680 79.995,36.563 79.774 C 37.746 79.477,38.240 83.074,37.904 89.551 C 37.761 92.311,37.816 93.117,38.098 92.400 C 38.589 91.155,38.595 80.231,38.107 78.600 C 37.523 76.651,35.600 76.637,35.600 78.581 M324.428 96.100 C 324.403 97.421,324.514 97.600,325.351 97.600 C 326.647 97.600,327.391 96.662,326.844 95.721 C 326.599 95.300,326.419 95.216,326.412 95.518 C 326.396 96.209,325.072 95.959,324.728 95.200 C 324.570 94.852,324.444 95.230,324.428 96.100 M369.929 98.286 C 369.304 99.039,368.940 111.122,369.480 113.185 C 369.742 114.184,369.837 112.960,369.821 108.785 C 369.796 102.056,370.003 100.986,371.397 100.637 C 372.429 100.377,372.564 99.961,372.043 98.634 C 371.664 97.666,370.590 97.490,369.929 98.286 M37.286 100.680 C 37.317 101.856,37.445 102.656,37.571 102.459 C 37.995 101.796,39.573 102.753,39.846 103.839 C 39.994 104.430,40.024 107.363,39.913 110.356 C 39.784 113.865,39.836 115.302,40.062 114.400 C 40.506 112.622,40.352 100.885,39.869 99.739 C 38.999 97.672,37.223 98.319,37.286 100.680 M367.787 121.100 C 367.301 122.240,367.107 135.612,367.542 138.000 C 367.877 139.836,367.914 139.374,367.767 135.200 C 367.452 126.219,368.419 121.493,370.046 124.061 C 370.446 124.691,370.543 122.038,370.157 121.033 C 369.830 120.180,368.159 120.227,367.787 121.100 M39.232 122.675 C 39.249 123.734,39.354 124.375,39.465 124.100 C 39.846 123.156,41.171 123.549,41.487 124.700 C 41.862 126.063,41.880 133.432,41.515 136.400 L 41.245 138.600 41.815 136.600 C 42.421 134.473,42.586 125.517,42.072 122.600 C 41.819 121.158,41.663 120.988,40.495 120.875 L 39.200 120.749 39.232 122.675 M41.467 143.467 C 41.067 143.866,41.145 146.319,41.566 146.579 C 41.767 146.703,42.000 146.600,42.084 146.349 C 42.183 146.052,42.473 146.130,42.918 146.575 C 43.615 147.272,43.710 148.364,43.667 155.200 C 43.648 158.122,43.658 158.153,44.051 156.400 C 44.560 154.127,44.188 144.509,43.562 143.754 C 43.079 143.172,41.920 143.013,41.467 143.467 M365.917 147.335 C 365.277 148.503,365.293 160.624,365.936 162.000 C 366.371 162.929,366.386 162.902,366.152 161.617 C 365.244 156.634,365.986 150.228,367.439 150.505 C 368.333 150.676,368.400 150.569,368.400 148.968 C 368.400 146.661,366.846 145.639,365.917 147.335 M43.200 166.208 C 43.200 167.910,43.255 168.001,44.150 167.777 C 45.524 167.432,46.176 173.750,45.440 180.272 C 45.230 182.129,45.238 182.148,45.659 180.800 C 46.295 178.765,46.251 165.784,45.605 165.006 C 44.456 163.621,43.200 164.249,43.200 166.208 M363.932 168.900 C 363.321 170.008,363.244 182.143,363.839 183.528 C 364.122 184.186,364.190 182.998,364.071 179.445 C 363.857 173.006,364.118 171.453,365.375 171.693 C 366.232 171.857,366.302 171.731,366.342 169.935 C 366.392 167.706,364.935 167.080,363.932 168.900 M310.677 172.680 C 309.862 172.891,309.855 174.825,310.669 175.092 C 310.974 175.192,311.057 174.938,310.906 174.363 C 310.751 173.771,310.919 173.302,311.414 172.940 C 312.160 172.395,311.998 172.338,310.677 172.680 M297.900 174.676 C 296.871 174.945,296.927 177.200,297.963 177.200 C 298.529 177.200,298.671 176.994,298.515 176.398 C 298.400 175.957,298.529 175.327,298.802 174.998 C 299.304 174.393,299.167 174.345,297.900 174.676 M284.900 176.665 C 283.926 177.058,284.301 178.799,285.341 178.713 C 286.052 178.654,286.234 178.450,286.084 177.877 C 285.975 177.459,286.136 176.959,286.443 176.765 C 287.065 176.371,285.828 176.291,284.900 176.665 M272.545 179.000 C 272.269 179.718,272.628 180.800,273.142 180.800 C 273.344 180.800,273.588 180.260,273.685 179.600 C 273.873 178.321,272.985 177.853,272.545 179.000 M260.145 181.000 C 259.802 181.893,260.279 182.801,261.087 182.794 C 261.654 182.789,261.686 182.716,261.243 182.435 C 260.916 182.228,260.776 181.734,260.905 181.241 C 261.154 180.288,260.498 180.080,260.145 181.000 M45.200 187.545 C 45.200 188.961,45.280 189.074,46.164 188.905 C 47.391 188.670,47.823 191.800,47.502 198.583 C 47.348 201.816,47.399 202.678,47.691 201.800 C 48.274 200.045,48.241 187.998,47.650 186.893 C 46.783 185.273,45.200 185.694,45.200 187.545 M317.800 189.156 C 317.140 189.299,316.780 189.527,317.000 189.662 C 317.414 189.915,319.200 189.388,319.200 189.013 C 319.200 188.896,319.155 188.821,319.100 188.847 C 319.045 188.873,318.460 189.012,317.800 189.156 M362.229 190.072 C 361.542 192.244,361.315 202.574,361.898 205.120 C 362.077 205.901,362.200 203.823,362.200 200.035 C 362.200 194.468,362.292 193.538,362.900 192.929 C 363.331 192.498,363.600 192.415,363.600 192.714 C 363.600 192.981,363.790 193.200,364.023 193.200 C 364.959 193.200,364.263 189.809,363.298 189.672 C 362.802 189.602,362.321 189.782,362.229 190.072 M47.214 209.861 C 47.375 210.576,47.408 211.259,47.287 211.380 C 47.166 211.501,47.461 211.600,47.943 211.600 C 49.373 211.600,49.703 213.211,49.500 219.200 C 49.382 222.701,49.442 224.178,49.673 223.400 C 50.059 222.098,49.956 209.777,49.554 209.126 C 48.823 207.943,46.916 208.543,47.214 209.861 M360.277 212.748 C 359.655 213.497,359.604 227.364,360.221 227.981 C 360.516 228.276,360.556 227.713,360.355 226.101 C 359.567 219.796,359.994 215.600,361.423 215.600 C 362.598 215.600,362.732 215.343,362.504 213.528 C 362.305 211.943,361.251 211.574,360.277 212.748 M274.716 216.272 C 274.833 216.883,274.689 217.425,274.355 217.636 C 273.937 217.901,273.927 217.989,274.313 217.994 C 274.594 217.997,274.923 217.685,275.042 217.300 C 275.161 216.915,275.404 216.322,275.582 215.982 C 275.811 215.542,275.705 215.348,275.214 215.311 C 274.681 215.271,274.567 215.492,274.716 216.272 M49.326 229.943 C 49.116 230.084,48.906 231.190,48.858 232.400 C 48.798 233.930,48.890 234.423,49.159 234.019 C 49.373 233.700,49.458 233.295,49.350 233.119 C 49.242 232.944,49.508 232.800,49.943 232.800 C 51.331 232.800,52.006 240.823,51.054 246.000 C 50.811 247.320,50.824 247.343,51.291 246.400 C 51.974 245.020,51.972 231.012,51.289 230.329 C 50.717 229.757,49.855 229.587,49.326 229.943 M358.346 233.865 C 357.644 234.711,357.621 248.002,358.318 249.800 C 358.750 250.914,358.765 250.871,358.531 249.200 C 357.814 244.073,358.600 234.806,359.617 236.414 C 359.821 236.736,359.993 236.820,360.000 236.600 C 360.007 236.380,360.194 236.470,360.415 236.800 C 360.707 237.235,360.788 236.859,360.709 235.438 C 360.589 233.287,359.453 232.531,358.346 233.865 M51.000 251.934 C 50.224 252.709,50.849 255.880,51.743 255.709 C 52.392 255.585,52.773 255.751,52.961 256.242 C 53.292 257.106,53.344 265.688,53.030 267.852 C 52.809 269.380,52.812 269.384,53.274 268.200 C 53.901 266.595,53.954 253.685,53.338 252.629 C 52.921 251.913,51.456 251.477,51.000 251.934 M87.300 252.812 C 86.643 253.077,86.416 253.475,86.460 254.287 L 86.520 255.400 86.682 254.342 C 86.988 252.353,91.200 252.449,91.200 254.445 C 91.200 255.305,91.390 255.600,91.945 255.600 C 92.862 255.600,92.673 253.690,91.677 252.900 C 90.955 252.327,88.624 252.280,87.300 252.812 M93.394 254.809 C 93.229 255.077,93.686 255.132,94.717 254.967 C 96.844 254.627,98.007 255.270,97.757 256.647 C 97.588 257.578,97.671 257.669,98.500 257.461 C 102.718 256.402,105.336 256.792,104.912 258.415 C 104.799 258.847,104.887 259.200,105.107 259.200 C 105.750 259.200,105.960 257.698,105.419 256.959 C 105.010 256.399,104.466 256.317,102.301 256.491 C 99.769 256.694,99.648 256.662,98.827 255.551 C 97.934 254.343,94.013 253.808,93.394 254.809 M356.128 257.076 C 355.686 259.671,355.771 269.410,356.254 271.400 C 356.542 272.589,356.605 271.460,356.499 267.000 C 356.421 263.700,356.505 260.194,356.688 259.209 L 357.019 257.419 357.932 258.332 L 358.846 259.246 358.723 257.323 C 358.534 254.369,356.621 254.187,356.128 257.076 M108.296 258.384 C 106.012 258.827,106.024 259.207,108.312 258.936 C 111.180 258.596,112.400 258.976,112.400 260.208 C 112.400 260.796,112.630 261.200,112.965 261.200 C 113.882 261.200,113.100 259.079,111.972 258.506 C 110.906 257.964,110.525 257.951,108.296 258.384 M114.900 260.412 C 113.595 260.937,113.745 261.000,116.299 261.000 C 118.546 261.000,118.600 261.026,118.584 262.100 C 118.566 263.342,118.620 263.354,121.673 262.790 C 125.000 262.175,127.272 263.497,125.172 264.826 C 124.857 265.025,124.780 265.188,125.000 265.188 C 126.496 265.188,127.089 263.585,125.967 262.571 C 125.360 262.020,124.780 261.939,122.974 262.151 C 120.846 262.402,120.678 262.355,119.607 261.207 C 118.421 259.938,116.773 259.659,114.900 260.412 M128.400 264.406 C 127.972 264.686,128.169 264.728,129.085 264.552 C 131.162 264.154,132.400 264.642,132.400 265.859 L 132.400 266.903 135.207 266.627 C 138.672 266.285,139.600 266.539,139.600 267.827 C 139.600 269.000,140.246 269.114,140.599 268.004 C 141.092 266.448,138.338 265.187,136.213 265.995 C 134.733 266.558,134.000 266.501,134.000 265.823 C 134.000 264.373,129.995 263.360,128.400 264.406 M269.144 266.787 C 268.625 267.219,268.357 267.579,268.549 267.587 C 268.741 267.594,268.682 267.860,268.419 268.177 C 268.025 268.651,268.091 268.743,268.786 268.691 C 269.395 268.645,269.599 268.399,269.513 267.814 C 269.448 267.366,269.665 266.781,269.997 266.513 C 270.329 266.245,270.485 266.020,270.344 266.013 C 270.204 266.006,269.664 266.354,269.144 266.787 M142.696 267.984 C 140.288 268.451,140.606 268.652,143.708 268.625 C 146.573 268.600,146.601 268.610,146.727 269.700 C 146.897 271.177,147.600 271.108,147.600 269.614 C 147.600 267.747,146.243 267.296,142.696 267.984 M255.300 270.265 C 254.491 270.591,254.666 272.801,255.500 272.794 C 256.015 272.789,256.064 272.702,255.686 272.462 C 255.136 272.112,255.427 270.815,256.171 270.306 C 256.654 269.975,256.085 269.948,255.300 270.265 M248.267 272.667 C 247.852 273.082,247.953 274.400,248.400 274.400 C 248.620 274.400,248.800 273.950,248.800 273.400 C 248.800 272.353,248.708 272.226,248.267 272.667 M52.800 275.400 C 52.800 276.617,52.927 276.800,53.775 276.800 C 55.047 276.800,55.338 278.582,55.143 285.158 C 55.059 287.970,55.137 289.590,55.332 289.076 C 55.783 287.887,55.878 279.145,55.471 276.300 C 55.055 273.389,52.800 272.629,52.800 275.400 M240.400 275.400 C 240.400 275.950,240.469 276.400,240.553 276.400 C 240.638 276.400,240.793 275.950,240.898 275.400 C 241.003 274.850,240.934 274.400,240.745 274.400 C 240.555 274.400,240.400 274.850,240.400 275.400 M354.593 277.864 C 353.965 278.492,353.737 291.394,354.328 292.888 C 354.478 293.266,354.540 291.106,354.468 288.088 C 354.327 282.265,354.713 280.127,355.826 280.555 C 356.178 280.690,356.337 280.621,356.197 280.395 C 356.063 280.178,356.143 280.000,356.376 280.000 C 356.609 280.000,356.800 279.481,356.800 278.847 C 356.800 277.488,355.533 276.924,354.593 277.864 M226.700 278.032 C 225.963 278.461,225.716 280.400,226.397 280.400 C 226.616 280.400,226.733 279.995,226.658 279.500 C 226.582 279.005,226.808 278.381,227.160 278.113 C 227.938 277.520,227.662 277.472,226.700 278.032 M219.467 280.267 C 219.052 280.682,219.153 282.000,219.600 282.000 C 219.820 282.000,220.000 281.550,220.000 281.000 C 220.000 279.953,219.908 279.826,219.467 280.267 M87.304 293.145 C 88.116 295.066,89.484 295.455,92.494 294.620 C 93.438 294.358,93.643 294.460,93.987 295.365 C 94.470 296.635,96.100 297.327,97.769 296.971 C 99.666 296.566,100.434 295.998,98.722 296.266 C 96.441 296.623,95.200 296.172,95.200 294.986 C 95.200 293.992,95.181 293.987,91.900 294.093 C 88.790 294.194,88.593 294.151,88.478 293.341 C 88.410 292.868,88.018 292.393,87.607 292.286 C 86.939 292.111,86.906 292.204,87.304 293.145 M55.022 295.700 C 54.632 296.969,54.447 299.361,54.779 298.828 C 56.359 296.296,57.380 299.829,57.119 306.917 C 57.011 309.823,57.058 311.750,57.222 311.200 C 57.699 309.601,57.651 297.864,57.161 296.460 C 56.713 295.174,55.333 294.684,55.022 295.700 M101.109 296.700 C 101.472 298.713,101.897 298.920,105.092 298.630 C 107.943 298.372,108.015 298.388,108.389 299.372 C 108.956 300.863,110.868 301.156,113.839 300.207 C 114.514 299.991,114.776 300.177,115.183 301.160 C 115.750 302.528,117.418 303.079,119.564 302.608 C 121.597 302.161,121.273 301.782,118.867 301.791 C 116.689 301.800,116.595 301.757,116.473 300.700 C 116.330 299.451,115.381 299.276,112.846 300.031 C 110.780 300.646,109.039 299.954,109.294 298.619 C 109.490 297.595,108.844 297.529,105.500 298.232 C 103.414 298.671,102.000 298.079,102.000 296.768 C 102.000 296.049,101.791 295.600,101.455 295.600 C 101.080 295.600,100.972 295.942,101.109 296.700 M306.324 297.000 C 306.155 298.451,306.341 298.699,307.061 297.979 C 307.516 297.524,307.303 295.600,306.797 295.600 C 306.627 295.600,306.414 296.230,306.324 297.000 M299.915 298.800 C 300.012 299.460,300.140 300.000,300.200 300.000 C 300.260 300.000,300.388 299.460,300.485 298.800 C 300.594 298.058,300.485 297.600,300.200 297.600 C 299.915 297.600,299.806 298.058,299.915 298.800 M352.410 300.762 C 351.914 302.606,351.851 312.385,352.323 314.400 C 352.538 315.319,352.642 313.738,352.625 309.800 C 352.611 306.500,352.729 303.344,352.886 302.786 C 353.255 301.479,354.682 301.297,354.921 302.527 C 355.023 303.049,355.113 302.810,355.146 301.933 C 355.263 298.763,353.188 297.875,352.410 300.762 M292.679 300.379 C 292.797 300.833,292.648 301.503,292.347 301.868 C 291.850 302.470,291.885 302.486,292.724 302.038 C 293.692 301.523,293.827 300.003,292.931 299.708 C 292.633 299.610,292.541 299.854,292.679 300.379 M122.400 302.776 C 122.400 304.465,123.529 304.820,127.000 304.224 C 128.500 303.966,128.644 304.028,129.306 305.218 L 130.013 306.487 132.993 306.336 C 134.633 306.253,136.182 305.978,136.436 305.724 C 136.785 305.375,136.520 305.350,135.349 305.622 C 133.166 306.128,131.044 306.084,130.480 305.520 C 129.853 304.893,129.865 303.719,130.500 303.474 C 130.775 303.368,130.100 303.389,129.000 303.521 C 124.467 304.064,123.413 303.913,123.273 302.700 C 123.104 301.228,122.400 301.290,122.400 302.776 M285.913 302.811 C 285.694 304.302,286.437 304.193,286.844 302.674 C 287.047 301.912,286.980 301.600,286.611 301.600 C 286.325 301.600,286.011 302.145,285.913 302.811 M278.768 304.500 C 278.649 305.360,278.710 305.850,278.912 305.648 C 279.105 305.455,279.198 304.781,279.119 304.149 C 278.987 303.091,278.959 303.119,278.768 304.500 M137.467 305.467 C 135.864 307.069,137.846 308.566,141.163 308.258 C 143.677 308.024,143.925 308.070,144.115 308.797 C 144.507 310.297,148.849 310.911,150.114 309.646 C 150.404 309.356,150.098 309.348,149.110 309.621 C 147.045 310.191,145.446 309.519,145.700 308.189 C 145.900 307.142,145.104 307.080,141.169 307.835 C 139.380 308.179,137.874 307.356,138.166 306.194 C 138.402 305.252,138.049 304.885,137.467 305.467 M264.083 308.300 C 264.035 308.880,263.772 309.498,263.498 309.671 C 262.763 310.138,263.526 310.068,264.426 309.586 C 265.318 309.109,265.429 308.288,264.685 307.671 C 264.290 307.343,264.151 307.489,264.083 308.300 M151.104 310.212 C 151.489 312.225,153.604 312.864,156.400 311.812 C 157.783 311.292,157.769 311.286,155.200 311.343 C 152.613 311.400,152.600 311.395,152.616 310.300 C 152.628 309.436,152.447 309.200,151.771 309.200 C 151.067 309.200,150.946 309.383,151.104 310.212 M257.200 310.180 C 257.200 310.719,256.885 311.344,256.500 311.568 C 255.579 312.105,256.227 312.121,257.226 311.586 C 257.652 311.358,258.000 310.833,258.000 310.419 C 258.000 310.005,258.225 309.576,258.500 309.465 C 258.775 309.354,258.595 309.249,258.100 309.232 C 257.403 309.207,257.200 309.421,257.200 310.180 M158.000 312.151 C 158.000 313.933,160.973 314.839,163.035 313.685 C 163.569 313.386,163.269 313.336,161.881 313.492 C 159.765 313.731,158.772 313.195,159.088 311.985 C 159.229 311.444,159.092 311.200,158.647 311.200 C 158.232 311.200,158.000 311.542,158.000 312.151 M250.327 312.284 C 250.238 313.045,249.901 313.451,249.200 313.644 C 248.408 313.863,248.366 313.926,249.000 313.947 C 250.129 313.986,251.200 313.065,251.200 312.056 C 251.200 310.815,250.476 311.004,250.327 312.284 M165.343 313.077 C 164.356 313.270,164.461 314.647,165.528 315.500 C 166.262 316.088,169.535 316.157,170.400 315.604 C 170.804 315.346,170.343 315.297,168.987 315.456 C 166.743 315.718,165.733 315.066,166.115 313.602 C 166.231 313.161,166.297 312.825,166.263 312.854 C 166.228 312.884,165.814 312.984,165.343 313.077 M243.921 313.897 C 244.033 314.483,243.884 315.028,243.555 315.236 C 243.237 315.438,243.192 315.590,243.451 315.594 C 244.545 315.609,245.436 313.355,244.438 313.094 C 243.872 312.946,243.769 313.105,243.921 313.897 M171.909 315.900 C 172.265 317.873,172.729 318.122,175.562 317.858 C 176.982 317.725,178.336 317.420,178.572 317.180 C 178.880 316.866,178.692 316.807,177.900 316.972 C 177.295 317.097,176.362 317.290,175.828 317.401 C 174.241 317.728,172.800 316.971,172.800 315.810 C 172.800 315.225,172.571 314.800,172.255 314.800 C 171.880 314.800,171.772 315.142,171.909 315.900 M237.200 315.920 C 237.200 316.316,236.975 316.867,236.700 317.144 C 236.299 317.548,236.339 317.595,236.900 317.381 C 237.509 317.149,237.956 315.200,237.400 315.200 C 237.290 315.200,237.200 315.524,237.200 315.920 M178.976 317.675 C 178.357 319.626,181.134 320.461,184.670 319.387 C 185.403 319.164,185.560 319.299,185.670 320.246 C 185.912 322.336,190.891 322.453,191.096 320.373 C 191.192 319.402,191.191 319.402,190.809 320.300 C 190.129 321.898,186.400 321.461,186.400 319.784 C 186.400 318.884,186.299 318.856,183.300 318.927 L 180.200 319.000 180.216 317.900 C 180.235 316.588,179.371 316.431,178.976 317.675 M56.850 317.740 C 56.603 318.038,56.431 319.035,56.467 319.957 C 56.503 320.879,56.659 321.428,56.814 321.177 C 58.289 318.791,59.328 322.710,59.047 329.600 C 58.914 332.865,58.967 333.794,59.231 332.800 C 59.810 330.619,59.542 318.895,58.892 317.967 C 58.262 317.068,57.479 316.981,56.850 317.740 M222.950 319.742 C 223.129 320.457,222.971 320.788,222.293 321.115 C 221.407 321.543,221.407 321.546,222.251 321.573 C 223.208 321.603,223.780 321.026,224.105 319.700 C 224.278 318.992,224.154 318.800,223.519 318.800 C 222.873 318.800,222.760 318.986,222.950 319.742 M350.577 321.637 C 350.131 322.358,349.920 333.659,350.315 335.600 C 350.581 336.900,350.631 335.900,350.498 332.000 C 350.299 326.157,350.636 324.400,351.957 324.400 C 352.384 324.400,352.824 324.625,352.935 324.900 C 353.046 325.175,353.151 324.740,353.168 323.933 C 353.221 321.498,351.568 320.034,350.577 321.637 M58.643 339.833 C 58.263 340.822,58.358 343.673,58.762 343.423 C 58.962 343.300,59.031 342.839,58.916 342.400 C 58.794 341.935,58.904 341.600,59.177 341.600 C 59.437 341.600,59.521 341.823,59.365 342.100 C 59.152 342.477,59.219 342.474,59.636 342.086 C 60.749 341.050,61.499 350.685,60.657 355.200 C 60.410 356.523,60.423 356.545,60.896 355.600 C 61.584 354.225,61.558 341.363,60.865 340.100 C 60.296 339.061,58.999 338.905,58.643 339.833 M348.789 343.413 C 348.431 343.845,348.253 346.008,348.188 350.713 L 348.095 357.400 346.548 357.530 C 344.899 357.668,343.600 358.543,343.600 359.517 C 343.600 360.001,343.193 360.062,341.389 359.850 C 338.403 359.499,337.340 359.824,336.847 361.237 C 336.624 361.877,336.567 362.413,336.721 362.430 C 336.874 362.446,337.450 362.534,338.000 362.625 C 338.803 362.757,338.869 362.712,338.337 362.396 C 336.906 361.545,338.755 359.616,340.468 360.174 C 342.860 360.952,344.753 360.740,344.876 359.680 C 344.978 358.798,345.249 358.569,346.414 358.382 C 348.689 358.015,348.738 357.915,348.715 353.696 C 348.685 348.107,349.086 345.600,350.010 345.600 C 350.454 345.600,350.813 345.956,350.918 346.500 C 351.013 346.995,351.116 346.365,351.146 345.100 C 351.204 342.644,350.089 341.846,348.789 343.413 M60.613 357.979 C 60.480 358.194,61.291 358.410,62.490 358.479 C 64.471 358.593,64.608 358.669,64.729 359.724 C 64.875 360.999,65.733 360.987,65.923 359.707 C 66.154 358.143,61.456 356.614,60.613 357.979 M67.500 359.887 C 66.895 359.978,66.400 360.199,66.400 360.378 C 66.400 360.557,67.178 360.537,68.129 360.334 C 70.283 359.875,72.000 360.432,72.000 361.590 C 72.000 362.036,71.790 362.400,71.533 362.400 C 71.277 362.400,71.161 362.494,71.276 362.609 C 71.740 363.074,72.800 362.258,72.800 361.437 C 72.800 359.732,71.341 359.305,67.500 359.887 M74.400 362.038 C 73.935 362.369,74.038 362.413,74.861 362.235 C 76.820 361.810,78.400 362.377,78.400 363.505 L 78.400 364.510 81.338 364.244 C 84.806 363.930,85.600 364.153,85.600 365.443 C 85.600 366.614,86.250 366.703,86.606 365.581 C 87.136 363.913,84.807 362.931,82.095 363.680 C 80.899 364.010,80.650 363.924,79.622 362.824 C 78.401 361.517,75.705 361.112,74.400 362.038 M330.880 362.080 C 330.323 362.637,330.230 364.400,330.757 364.400 C 330.953 364.400,331.223 363.964,331.356 363.432 C 331.626 362.357,333.371 361.746,334.841 362.213 C 335.421 362.397,335.611 362.342,335.426 362.043 C 335.059 361.447,331.483 361.477,330.880 362.080 M325.200 363.514 C 323.479 363.794,322.218 366.400,323.804 366.400 C 324.169 366.400,324.400 366.022,324.400 365.427 C 324.400 364.189,325.404 363.854,328.123 364.182 C 329.431 364.340,329.978 364.299,329.600 364.071 C 328.825 363.603,326.479 363.306,325.200 363.514 M89.000 365.470 C 86.486 366.026,86.620 366.473,89.162 366.008 C 91.535 365.573,93.200 366.163,93.200 367.439 C 93.200 367.968,93.380 368.400,93.600 368.400 C 93.820 368.400,94.000 367.856,94.000 367.190 C 94.000 365.500,91.990 364.808,89.000 365.470 M316.500 365.612 C 315.574 365.985,315.141 368.400,316.000 368.400 C 316.220 368.400,316.400 367.961,316.400 367.424 C 316.400 365.932,318.626 365.398,321.670 366.159 C 322.320 366.322,322.239 366.218,321.400 365.814 C 320.047 365.162,317.845 365.072,316.500 365.612 M96.200 367.485 C 94.500 367.894,94.857 368.264,96.680 367.984 C 99.074 367.616,100.150 368.102,99.895 369.435 C 99.728 370.312,99.842 370.399,101.155 370.388 C 102.331 370.378,102.470 370.300,101.900 369.968 C 101.515 369.744,101.200 369.238,101.200 368.844 C 101.200 367.585,98.658 366.894,96.200 367.485 M308.830 368.368 C 307.801 369.469,307.601 369.524,305.358 369.321 C 303.495 369.152,302.864 369.241,302.458 369.730 C 301.709 370.633,302.035 372.172,303.000 372.289 C 303.440 372.342,303.575 372.284,303.300 372.160 C 301.036 371.135,303.971 369.356,306.892 369.982 C 309.694 370.583,309.916 370.541,309.707 369.447 C 309.472 368.218,310.120 367.845,312.376 367.914 C 313.744 367.955,314.000 367.880,313.400 367.612 C 311.710 366.860,309.970 367.148,308.830 368.368 M102.974 369.643 C 102.789 369.942,102.979 369.997,103.559 369.813 C 105.579 369.172,107.899 370.741,106.701 371.939 C 106.427 372.213,106.539 372.309,107.048 372.236 C 108.071 372.089,108.282 370.395,107.362 369.722 C 106.491 369.086,103.353 369.029,102.974 369.643 M109.400 371.630 C 108.464 371.891,108.609 371.921,110.058 371.764 C 112.562 371.494,113.926 371.881,114.077 372.906 C 114.240 374.005,115.200 374.309,115.200 373.262 C 115.200 371.402,112.716 370.704,109.400 371.630 M295.429 371.829 C 295.083 372.174,294.800 372.699,294.800 372.995 C 294.800 373.291,294.575 373.633,294.300 373.754 C 294.025 373.875,294.340 373.935,295.000 373.887 C 295.881 373.823,296.170 373.619,296.087 373.121 C 295.915 372.084,297.463 371.474,299.560 371.751 C 300.826 371.919,301.213 371.873,300.800 371.603 C 299.816 370.962,296.141 371.116,295.429 371.829 M116.900 373.194 C 115.591 373.747,115.762 373.836,118.100 373.817 C 120.085 373.801,120.207 373.859,120.324 374.871 C 120.446 375.926,120.483 375.939,122.831 375.729 C 126.198 375.429,127.337 375.773,127.099 377.018 C 126.931 377.895,127.044 377.997,128.155 377.968 C 128.840 377.951,129.175 377.846,128.900 377.735 C 128.625 377.624,128.400 377.192,128.400 376.776 C 128.400 375.318,126.658 374.648,123.989 375.078 C 121.854 375.422,121.600 375.390,121.600 374.780 C 121.600 373.355,118.775 372.401,116.900 373.194 M289.262 373.226 C 288.747 373.433,288.226 373.980,288.105 374.442 C 287.901 375.222,287.706 375.262,285.313 375.005 C 282.544 374.709,281.200 375.304,281.200 376.829 C 281.200 377.216,280.975 377.624,280.700 377.735 C 280.425 377.846,280.670 377.951,281.245 377.968 C 282.144 377.996,282.263 377.863,282.101 377.018 C 281.858 375.746,283.016 375.427,286.748 375.736 C 289.469 375.962,289.481 375.959,289.298 375.000 C 289.085 373.885,290.313 373.379,292.467 373.695 C 293.602 373.862,293.652 373.828,292.985 373.340 C 292.143 372.724,290.632 372.678,289.262 373.226 M130.000 377.230 C 129.549 377.544,129.706 377.589,130.631 377.408 C 132.585 377.025,134.138 377.794,133.837 378.995 C 133.644 379.765,133.721 379.928,134.195 379.747 C 135.059 379.415,134.945 377.706,134.026 377.214 C 133.032 376.682,130.774 376.691,130.000 377.230 M275.680 377.280 C 275.040 377.920,275.068 379.464,275.725 379.716 C 276.100 379.860,276.203 379.603,276.087 378.811 C 275.902 377.548,277.112 376.991,279.100 377.425 C 279.947 377.610,280.062 377.567,279.600 377.238 C 278.787 376.661,276.273 376.687,275.680 377.280 M136.200 379.234 C 135.255 379.501,135.413 379.534,136.939 379.389 C 139.729 379.124,140.730 379.466,140.877 380.735 C 141.012 381.899,141.487 382.000,144.131 381.430 C 146.150 380.994,147.623 381.626,147.317 382.797 C 147.103 383.613,147.207 383.636,150.648 383.520 L 154.200 383.400 154.327 384.500 C 154.396 385.105,154.633 385.600,154.852 385.600 C 155.071 385.600,155.194 385.025,155.125 384.323 C 154.973 382.770,153.129 382.068,151.078 382.783 C 149.955 383.174,149.749 383.103,148.713 381.969 C 147.558 380.705,146.397 380.569,142.600 381.255 C 142.072 381.351,141.798 381.180,141.794 380.754 C 141.777 378.969,139.412 378.326,136.200 379.234 M268.662 379.531 C 268.298 379.934,268.000 380.474,268.000 380.731 C 268.000 380.989,267.775 381.203,267.500 381.206 C 266.593 381.217,268.148 381.987,269.090 381.994 C 269.873 381.999,269.935 381.881,269.603 381.007 C 269.103 379.692,270.150 379.109,272.487 379.400 C 273.740 379.556,273.985 379.511,273.400 379.235 C 271.991 378.568,269.386 378.731,268.662 379.531 M261.680 381.280 C 261.416 381.544,261.200 382.105,261.200 382.527 C 261.200 383.096,260.995 383.240,260.400 383.084 C 259.960 382.969,259.600 383.033,259.600 383.225 C 259.600 383.418,260.230 383.552,261.000 383.523 C 262.182 383.479,262.400 383.326,262.400 382.543 C 262.400 381.460,263.734 380.967,265.635 381.347 C 266.381 381.496,266.747 381.438,266.596 381.194 C 266.250 380.634,262.256 380.704,261.680 381.280 M255.600 382.915 C 254.520 383.459,253.841 385.861,254.869 385.502 C 255.161 385.400,255.341 384.995,255.269 384.601 C 255.095 383.649,255.859 383.220,257.800 383.178 C 259.063 383.151,259.231 383.071,258.600 382.800 C 257.464 382.312,256.744 382.339,255.600 382.915 M156.900 384.812 C 155.578 385.344,155.758 385.421,158.300 385.410 C 160.533 385.400,160.600 385.431,160.587 386.471 C 160.572 387.616,160.863 387.654,164.651 386.999 C 166.367 386.702,168.000 387.380,168.000 388.390 C 168.000 388.879,167.736 389.200,167.333 389.200 C 166.967 389.200,166.773 389.306,166.903 389.437 C 167.446 389.979,168.800 389.112,168.800 388.222 C 168.800 386.443,166.558 385.980,162.351 386.891 C 162.074 386.951,161.777 386.640,161.690 386.200 C 161.368 384.563,159.132 383.915,156.900 384.812 M248.300 385.029 C 247.695 385.357,247.200 385.895,247.200 386.224 C 247.200 386.719,246.766 386.778,244.687 386.565 C 242.025 386.292,241.453 386.555,241.128 388.200 C 241.021 388.741,240.716 388.954,240.185 388.858 C 236.384 388.169,234.000 388.521,234.000 389.771 C 234.000 390.543,233.039 390.813,231.681 390.423 C 230.331 390.036,228.333 390.320,227.906 390.960 C 227.471 391.611,227.538 393.200,228.000 393.200 C 228.220 393.200,228.400 392.769,228.400 392.243 C 228.400 390.954,229.194 390.730,232.649 391.043 C 235.459 391.298,235.569 391.275,235.415 390.480 C 235.091 388.794,236.390 388.534,240.700 389.423 C 241.938 389.678,242.000 389.633,242.000 388.489 C 242.000 386.967,242.970 386.673,246.231 387.207 C 247.534 387.421,248.697 387.596,248.816 387.598 C 248.934 387.599,249.024 387.105,249.016 386.500 C 249.001 385.437,249.071 385.400,251.109 385.400 C 252.896 385.400,253.114 385.323,252.533 384.900 C 251.618 384.233,249.656 384.293,248.300 385.029 M170.000 388.821 C 169.567 389.116,169.817 389.158,170.897 388.971 C 173.199 388.573,174.400 389.014,174.400 390.259 L 174.400 391.303 177.124 391.035 C 180.393 390.713,181.200 390.959,181.200 392.276 C 181.200 393.458,182.140 393.339,182.319 392.134 C 182.559 390.521,180.468 389.905,177.100 390.597 C 175.746 390.875,175.600 390.823,175.600 390.066 C 175.600 388.587,171.637 387.706,170.000 388.821 M184.800 392.288 C 182.882 392.632,183.254 393.000,185.519 393.000 C 187.759 393.000,187.799 393.020,187.725 394.100 C 187.647 395.235,189.206 395.761,189.800 394.800 C 189.936 394.580,189.869 394.400,189.651 394.400 C 189.432 394.400,189.148 394.067,189.019 393.661 C 188.890 393.254,188.330 392.714,187.773 392.461 C 186.739 391.989,186.533 391.977,184.800 392.288 M221.709 392.466 C 221.219 392.712,220.712 393.249,220.582 393.657 C 220.452 394.066,220.168 394.400,219.949 394.400 C 219.731 394.400,219.664 394.580,219.800 394.800 C 220.367 395.717,221.943 395.231,222.073 394.100 C 222.193 393.057,222.308 393.000,224.281 393.000 C 225.426 393.000,226.236 392.874,226.081 392.720 C 225.547 392.190,222.598 392.018,221.709 392.466 M191.000 394.387 C 190.408 394.632,190.773 394.755,192.400 394.859 C 194.466 394.991,194.608 395.068,194.727 396.107 C 194.879 397.428,195.600 397.167,195.600 395.790 C 195.600 394.234,193.166 393.491,191.000 394.387 M214.629 394.629 C 213.939 395.318,213.879 395.620,214.243 396.567 C 214.620 397.549,215.111 397.312,214.907 396.247 C 214.674 395.027,215.281 394.671,217.563 394.691 C 218.885 394.703,219.176 394.616,218.600 394.382 C 217.268 393.840,215.295 393.962,214.629 394.629 M197.300 396.412 C 195.840 396.999,196.262 397.112,198.363 396.697 C 200.450 396.284,202.560 396.696,202.650 397.533 C 202.678 397.790,202.722 398.281,202.750 398.624 C 202.829 399.613,203.600 398.858,203.600 397.790 C 203.600 396.162,199.924 395.358,197.300 396.412 M206.880 396.480 C 206.311 397.049,206.242 398.655,206.773 398.983 C 206.978 399.110,207.203 398.721,207.273 398.120 C 207.441 396.673,209.358 396.064,211.745 396.699 C 213.211 397.089,213.312 397.075,212.624 396.570 C 211.671 395.871,207.553 395.807,206.880 396.480 " stroke="none" fill="#e4c425" fill-rule="evenodd"></path></g></svg>