<svg id="svg" version="1.1" xmlns="http://www.w3.org/2000/svg" xmlns:xlink="http://www.w3.org/1999/xlink" width="400" height="400" viewBox="0, 0, 400,400"><g id="svgg"><path id="path0" d="M0.000 200.000 L 0.000 400.000 200.000 400.000 L 400.000 400.000 400.000 200.000 L 400.000 0.000 200.000 0.000 L 0.000 0.000 0.000 200.000 M381.038 17.642 C 382.165 18.887,382.452 379.872,381.326 380.700 C 380.610 381.227,18.802 381.483,17.433 380.957 C 16.435 380.574,16.465 18.634,17.462 17.531 C 18.101 16.825,24.285 16.800,199.200 16.800 L 380.276 16.800 381.038 17.642 M105.300 103.865 L 104.400 104.056 104.400 193.358 L 104.400 282.661 105.326 283.530 C 106.238 284.388,106.443 284.400,119.679 284.400 L 133.107 284.400 133.348 283.500 C 133.481 283.005,133.592 268.779,133.595 251.887 C 133.599 225.981,133.691 220.957,134.180 219.787 L 134.759 218.400 146.280 218.378 C 161.601 218.348,170.544 217.887,172.535 217.025 C 173.380 216.659,175.090 216.173,176.335 215.945 C 177.581 215.717,178.870 215.296,179.200 215.009 C 179.530 214.723,180.377 214.367,181.081 214.217 C 181.786 214.067,182.790 213.608,183.313 213.197 C 183.835 212.786,184.731 212.332,185.302 212.189 C 185.874 212.045,186.652 211.584,187.033 211.164 C 187.413 210.744,187.874 210.400,188.058 210.400 C 189.271 210.400,195.665 204.617,197.787 201.600 C 198.638 200.390,199.529 199.217,199.767 198.993 C 200.248 198.541,201.213 196.925,202.271 194.800 C 202.655 194.030,203.178 193.130,203.434 192.800 C 203.690 192.470,204.123 191.480,204.398 190.600 C 204.672 189.720,205.235 188.439,205.649 187.753 C 206.062 187.067,206.400 186.025,206.400 185.437 C 206.400 184.849,206.752 183.678,207.183 182.834 C 207.613 181.991,208.163 179.709,208.404 177.765 C 208.646 175.820,209.039 173.994,209.278 173.706 C 210.532 172.194,210.626 147.074,209.389 144.112 C 209.075 143.361,208.639 141.320,208.421 139.577 C 208.202 137.834,207.750 135.990,207.416 135.480 C 207.082 134.970,206.629 133.609,206.410 132.454 C 206.191 131.300,205.744 130.087,205.417 129.760 C 205.089 129.432,204.629 128.452,204.395 127.582 C 204.161 126.712,203.818 126.000,203.633 126.000 C 203.448 126.000,203.062 125.415,202.775 124.700 C 202.488 123.985,201.836 122.970,201.326 122.445 C 200.817 121.920,200.400 121.277,200.400 121.015 C 200.400 120.754,199.950 120.117,199.400 119.600 C 198.850 119.083,198.400 118.526,198.400 118.361 C 198.400 118.036,196.455 116.048,195.503 115.400 C 195.180 115.180,193.774 114.145,192.378 113.100 C 190.982 112.055,189.625 111.200,189.363 111.200 C 189.100 111.200,188.789 110.948,188.671 110.640 C 188.553 110.332,187.768 109.861,186.928 109.592 C 186.088 109.323,184.860 108.788,184.200 108.404 C 183.540 108.020,182.382 107.589,181.626 107.448 C 180.871 107.306,179.971 106.937,179.626 106.626 C 179.282 106.316,177.560 105.865,175.800 105.624 C 174.040 105.383,171.700 104.888,170.600 104.523 C 168.659 103.881,108.105 103.270,105.300 103.865 M160.352 131.603 C 163.075 131.815,165.521 132.168,165.786 132.389 C 166.052 132.609,166.977 133.039,167.843 133.345 C 170.257 134.196,174.800 137.623,174.800 138.593 C 174.800 138.821,175.144 139.222,175.564 139.485 C 175.984 139.747,176.454 140.555,176.609 141.281 C 176.763 142.006,177.154 142.901,177.478 143.269 C 177.802 143.636,178.231 145.256,178.431 146.869 C 178.631 148.481,179.021 150.340,179.298 151.000 C 180.018 152.721,179.999 167.451,179.275 168.720 C 178.986 169.227,178.648 170.937,178.524 172.520 C 178.399 174.116,177.972 176.024,177.566 176.800 C 177.163 177.570,176.557 178.830,176.219 179.600 C 174.828 182.766,170.351 188.000,169.033 188.000 C 168.770 188.000,167.945 188.450,167.200 189.000 C 166.455 189.550,165.385 190.001,164.822 190.002 C 164.260 190.004,163.260 190.317,162.600 190.698 C 160.761 191.760,135.229 191.999,134.369 190.963 C 133.306 189.683,133.326 133.074,134.390 132.010 C 135.324 131.076,150.509 130.838,160.352 131.603 M269.600 148.795 C 269.050 148.991,266.428 149.321,263.773 149.528 C 260.739 149.764,258.474 150.148,257.673 150.562 C 256.973 150.924,255.467 151.398,254.328 151.614 C 253.188 151.830,251.973 152.252,251.628 152.553 C 251.283 152.853,250.339 153.311,249.532 153.570 C 248.725 153.829,247.848 154.302,247.583 154.620 C 247.318 154.939,246.924 155.200,246.706 155.200 C 245.707 155.200,237.600 162.838,237.600 163.779 C 237.600 164.105,237.255 164.557,236.833 164.783 C 236.410 165.009,235.949 165.722,235.807 166.369 C 235.665 167.016,235.299 167.752,234.993 168.006 C 234.687 168.259,234.158 169.427,233.817 170.601 C 233.476 171.774,233.019 172.794,232.801 172.867 C 232.583 172.940,232.228 174.400,232.011 176.110 C 231.794 177.821,231.454 179.531,231.255 179.910 C 229.786 182.705,229.882 195.552,231.403 199.822 C 231.712 200.690,231.973 202.213,231.982 203.206 C 231.992 204.199,232.334 205.639,232.741 206.406 C 233.149 207.173,233.714 208.510,233.998 209.377 C 234.281 210.245,234.671 211.145,234.864 211.377 C 235.676 212.357,237.206 214.660,237.547 215.414 C 238.035 216.494,242.898 221.023,244.408 221.804 C 245.064 222.143,245.600 222.567,245.600 222.746 C 245.600 222.925,246.323 223.310,247.206 223.602 C 248.089 223.893,249.007 224.367,249.246 224.655 C 249.485 224.943,250.337 225.295,251.140 225.438 C 251.943 225.581,253.140 226.015,253.800 226.403 C 254.460 226.790,256.078 227.237,257.396 227.395 C 258.714 227.552,260.442 228.014,261.238 228.419 C 262.033 228.825,263.655 229.277,264.842 229.424 C 266.029 229.572,267.390 229.935,267.866 230.233 C 268.342 230.530,269.957 230.969,271.454 231.209 C 272.951 231.448,274.743 231.994,275.435 232.422 C 276.128 232.850,277.095 233.200,277.584 233.200 C 278.928 233.200,282.366 236.081,284.757 239.212 C 286.317 241.254,286.265 250.894,284.685 252.773 C 284.088 253.481,283.600 254.302,283.600 254.595 C 283.600 255.380,279.220 258.800,278.215 258.800 C 277.853 258.800,276.711 259.205,275.678 259.700 C 272.365 261.288,250.990 261.180,248.974 259.566 C 248.739 259.378,247.479 259.099,246.174 258.946 C 244.868 258.794,243.008 258.248,242.040 257.734 C 241.073 257.220,239.775 256.800,239.156 256.800 C 238.537 256.800,237.709 256.464,237.316 256.053 C 236.922 255.642,235.943 255.188,235.140 255.043 C 234.337 254.897,233.460 254.514,233.191 254.189 C 232.922 253.865,232.274 253.600,231.751 253.600 L 230.800 253.600 230.805 264.300 C 230.812 277.312,230.914 277.622,235.600 278.998 C 236.150 279.159,237.140 279.616,237.800 280.012 C 238.460 280.408,239.720 280.862,240.600 281.020 C 241.480 281.179,242.843 281.631,243.629 282.026 C 244.416 282.421,246.216 282.867,247.629 283.016 C 249.043 283.166,250.740 283.558,251.400 283.889 C 254.494 285.438,280.750 285.458,283.808 283.913 C 284.464 283.582,285.789 283.190,286.753 283.043 C 287.716 282.895,289.444 282.330,290.591 281.787 C 291.738 281.244,292.964 280.800,293.315 280.800 C 293.666 280.800,294.066 280.617,294.204 280.394 C 294.341 280.171,295.207 279.608,296.127 279.142 C 297.047 278.677,297.944 278.049,298.120 277.748 C 298.296 277.447,298.696 277.200,299.009 277.200 C 299.726 277.200,305.870 271.041,306.205 269.985 C 306.342 269.553,306.619 269.200,306.822 269.200 C 307.024 269.200,307.469 268.532,307.810 267.715 C 308.151 266.898,308.674 265.953,308.971 265.615 C 309.268 265.277,309.641 264.370,309.800 263.600 C 309.959 262.830,310.350 261.904,310.669 261.541 C 310.988 261.179,311.404 259.829,311.594 258.541 C 311.784 257.254,312.334 254.580,312.816 252.600 C 313.963 247.895,313.760 237.009,312.428 231.800 C 311.978 230.040,311.607 228.139,311.605 227.576 C 311.602 227.014,311.333 226.204,311.006 225.776 C 310.680 225.349,310.212 224.285,309.967 223.411 C 309.484 221.688,306.107 216.365,304.558 214.884 C 304.031 214.380,303.600 213.795,303.600 213.584 C 303.600 213.373,303.355 213.200,303.055 213.200 C 302.566 213.200,301.872 212.735,298.400 210.078 C 297.850 209.657,296.950 209.172,296.400 209.001 C 295.850 208.830,294.997 208.375,294.503 207.990 C 294.010 207.605,292.930 207.165,292.103 207.012 C 291.277 206.858,290.060 206.411,289.400 206.018 C 288.740 205.625,287.342 205.193,286.293 205.058 C 285.244 204.924,283.887 204.555,283.277 204.240 C 282.666 203.924,280.743 203.468,279.002 203.226 C 277.262 202.984,275.469 202.547,275.019 202.256 C 274.568 201.964,273.052 201.608,271.648 201.464 C 270.207 201.316,268.533 200.853,267.801 200.401 C 267.089 199.960,266.077 199.595,265.553 199.590 C 263.155 199.564,258.337 195.280,257.781 192.679 C 257.631 191.976,257.324 191.172,257.100 190.894 C 256.369 189.987,256.220 184.934,256.895 183.905 C 257.225 183.401,257.620 182.420,257.772 181.726 C 258.033 180.538,258.810 179.438,260.908 177.284 C 264.418 173.680,274.166 171.829,282.800 173.127 C 284.450 173.375,287.150 173.688,288.800 173.823 C 290.450 173.957,292.610 174.393,293.600 174.791 C 294.590 175.189,296.390 175.645,297.600 175.802 C 298.810 175.960,300.052 176.294,300.360 176.545 C 301.185 177.216,305.550 178.338,306.436 178.107 C 307.164 177.916,307.200 177.401,307.200 167.021 L 307.200 156.135 305.244 154.867 C 304.168 154.170,302.935 153.600,302.504 153.600 C 302.072 153.600,300.873 153.150,299.838 152.600 C 298.804 152.050,297.518 151.600,296.980 151.600 C 296.443 151.600,294.897 151.217,293.545 150.749 C 289.655 149.403,271.949 147.958,269.600 148.795 " stroke="none" fill="#4bc2ea" fill-rule="evenodd"></path><path id="path1" d="M18.000 18.600 C 18.000 19.132,38.377 19.200,198.992 19.200 L 379.985 19.200 380.202 20.100 C 380.321 20.595,380.369 101.848,380.309 200.662 C 380.249 299.476,380.335 380.240,380.500 380.138 C 380.986 379.838,380.872 19.682,380.386 18.774 C 379.815 17.707,18.000 17.533,18.000 18.600 M17.798 199.800 C 17.798 299.020,17.844 339.670,17.900 290.133 C 17.956 240.596,17.956 159.416,17.900 109.733 C 17.844 60.050,17.798 100.580,17.798 199.800 M103.670 102.526 L 102.800 103.452 102.800 194.077 C 102.800 277.872,102.850 284.743,103.461 285.251 C 103.996 285.695,106.985 285.800,119.050 285.800 L 133.977 285.800 134.889 284.889 L 135.800 283.978 135.909 252.394 L 136.019 220.811 136.909 220.618 C 137.399 220.512,144.370 220.362,152.400 220.286 C 165.281 220.162,167.141 220.065,168.200 219.461 C 169.538 218.697,164.753 218.824,161.600 219.635 C 160.830 219.833,154.947 219.997,148.526 219.998 C 141.915 219.999,136.407 220.169,135.826 220.390 L 134.800 220.780 134.800 252.390 C 134.800 283.708,134.792 284.008,133.981 284.819 C 132.959 285.841,104.936 285.898,103.920 284.880 C 103.241 284.201,102.937 104.839,103.611 103.579 C 104.019 102.818,104.712 102.800,133.891 102.800 C 160.233 102.800,163.661 102.731,162.976 102.213 C 162.311 101.709,158.086 101.624,133.370 101.613 L 104.539 101.600 103.670 102.526 M170.200 103.206 C 171.740 103.369,173.648 103.774,174.439 104.106 C 175.230 104.437,176.849 104.842,178.035 105.005 C 179.222 105.168,180.821 105.639,181.590 106.051 C 182.359 106.463,183.152 106.800,183.352 106.800 C 183.794 106.800,188.846 109.314,190.839 110.525 C 194.939 113.018,199.547 117.522,202.168 121.600 C 202.805 122.590,203.624 123.850,203.989 124.400 C 205.017 125.947,207.200 130.596,207.200 131.238 C 207.200 131.553,207.560 132.484,208.000 133.304 C 208.440 134.125,208.800 135.203,208.800 135.700 C 208.800 136.196,209.173 137.862,209.629 139.401 C 210.085 140.941,210.611 143.550,210.798 145.200 L 211.139 148.200 211.058 144.165 C 210.995 141.022,210.815 139.882,210.243 139.009 C 209.839 138.393,209.362 136.706,209.183 135.260 C 208.997 133.763,208.608 132.449,208.279 132.208 C 207.962 131.976,207.572 131.015,207.412 130.073 C 207.253 129.130,206.801 128.053,206.408 127.680 C 206.015 127.306,205.568 126.414,205.414 125.697 C 205.261 124.980,204.790 124.209,204.367 123.983 C 203.945 123.757,203.600 123.244,203.600 122.844 C 203.600 122.444,203.164 121.646,202.631 121.071 C 202.098 120.496,201.549 119.669,201.411 119.233 C 201.272 118.798,200.808 118.330,200.380 118.194 C 199.951 118.057,199.600 117.752,199.600 117.516 C 199.600 116.927,197.113 114.410,196.527 114.404 C 196.267 114.402,195.948 114.067,195.819 113.661 C 195.690 113.254,195.138 112.718,194.592 112.469 C 194.047 112.221,193.600 111.827,193.600 111.594 C 193.600 111.362,192.790 110.824,191.800 110.400 C 190.810 109.976,190.000 109.442,190.000 109.214 C 190.000 108.986,189.675 108.800,189.278 108.800 C 188.880 108.800,187.970 108.368,187.254 107.840 C 186.539 107.312,185.289 106.757,184.477 106.606 C 183.665 106.456,182.715 106.077,182.367 105.765 C 182.019 105.453,180.669 105.006,179.367 104.772 C 178.065 104.538,176.268 103.998,175.374 103.573 C 174.147 102.990,172.968 102.813,170.574 102.854 L 167.400 102.909 170.200 103.206 M135.300 132.665 C 134.907 132.824,134.800 138.868,134.800 161.004 L 134.800 189.142 135.854 189.971 C 137.055 190.916,156.763 191.276,158.431 190.383 C 158.859 190.154,160.422 189.716,161.905 189.408 L 164.600 188.850 162.200 189.044 C 155.122 189.616,136.934 189.643,136.469 189.083 C 136.111 188.652,136.020 181.692,136.097 160.756 L 136.200 133.000 148.944 132.894 C 160.854 132.796,161.769 132.838,162.944 133.547 C 163.635 133.964,165.034 134.425,166.054 134.570 C 167.088 134.718,168.212 135.171,168.595 135.595 C 168.974 136.013,169.804 136.469,170.441 136.609 C 171.079 136.749,171.600 137.123,171.600 137.440 C 171.600 137.758,172.050 138.222,172.600 138.473 C 173.150 138.723,173.600 139.145,173.600 139.410 C 173.600 139.675,173.986 140.383,174.459 140.984 C 174.931 141.584,175.470 142.893,175.657 143.892 C 175.843 144.891,176.312 145.940,176.698 146.222 C 177.738 146.982,177.778 172.290,176.742 173.458 C 176.379 173.866,175.868 175.251,175.606 176.536 C 175.343 177.820,174.785 179.215,174.364 179.636 C 173.944 180.056,173.597 180.625,173.593 180.900 C 173.589 181.175,173.139 181.824,172.593 182.342 C 172.047 182.860,171.600 183.502,171.600 183.768 C 171.600 184.035,170.880 184.657,170.000 185.152 C 169.120 185.647,168.400 186.191,168.400 186.362 C 168.400 186.533,167.688 186.887,166.817 187.148 C 165.245 187.619,164.502 188.235,164.957 188.691 C 165.088 188.822,165.511 188.659,165.898 188.330 C 166.284 188.001,167.222 187.485,167.983 187.183 C 169.175 186.710,169.989 186.143,171.288 184.880 C 173.277 182.947,175.993 178.396,175.998 176.989 C 175.999 176.543,176.293 175.760,176.651 175.248 C 178.817 172.156,178.860 148.178,176.705 144.787 C 176.361 144.244,175.956 143.212,175.806 142.494 C 175.190 139.537,170.558 135.261,166.813 134.192 C 165.816 133.907,164.280 133.395,163.400 133.055 C 161.834 132.448,136.701 132.100,135.300 132.665 M264.800 147.200 C 263.150 147.353,261.260 147.775,260.600 148.137 C 259.940 148.499,258.643 148.796,257.719 148.798 C 256.049 148.800,254.000 149.469,254.000 150.012 C 254.000 150.167,253.252 150.395,252.339 150.518 C 251.425 150.640,250.183 151.106,249.579 151.552 C 248.975 151.999,248.012 152.482,247.440 152.626 C 246.868 152.769,246.400 153.044,246.400 153.235 C 246.400 153.427,245.663 153.960,244.762 154.419 C 243.861 154.879,242.326 156.053,241.351 157.028 C 240.377 158.002,239.404 158.800,239.189 158.800 C 238.975 158.800,238.800 159.049,238.800 159.354 C 238.800 159.659,238.350 160.203,237.800 160.563 C 237.250 160.924,236.800 161.490,236.800 161.822 C 236.800 162.154,236.544 162.523,236.231 162.643 C 235.918 162.763,235.394 163.533,235.065 164.354 C 234.737 165.174,234.188 166.078,233.845 166.363 C 233.502 166.647,233.109 167.481,232.971 168.214 C 232.833 168.948,232.389 169.848,231.984 170.214 C 231.523 170.632,231.146 171.726,230.976 173.141 C 230.827 174.383,230.422 175.721,230.077 176.114 C 229.597 176.662,229.430 177.922,229.364 181.514 L 229.278 186.200 229.574 182.400 C 229.736 180.310,230.169 177.931,230.535 177.113 C 230.901 176.295,231.200 175.127,231.200 174.519 C 231.200 173.070,233.935 167.116,236.253 163.517 C 237.863 161.019,243.205 155.818,245.216 154.792 C 246.006 154.389,246.889 153.775,247.176 153.429 C 247.463 153.083,247.970 152.800,248.302 152.800 C 248.634 152.800,249.467 152.456,250.153 152.037 C 250.839 151.617,252.210 151.058,253.200 150.795 C 254.190 150.532,255.091 150.172,255.202 149.994 C 255.313 149.816,257.203 149.365,259.402 148.992 C 261.601 148.619,263.712 148.149,264.093 147.947 C 266.058 146.905,282.200 147.194,286.643 148.351 C 287.547 148.586,289.861 148.957,291.786 149.176 C 293.711 149.395,295.492 149.740,295.743 149.944 C 295.994 150.147,297.357 150.608,298.771 150.967 C 300.185 151.326,301.536 151.781,301.774 151.978 C 302.012 152.176,302.941 152.590,303.840 152.900 C 304.738 153.210,306.132 153.965,306.937 154.579 L 308.400 155.695 308.400 167.367 C 308.400 175.913,308.271 179.169,307.920 179.520 C 307.202 180.238,305.552 180.096,304.200 179.200 C 303.540 178.763,302.590 178.404,302.088 178.403 C 301.586 178.401,300.146 177.973,298.888 177.452 C 297.630 176.930,295.665 176.386,294.523 176.241 C 293.381 176.097,291.788 175.703,290.982 175.367 C 290.177 175.030,289.132 174.810,288.659 174.878 C 287.049 175.107,290.582 176.411,293.490 176.661 C 294.981 176.789,296.761 177.212,297.447 177.602 C 298.133 177.992,299.603 178.435,300.715 178.588 C 301.916 178.754,303.017 179.177,303.430 179.633 C 304.233 180.520,307.527 180.713,308.320 179.920 C 308.672 179.568,308.800 176.242,308.800 167.448 L 308.800 155.457 307.362 154.139 C 306.571 153.415,305.286 152.702,304.507 152.556 C 303.728 152.410,302.770 151.970,302.378 151.578 C 301.966 151.166,300.726 150.748,299.433 150.587 C 298.205 150.433,297.200 150.170,297.200 150.002 C 297.200 149.410,294.965 148.855,291.914 148.690 C 290.217 148.597,288.569 148.306,288.252 148.043 C 287.021 147.022,272.376 146.495,264.800 147.200 M211.228 158.800 C 211.231 165.989,211.277 166.495,211.816 165.254 C 212.650 163.333,212.647 152.880,211.813 151.776 C 211.290 151.085,211.226 151.856,211.228 158.800 M210.846 171.650 C 210.821 172.887,210.515 174.687,210.167 175.650 C 209.819 176.612,209.288 178.888,208.986 180.706 C 208.684 182.525,208.158 184.410,207.818 184.895 C 207.478 185.381,207.200 186.161,207.200 186.629 C 207.200 187.098,206.771 188.288,206.246 189.275 C 205.722 190.261,205.167 191.638,205.014 192.334 C 204.862 193.030,204.598 193.600,204.429 193.600 C 204.260 193.600,203.784 194.365,203.372 195.300 C 202.960 196.235,202.393 197.144,202.111 197.320 C 201.830 197.496,201.600 197.876,201.600 198.165 C 201.600 198.841,199.202 202.026,196.223 205.305 C 194.555 207.141,189.521 211.200,188.911 211.200 C 188.630 211.200,188.400 211.386,188.400 211.614 C 188.400 211.842,187.635 212.380,186.700 212.809 C 185.765 213.239,184.730 213.756,184.400 213.960 C 183.679 214.404,179.645 216.263,178.800 216.540 C 178.470 216.648,178.865 216.751,179.677 216.768 C 180.664 216.790,181.328 216.562,181.677 216.083 C 181.965 215.688,182.975 215.138,183.921 214.860 C 184.868 214.583,185.742 214.095,185.864 213.778 C 185.986 213.460,186.413 213.200,186.812 213.200 C 187.212 213.200,188.073 212.750,188.727 212.200 C 189.381 211.650,190.070 211.198,190.258 211.196 C 190.446 211.193,191.455 210.402,192.501 209.438 C 193.547 208.474,194.689 207.575,195.039 207.440 C 195.389 207.306,195.768 206.843,195.881 206.411 C 195.994 205.980,196.427 205.518,196.843 205.386 C 197.259 205.254,197.600 204.892,197.600 204.582 C 197.600 204.272,198.050 203.724,198.600 203.363 C 199.150 203.003,199.600 202.490,199.600 202.224 C 199.600 201.957,200.050 201.317,200.600 200.800 C 201.150 200.283,201.600 199.620,201.600 199.326 C 201.600 199.033,201.959 198.485,202.398 198.109 C 202.836 197.734,203.390 196.835,203.629 196.113 C 203.867 195.391,204.221 194.800,204.416 194.800 C 204.610 194.800,204.972 194.035,205.220 193.100 C 205.469 192.165,206.000 191.040,206.402 190.600 C 206.803 190.160,207.264 188.900,207.426 187.800 C 207.588 186.700,207.973 185.616,208.281 185.391 C 208.592 185.163,209.022 183.671,209.249 182.032 C 209.474 180.411,209.945 178.645,210.297 178.108 C 210.944 177.121,211.485 171.735,211.093 170.188 C 210.983 169.755,210.872 170.412,210.846 171.650 M271.400 174.385 C 269.518 174.569,271.607 174.682,277.767 174.729 C 282.808 174.768,286.858 174.732,286.767 174.650 C 286.419 174.337,274.074 174.124,271.400 174.385 M266.607 175.189 C 266.475 175.403,265.685 175.782,264.853 176.032 C 263.510 176.434,262.008 177.639,259.400 180.407 C 258.678 181.174,258.600 181.806,258.600 186.928 L 258.600 192.600 259.960 194.477 C 260.709 195.509,261.828 196.563,262.447 196.820 C 263.067 197.076,263.781 197.537,264.036 197.843 C 264.720 198.668,265.295 198.524,264.825 197.646 C 264.603 197.231,263.984 196.782,263.450 196.648 C 261.194 196.082,259.081 192.633,258.882 189.192 C 258.631 184.853,259.096 180.800,259.844 180.800 C 260.164 180.800,260.540 180.485,260.680 180.100 C 261.146 178.818,263.420 176.923,264.819 176.651 C 266.416 176.341,268.644 174.824,267.524 174.809 C 267.152 174.804,266.739 174.975,266.607 175.189 M229.352 197.677 C 229.420 201.822,229.560 202.893,230.117 203.509 C 230.493 203.924,230.801 204.699,230.802 205.231 C 230.806 206.791,231.605 209.227,232.186 209.450 C 232.480 209.563,232.845 210.318,232.996 211.128 C 233.147 211.937,233.615 212.922,234.035 213.316 C 234.456 213.709,234.800 214.275,234.800 214.574 C 234.800 214.872,235.247 215.540,235.793 216.058 C 236.339 216.576,236.789 217.161,236.793 217.358 C 236.804 217.906,241.442 222.200,242.588 222.722 C 243.145 222.975,243.600 223.353,243.600 223.560 C 243.600 223.768,244.251 224.153,245.046 224.415 C 245.842 224.678,246.832 225.232,247.246 225.646 C 247.661 226.061,248.426 226.400,248.946 226.400 C 249.466 226.400,250.380 226.784,250.976 227.252 C 251.632 227.768,252.798 228.160,253.930 228.243 C 255.567 228.365,255.639 228.340,254.510 228.043 C 253.801 227.857,252.808 227.435,252.304 227.105 C 251.800 226.775,250.761 226.371,249.994 226.208 C 249.227 226.045,248.323 225.668,247.985 225.371 C 247.647 225.074,246.702 224.551,245.885 224.210 C 245.068 223.869,244.400 223.431,244.400 223.238 C 244.400 223.045,243.995 222.784,243.500 222.659 C 242.350 222.369,238.154 218.344,236.556 216.000 C 233.918 212.129,233.200 210.937,233.200 210.426 C 233.200 210.134,232.856 209.333,232.435 208.647 C 232.014 207.961,231.480 206.364,231.248 205.099 C 231.016 203.833,230.613 202.399,230.353 201.912 C 230.092 201.425,229.742 199.130,229.574 196.813 L 229.269 192.600 229.352 197.677 M266.913 198.803 C 267.745 199.017,268.951 199.464,269.593 199.796 C 270.235 200.128,271.084 200.397,271.480 200.393 C 273.115 200.378,269.584 198.764,267.540 198.592 C 265.535 198.424,265.495 198.437,266.913 198.803 M274.590 200.827 C 275.684 201.010,277.243 201.459,278.055 201.825 C 280.219 202.801,280.777 202.330,278.691 201.288 C 277.453 200.670,276.257 200.414,274.756 200.447 L 272.600 200.494 274.590 200.827 M282.895 202.774 C 284.157 202.949,285.419 203.284,285.700 203.517 C 285.981 203.750,287.108 204.156,288.205 204.420 C 289.302 204.683,291.010 205.262,292.000 205.705 C 295.734 207.379,298.846 208.951,299.036 209.259 C 299.145 209.435,299.872 209.881,300.651 210.251 C 303.592 211.646,308.421 217.178,310.211 221.200 C 310.553 221.970,311.186 223.255,311.617 224.054 C 312.048 224.854,312.400 225.985,312.400 226.567 C 312.400 227.149,312.691 228.295,313.048 229.113 C 313.404 229.931,313.840 231.680,314.016 233.000 C 314.332 235.356,314.336 235.340,314.264 232.069 C 314.208 229.479,314.048 228.659,313.548 228.379 C 313.128 228.144,312.812 227.196,312.637 225.646 C 312.489 224.340,312.106 223.054,311.786 222.788 C 311.466 222.523,310.995 221.609,310.740 220.759 C 310.486 219.909,309.945 218.912,309.539 218.544 C 309.132 218.177,308.800 217.647,308.800 217.367 C 308.800 217.087,308.350 216.504,307.800 216.071 C 307.250 215.639,306.800 215.150,306.800 214.985 C 306.800 214.503,304.244 212.009,303.746 212.004 C 303.496 212.002,302.997 211.550,302.637 211.000 C 302.276 210.450,301.787 210.000,301.549 210.000 C 301.310 210.000,300.581 209.550,299.927 209.000 C 299.273 208.450,298.387 208.000,297.957 208.000 C 297.527 208.000,297.072 207.732,296.946 207.404 C 296.821 207.077,295.978 206.609,295.073 206.366 C 294.168 206.122,293.013 205.597,292.507 205.198 C 292.000 204.799,290.647 204.344,289.500 204.186 C 288.342 204.027,287.208 203.617,286.951 203.265 C 286.612 202.802,285.693 202.607,283.544 202.543 L 280.600 202.454 282.895 202.774 M175.344 217.440 C 174.874 217.770,173.344 218.187,171.944 218.369 L 169.400 218.699 171.874 218.749 C 174.282 218.799,175.133 218.581,177.200 217.389 L 178.200 216.812 177.200 216.827 C 176.650 216.835,175.815 217.111,175.344 217.440 M257.480 229.234 C 258.206 229.699,259.765 230.151,261.080 230.277 C 262.356 230.401,263.940 230.822,264.600 231.214 C 265.260 231.606,267.060 232.057,268.600 232.217 C 270.291 232.393,271.759 232.790,272.308 233.218 C 272.807 233.608,274.125 234.052,275.236 234.205 C 276.348 234.358,277.344 234.709,277.449 234.984 C 277.555 235.260,278.338 235.715,279.188 235.996 C 280.078 236.290,280.817 236.823,280.930 237.253 C 281.037 237.664,281.405 238.000,281.746 238.000 C 282.128 238.000,282.558 238.635,282.860 239.642 C 283.130 240.545,283.587 241.374,283.876 241.484 C 284.658 241.785,284.623 250.229,283.838 250.530 C 283.528 250.649,283.155 251.293,283.008 251.962 C 282.738 253.191,280.288 256.000,279.486 256.000 C 279.247 256.000,278.680 256.332,278.226 256.738 C 277.751 257.162,275.956 257.752,274.005 258.124 C 272.137 258.481,270.547 258.958,270.471 259.186 C 270.299 259.703,256.400 259.759,256.400 259.243 C 256.400 258.672,255.603 258.500,250.558 257.978 C 247.822 257.694,245.533 257.256,245.172 256.946 C 244.827 256.649,243.629 256.233,242.511 256.021 C 241.393 255.809,239.875 255.268,239.139 254.819 C 238.402 254.370,237.350 254.023,236.800 254.048 C 235.969 254.085,235.935 254.127,236.600 254.293 C 237.040 254.403,237.869 254.826,238.442 255.233 C 239.015 255.639,240.275 256.097,241.242 256.249 C 242.209 256.402,243.630 256.843,244.400 257.229 C 245.170 257.615,247.311 258.126,249.158 258.365 C 251.005 258.603,252.788 259.024,253.119 259.299 C 253.968 260.004,272.016 260.016,272.864 259.313 C 273.187 259.045,274.563 258.566,275.922 258.249 C 279.689 257.370,282.551 254.863,284.427 250.800 C 285.020 249.516,285.015 242.509,284.420 241.200 C 283.241 238.607,280.817 235.913,279.200 235.400 C 278.760 235.260,278.400 235.002,278.400 234.826 C 278.400 234.650,277.326 234.204,276.013 233.836 C 274.700 233.467,273.125 232.905,272.513 232.585 C 271.901 232.266,270.770 231.996,270.000 231.985 C 269.230 231.974,267.880 231.686,267.000 231.345 C 266.120 231.005,264.050 230.417,262.400 230.039 C 260.750 229.662,259.007 229.138,258.526 228.876 C 256.947 228.015,256.055 228.320,257.480 229.234 M314.078 252.885 C 314.035 253.922,313.640 255.684,313.200 256.800 C 312.760 257.916,312.400 259.284,312.400 259.840 C 312.400 260.716,310.648 265.029,309.573 266.800 C 309.372 267.130,308.843 268.075,308.396 268.900 C 307.949 269.725,307.407 270.400,307.192 270.400 C 306.976 270.400,306.800 270.667,306.800 270.993 C 306.800 271.725,300.652 277.866,299.579 278.207 C 299.150 278.343,298.800 278.619,298.800 278.822 C 298.800 279.024,298.192 279.443,297.449 279.754 C 296.706 280.064,295.983 280.504,295.843 280.730 C 295.703 280.956,294.916 281.358,294.094 281.621 C 293.272 281.885,292.330 282.328,292.000 282.606 C 291.670 282.883,290.446 283.310,289.280 283.555 C 288.114 283.800,286.598 284.291,285.912 284.646 C 283.565 285.859,263.419 287.405,262.267 286.460 C 262.010 286.249,259.640 285.995,257.000 285.895 C 254.360 285.794,253.184 285.787,254.386 285.879 C 255.589 285.970,256.779 286.217,257.032 286.427 C 258.809 287.901,277.101 287.915,278.969 286.444 C 279.206 286.257,281.020 285.979,283.000 285.825 C 285.620 285.621,286.818 285.349,287.400 284.822 C 287.840 284.425,289.066 284.008,290.125 283.896 C 291.316 283.770,292.393 283.370,292.951 282.846 C 293.446 282.381,294.231 282.000,294.695 282.000 C 295.159 282.000,296.073 281.550,296.727 281.000 C 297.381 280.450,298.104 280.000,298.335 280.000 C 298.566 280.000,298.990 279.666,299.277 279.257 C 299.565 278.849,300.183 278.394,300.651 278.246 C 301.742 277.901,306.706 272.928,307.052 271.832 C 307.196 271.375,307.649 270.765,308.057 270.477 C 308.466 270.190,308.800 269.611,308.800 269.191 C 308.800 268.772,309.152 268.240,309.583 268.009 C 310.041 267.764,310.478 266.970,310.636 266.095 C 310.785 265.273,311.229 264.291,311.623 263.913 C 312.053 263.500,312.454 262.303,312.628 260.918 C 312.786 259.649,313.259 258.147,313.678 257.580 C 314.296 256.744,314.413 256.026,314.298 253.775 C 314.196 251.770,314.135 251.523,314.078 252.885 M229.852 252.206 C 228.690 253.367,228.913 278.000,230.085 278.000 C 230.305 278.000,231.019 278.450,231.673 279.000 C 232.327 279.550,233.227 280.000,233.673 280.000 C 234.119 280.000,235.019 280.450,235.673 281.000 C 236.412 281.622,237.341 281.993,238.131 281.982 L 239.400 281.965 237.969 281.453 C 237.181 281.172,236.106 280.640,235.580 280.271 C 235.053 279.902,234.392 279.600,234.112 279.600 C 233.831 279.600,232.701 278.953,231.601 278.162 L 229.600 276.725 229.600 264.805 C 229.600 254.305,229.675 252.857,230.233 252.643 C 231.409 252.191,232.687 252.396,233.709 253.200 C 235.174 254.352,236.018 254.167,234.678 252.987 C 234.060 252.444,233.130 252.000,232.610 252.000 C 232.091 252.000,231.404 251.900,231.084 251.777 C 230.765 251.654,230.210 251.847,229.852 252.206 M240.504 282.796 C 241.096 283.262,242.604 283.745,244.144 283.964 C 245.590 284.168,247.179 284.620,247.676 284.968 C 248.175 285.318,249.297 285.579,250.189 285.554 C 251.075 285.528,251.440 285.430,251.000 285.335 C 250.560 285.240,249.570 284.907,248.800 284.595 C 248.030 284.283,246.334 283.841,245.031 283.614 C 243.728 283.387,242.249 282.931,241.745 282.601 C 240.301 281.655,239.261 281.818,240.504 282.796 " stroke="none" fill="#144c5c" fill-rule="evenodd"></path><path id="path2" d="M18.000 199.800 L 18.000 380.401 199.100 380.300 L 380.200 380.200 380.309 200.600 C 380.369 101.820,380.321 20.595,380.201 20.100 L 379.985 19.200 198.992 19.200 L 18.000 19.200 18.000 199.800 M162.976 102.213 C 163.563 102.656,164.975 102.800,168.750 102.800 C 172.862 102.800,174.036 102.937,175.374 103.573 C 176.268 103.998,178.065 104.538,179.367 104.772 C 180.669 105.006,182.019 105.453,182.367 105.765 C 182.715 106.077,183.665 106.456,184.477 106.606 C 185.289 106.757,186.539 107.312,187.254 107.840 C 187.970 108.368,188.880 108.800,189.278 108.800 C 189.675 108.800,190.000 108.986,190.000 109.214 C 190.000 109.442,190.810 109.976,191.800 110.400 C 192.790 110.824,193.600 111.362,193.600 111.594 C 193.600 111.827,194.047 112.221,194.592 112.469 C 195.138 112.718,195.690 113.254,195.819 113.661 C 195.948 114.067,196.267 114.402,196.527 114.404 C 197.113 114.410,199.600 116.927,199.600 117.516 C 199.600 117.752,199.951 118.057,200.380 118.194 C 200.808 118.330,201.272 118.798,201.411 119.233 C 201.549 119.669,202.098 120.496,202.631 121.071 C 203.164 121.646,203.600 122.444,203.600 122.844 C 203.600 123.244,203.945 123.757,204.367 123.983 C 204.790 124.209,205.261 124.980,205.414 125.697 C 205.568 126.414,206.015 127.306,206.408 127.680 C 206.801 128.053,207.253 129.130,207.412 130.073 C 207.572 131.015,207.962 131.976,208.279 132.208 C 208.608 132.449,208.997 133.763,209.183 135.260 C 209.362 136.706,209.844 138.400,210.254 139.026 C 210.867 139.960,211.025 141.129,211.141 145.573 C 211.240 149.361,211.450 151.222,211.841 151.781 C 212.581 152.836,212.639 163.626,211.912 164.926 C 211.629 165.433,211.331 168.163,211.202 171.433 C 211.033 175.714,210.821 177.308,210.319 178.075 C 209.955 178.630,209.474 180.411,209.249 182.032 C 209.022 183.671,208.592 185.163,208.281 185.391 C 207.973 185.616,207.588 186.700,207.426 187.800 C 207.264 188.900,206.803 190.160,206.402 190.600 C 206.000 191.040,205.469 192.165,205.220 193.100 C 204.972 194.035,204.610 194.800,204.416 194.800 C 204.221 194.800,203.867 195.391,203.629 196.113 C 203.390 196.835,202.836 197.734,202.398 198.109 C 201.959 198.485,201.600 199.033,201.600 199.326 C 201.600 199.620,201.150 200.283,200.600 200.800 C 200.050 201.317,199.600 201.957,199.600 202.224 C 199.600 202.490,199.150 203.003,198.600 203.363 C 198.050 203.724,197.600 204.272,197.600 204.582 C 197.600 204.892,197.259 205.254,196.843 205.386 C 196.427 205.518,195.994 205.980,195.881 206.411 C 195.768 206.843,195.389 207.306,195.039 207.440 C 194.689 207.575,193.547 208.474,192.501 209.438 C 191.455 210.402,190.446 211.193,190.258 211.196 C 190.070 211.198,189.381 211.650,188.727 212.200 C 188.073 212.750,187.212 213.200,186.812 213.200 C 186.413 213.200,185.986 213.460,185.864 213.778 C 185.742 214.095,184.868 214.583,183.921 214.860 C 182.975 215.138,181.981 215.665,181.714 216.031 C 181.415 216.439,180.450 216.770,179.210 216.889 C 178.052 217.001,176.848 217.394,176.386 217.813 C 175.793 218.349,174.640 218.610,172.018 218.799 C 169.862 218.954,168.184 219.281,167.767 219.628 C 167.202 220.096,164.424 220.220,152.439 220.313 C 144.387 220.375,137.399 220.512,136.909 220.618 L 136.019 220.811 135.909 252.394 L 135.800 283.978 134.889 284.889 L 133.977 285.800 119.050 285.800 C 106.985 285.800,103.996 285.695,103.461 285.251 C 102.850 284.743,102.800 277.872,102.800 194.077 L 102.800 103.452 103.670 102.526 L 104.539 101.600 133.370 101.613 C 158.086 101.624,162.311 101.709,162.976 102.213 M136.267 133.067 C 135.664 133.669,135.966 188.674,136.575 189.179 C 137.941 190.313,163.958 189.242,165.199 188.001 C 165.595 187.605,166.477 187.159,167.159 187.009 C 167.842 186.859,168.400 186.582,168.400 186.394 C 168.400 186.205,169.120 185.647,170.000 185.152 C 170.880 184.657,171.600 184.035,171.600 183.768 C 171.600 183.502,172.047 182.860,172.593 182.342 C 173.139 181.824,173.589 181.175,173.593 180.900 C 173.597 180.625,173.944 180.056,174.364 179.636 C 174.785 179.215,175.343 177.820,175.606 176.536 C 175.868 175.251,176.379 173.866,176.742 173.458 C 177.778 172.290,177.738 146.982,176.698 146.222 C 176.312 145.940,175.843 144.891,175.657 143.892 C 175.470 142.893,174.931 141.584,174.459 140.984 C 173.986 140.383,173.600 139.675,173.600 139.410 C 173.600 139.145,173.150 138.723,172.600 138.473 C 172.050 138.222,171.600 137.758,171.600 137.440 C 171.600 137.123,171.079 136.749,170.441 136.609 C 169.804 136.469,168.974 136.013,168.595 135.595 C 168.212 135.171,167.088 134.718,166.054 134.570 C 165.034 134.425,163.639 133.967,162.953 133.553 C 161.684 132.787,136.996 132.337,136.267 133.067 M283.137 147.188 C 285.633 147.395,287.934 147.779,288.252 148.043 C 288.569 148.306,290.217 148.597,291.914 148.690 C 294.965 148.855,297.200 149.410,297.200 150.002 C 297.200 150.170,298.205 150.433,299.433 150.587 C 300.726 150.748,301.966 151.166,302.378 151.578 C 302.770 151.970,303.728 152.410,304.507 152.556 C 305.286 152.702,306.571 153.415,307.362 154.139 L 308.800 155.457 308.800 167.448 C 308.800 176.242,308.672 179.568,308.320 179.920 C 307.527 180.713,304.233 180.520,303.430 179.633 C 303.017 179.177,301.916 178.754,300.715 178.588 C 299.603 178.435,298.133 177.992,297.447 177.602 C 296.761 177.212,294.958 176.787,293.441 176.656 C 291.876 176.522,290.009 176.069,289.128 175.610 C 286.759 174.374,268.928 174.369,267.195 175.603 C 266.575 176.045,265.472 176.526,264.744 176.671 C 263.391 176.942,261.136 178.844,260.680 180.100 C 260.540 180.485,260.164 180.800,259.844 180.800 C 259.096 180.800,258.631 184.853,258.882 189.192 C 259.081 192.633,261.194 196.082,263.450 196.648 C 263.984 196.782,264.589 197.205,264.794 197.588 C 265.051 198.070,265.853 198.355,267.390 198.514 C 268.614 198.640,270.217 199.116,270.954 199.572 C 271.913 200.164,272.966 200.400,274.653 200.400 C 276.334 200.400,277.470 200.653,278.606 201.281 C 279.679 201.874,281.231 202.244,283.356 202.414 C 285.509 202.586,286.656 202.862,286.964 203.283 C 287.212 203.622,288.353 204.028,289.500 204.186 C 290.647 204.344,292.000 204.799,292.507 205.198 C 293.013 205.597,294.168 206.122,295.073 206.366 C 295.978 206.609,296.821 207.077,296.946 207.404 C 297.072 207.732,297.527 208.000,297.957 208.000 C 298.387 208.000,299.273 208.450,299.927 209.000 C 300.581 209.550,301.310 210.000,301.549 210.000 C 301.787 210.000,302.276 210.450,302.637 211.000 C 302.997 211.550,303.477 212.000,303.703 212.000 C 304.203 212.000,306.790 214.462,306.796 214.942 C 306.798 215.131,307.250 215.639,307.800 216.071 C 308.350 216.504,308.800 217.087,308.800 217.367 C 308.800 217.647,309.132 218.177,309.539 218.544 C 309.945 218.912,310.486 219.909,310.740 220.759 C 310.995 221.609,311.466 222.523,311.786 222.788 C 312.106 223.054,312.489 224.340,312.637 225.646 C 312.813 227.205,313.128 228.144,313.553 228.381 C 314.635 228.986,314.747 256.134,313.673 257.587 C 313.257 258.150,312.786 259.649,312.628 260.918 C 312.454 262.303,312.053 263.500,311.623 263.913 C 311.229 264.291,310.785 265.273,310.636 266.095 C 310.478 266.970,310.041 267.764,309.583 268.009 C 309.152 268.240,308.800 268.772,308.800 269.191 C 308.800 269.611,308.466 270.190,308.057 270.477 C 307.649 270.765,307.196 271.375,307.052 271.832 C 306.706 272.928,301.742 277.901,300.651 278.246 C 300.183 278.394,299.565 278.849,299.277 279.257 C 298.990 279.666,298.566 280.000,298.335 280.000 C 298.104 280.000,297.381 280.450,296.727 281.000 C 296.073 281.550,295.159 282.000,294.695 282.000 C 294.231 282.000,293.446 282.381,292.951 282.846 C 292.393 283.370,291.316 283.770,290.125 283.896 C 289.066 284.008,287.840 284.425,287.400 284.822 C 286.818 285.349,285.620 285.621,283.000 285.825 C 281.020 285.979,279.206 286.257,278.969 286.444 C 277.126 287.896,258.880 287.906,257.046 286.456 C 256.801 286.262,254.800 285.978,252.600 285.825 C 250.124 285.653,248.242 285.315,247.659 284.938 C 247.142 284.602,245.548 284.162,244.117 283.960 C 242.601 283.745,241.093 283.259,240.504 282.796 C 239.947 282.358,238.900 282.000,238.177 282.000 C 237.357 282.000,236.413 281.623,235.673 281.000 C 235.019 280.450,234.119 280.000,233.673 280.000 C 233.227 280.000,232.327 279.550,231.673 279.000 C 231.019 278.450,230.305 278.000,230.085 278.000 C 229.296 278.000,229.200 276.565,229.200 264.796 C 229.200 252.209,229.358 251.115,231.084 251.777 C 231.404 251.900,232.087 252.000,232.602 252.000 C 233.117 252.000,234.073 252.450,234.727 253.000 C 235.381 253.550,236.340 254.001,236.858 254.001 C 237.376 254.002,238.402 254.370,239.139 254.819 C 239.875 255.268,241.393 255.809,242.511 256.021 C 243.629 256.233,244.827 256.649,245.172 256.946 C 245.533 257.256,247.822 257.694,250.558 257.978 C 255.603 258.500,256.400 258.672,256.400 259.243 C 256.400 259.759,270.299 259.703,270.471 259.186 C 270.547 258.958,272.137 258.481,274.005 258.124 C 275.956 257.752,277.751 257.162,278.226 256.738 C 278.680 256.332,279.247 256.000,279.486 256.000 C 280.288 256.000,282.738 253.191,283.008 251.962 C 283.155 251.293,283.528 250.649,283.838 250.530 C 284.623 250.229,284.658 241.785,283.876 241.484 C 283.587 241.374,283.136 240.565,282.874 239.688 C 282.571 238.677,282.103 238.016,281.598 237.884 C 281.159 237.769,280.800 237.417,280.800 237.101 C 280.800 236.786,280.089 236.294,279.221 236.007 C 278.352 235.720,277.555 235.260,277.449 234.984 C 277.344 234.709,276.348 234.358,275.236 234.205 C 274.125 234.052,272.807 233.608,272.308 233.218 C 271.759 232.790,270.291 232.393,268.600 232.217 C 267.060 232.057,265.260 231.606,264.600 231.214 C 263.940 230.822,262.351 230.400,261.069 230.276 C 259.787 230.153,258.257 229.733,257.669 229.345 C 257.081 228.956,255.575 228.515,254.322 228.365 C 252.947 228.201,251.617 227.757,250.968 227.246 C 250.376 226.781,249.466 226.400,248.946 226.400 C 248.426 226.400,247.661 226.061,247.246 225.646 C 246.832 225.232,245.842 224.678,245.046 224.415 C 244.251 224.153,243.600 223.768,243.600 223.560 C 243.600 223.353,243.145 222.975,242.588 222.722 C 241.442 222.200,236.804 217.906,236.793 217.358 C 236.789 217.161,236.339 216.576,235.793 216.058 C 235.247 215.540,234.800 214.872,234.800 214.574 C 234.800 214.275,234.456 213.709,234.035 213.316 C 233.615 212.922,233.147 211.937,232.996 211.128 C 232.845 210.318,232.480 209.563,232.186 209.450 C 231.605 209.227,230.806 206.791,230.802 205.231 C 230.801 204.699,230.485 203.915,230.100 203.490 C 229.069 202.351,229.025 177.310,230.052 176.142 C 230.411 175.734,230.827 174.383,230.976 173.141 C 231.146 171.726,231.523 170.632,231.984 170.214 C 232.389 169.848,232.833 168.948,232.971 168.214 C 233.109 167.481,233.502 166.647,233.845 166.363 C 234.188 166.078,234.737 165.174,235.065 164.354 C 235.394 163.533,235.918 162.763,236.231 162.643 C 236.544 162.523,236.800 162.154,236.800 161.822 C 236.800 161.490,237.250 160.924,237.800 160.563 C 238.350 160.203,238.800 159.659,238.800 159.354 C 238.800 159.049,238.975 158.800,239.189 158.800 C 239.404 158.800,240.377 158.002,241.351 157.028 C 242.326 156.053,243.861 154.879,244.762 154.419 C 245.663 153.960,246.400 153.427,246.400 153.235 C 246.400 153.044,246.868 152.769,247.440 152.626 C 248.012 152.482,248.975 151.999,249.579 151.552 C 250.183 151.106,251.425 150.640,252.339 150.518 C 253.252 150.395,254.000 150.167,254.000 150.012 C 254.000 149.469,256.049 148.800,257.719 148.798 C 258.643 148.796,259.940 148.499,260.600 148.137 C 262.773 146.945,274.319 146.459,283.137 147.188 " stroke="none" fill="#04242c" fill-rule="evenodd"></path><path id="path3" d="M17.462 17.531 C 16.465 18.634,16.435 380.574,17.433 380.957 C 18.802 381.483,380.610 381.227,381.326 380.700 C 382.452 379.872,382.165 18.887,381.038 17.642 L 380.276 16.800 199.200 16.800 C 24.285 16.800,18.101 16.825,17.462 17.531 M380.943 19.500 C 381.508 22.918,381.227 379.880,380.658 380.351 C 380.259 380.683,332.554 380.775,198.958 380.700 L 17.800 380.600 17.698 199.800 C 17.641 100.360,17.681 18.775,17.785 18.500 C 17.937 18.101,54.615 18.000,199.335 18.000 L 380.695 18.000 380.943 19.500 M104.800 103.092 C 104.470 103.217,104.068 103.518,103.906 103.760 C 103.288 104.685,103.547 283.375,104.167 284.224 C 104.838 285.141,131.968 285.673,133.599 284.801 C 134.390 284.377,134.400 283.979,134.400 252.609 L 134.400 220.845 135.289 220.223 C 136.043 219.695,137.901 219.600,147.512 219.600 C 153.746 219.600,160.051 219.429,161.523 219.220 C 162.995 219.010,166.270 218.631,168.800 218.377 C 171.330 218.123,173.735 217.737,174.144 217.520 C 174.554 217.302,176.154 216.774,177.701 216.345 C 179.248 215.916,180.888 215.303,181.346 214.983 C 181.804 214.662,182.470 214.400,182.828 214.400 C 183.185 214.400,183.887 214.045,184.386 213.612 C 184.886 213.178,185.657 212.709,186.100 212.568 C 188.374 211.846,195.437 206.189,197.311 203.587 C 197.703 203.044,198.559 201.880,199.215 201.000 C 201.361 198.118,202.800 195.966,202.800 195.636 C 202.800 195.457,203.248 194.652,203.795 193.845 C 204.342 193.039,204.902 191.934,205.039 191.389 C 205.175 190.844,205.628 189.730,206.044 188.914 C 206.460 188.098,206.800 187.193,206.800 186.903 C 206.800 186.613,207.250 185.307,207.800 184.000 C 208.350 182.693,208.800 181.033,208.800 180.311 C 208.800 179.588,209.165 177.738,209.610 176.199 C 211.563 169.450,211.606 148.624,209.682 141.000 C 209.238 139.240,208.690 137.080,208.465 136.200 C 207.335 131.779,203.296 122.827,202.075 122.035 C 201.875 121.906,201.425 121.260,201.074 120.600 C 199.466 117.573,194.856 113.455,188.800 109.633 C 187.660 108.913,182.935 106.800,182.467 106.800 C 182.209 106.800,181.325 106.440,180.504 106.000 C 179.684 105.560,178.448 105.200,177.758 105.200 C 177.068 105.200,175.423 104.855,174.101 104.432 C 169.784 103.053,108.039 101.859,104.800 103.092 M170.600 104.523 C 171.700 104.888,174.040 105.383,175.800 105.624 C 177.560 105.865,179.282 106.316,179.626 106.626 C 179.971 106.937,180.871 107.306,181.626 107.448 C 182.382 107.589,183.540 108.020,184.200 108.404 C 184.860 108.788,186.088 109.323,186.928 109.592 C 187.768 109.861,188.553 110.332,188.671 110.640 C 188.789 110.948,189.100 111.200,189.363 111.200 C 189.625 111.200,190.982 112.055,192.378 113.100 C 193.774 114.145,195.180 115.180,195.503 115.400 C 196.455 116.048,198.400 118.036,198.400 118.361 C 198.400 118.526,198.850 119.083,199.400 119.600 C 199.950 120.117,200.400 120.754,200.400 121.015 C 200.400 121.277,200.817 121.920,201.326 122.445 C 201.836 122.970,202.488 123.985,202.775 124.700 C 203.062 125.415,203.448 126.000,203.633 126.000 C 203.818 126.000,204.161 126.712,204.395 127.582 C 204.629 128.452,205.089 129.432,205.417 129.760 C 205.744 130.087,206.191 131.300,206.410 132.454 C 206.629 133.609,207.082 134.970,207.416 135.480 C 207.750 135.990,208.202 137.834,208.421 139.577 C 208.639 141.320,209.075 143.361,209.389 144.112 C 210.626 147.074,210.532 172.194,209.278 173.706 C 209.039 173.994,208.646 175.820,208.404 177.765 C 208.163 179.709,207.613 181.991,207.183 182.834 C 206.752 183.678,206.400 184.849,206.400 185.437 C 206.400 186.025,206.062 187.067,205.649 187.753 C 205.235 188.439,204.672 189.720,204.398 190.600 C 204.123 191.480,203.690 192.470,203.434 192.800 C 203.178 193.130,202.655 194.030,202.271 194.800 C 201.213 196.925,200.248 198.541,199.767 198.993 C 199.529 199.217,198.638 200.390,197.787 201.600 C 195.665 204.617,189.271 210.400,188.058 210.400 C 187.874 210.400,187.413 210.744,187.033 211.164 C 186.652 211.584,185.874 212.045,185.302 212.189 C 184.731 212.332,183.835 212.786,183.313 213.197 C 182.790 213.608,181.786 214.067,181.081 214.217 C 180.377 214.367,179.530 214.723,179.200 215.009 C 178.870 215.296,177.581 215.717,176.335 215.945 C 175.090 216.173,173.380 216.659,172.535 217.025 C 170.544 217.887,161.601 218.348,146.280 218.378 L 134.759 218.400 134.180 219.787 C 133.691 220.957,133.599 225.981,133.595 251.887 C 133.592 268.779,133.481 283.005,133.348 283.500 L 133.107 284.400 119.679 284.400 C 106.443 284.400,106.238 284.388,105.326 283.530 L 104.400 282.661 104.400 193.358 L 104.400 104.056 105.300 103.865 C 108.105 103.270,168.659 103.881,170.600 104.523 M134.390 132.010 C 133.326 133.074,133.306 189.683,134.369 190.963 C 135.229 191.999,160.761 191.760,162.600 190.698 C 163.260 190.317,164.260 190.004,164.822 190.002 C 165.385 190.001,166.455 189.550,167.200 189.000 C 167.945 188.450,168.770 188.000,169.033 188.000 C 170.351 188.000,174.828 182.766,176.219 179.600 C 176.557 178.830,177.163 177.570,177.566 176.800 C 177.972 176.024,178.399 174.116,178.524 172.520 C 178.648 170.937,178.986 169.227,179.275 168.720 C 179.999 167.451,180.018 152.721,179.298 151.000 C 179.021 150.340,178.631 148.481,178.431 146.869 C 178.231 145.256,177.802 143.636,177.478 143.269 C 177.154 142.901,176.763 142.006,176.609 141.281 C 176.454 140.555,175.984 139.747,175.564 139.485 C 175.144 139.222,174.800 138.821,174.800 138.593 C 174.800 137.623,170.257 134.196,167.843 133.345 C 166.977 133.039,166.052 132.609,165.786 132.389 C 164.148 131.029,135.714 130.686,134.390 132.010 M161.200 132.377 C 168.242 133.287,174.789 137.606,176.037 142.164 C 176.273 143.024,176.726 144.126,177.045 144.613 C 179.372 148.164,179.184 171.326,176.791 176.018 C 176.356 176.871,175.997 177.890,175.993 178.284 C 175.986 178.982,174.512 181.431,172.700 183.755 C 172.205 184.390,171.740 185.065,171.667 185.255 C 171.593 185.445,171.278 185.600,170.967 185.600 C 170.655 185.600,170.400 185.789,170.400 186.020 C 170.400 186.250,169.725 186.748,168.900 187.126 C 168.075 187.504,166.950 188.112,166.400 188.477 C 163.657 190.297,137.540 191.919,135.200 190.415 C 134.216 189.782,134.087 133.218,135.069 132.500 C 135.871 131.914,156.847 131.815,161.200 132.377 M267.000 148.023 C 261.949 148.683,256.148 149.886,254.920 150.530 C 254.216 150.898,253.357 151.200,253.013 151.200 C 252.485 151.200,249.341 152.593,247.746 153.533 C 244.060 155.706,237.200 161.700,237.200 162.748 C 237.200 162.997,236.885 163.533,236.500 163.940 C 235.639 164.850,233.200 169.359,233.200 170.040 C 233.200 170.313,232.929 170.836,232.599 171.201 C 232.268 171.567,231.809 172.931,231.578 174.233 C 231.348 175.535,230.853 177.500,230.479 178.600 C 229.359 181.898,229.520 197.543,230.716 201.592 C 231.202 203.238,231.600 204.950,231.600 205.398 C 231.600 205.846,231.960 206.884,232.400 207.704 C 232.840 208.525,233.200 209.435,233.200 209.727 C 233.200 211.661,240.016 220.091,243.200 222.094 C 243.970 222.578,244.780 223.116,245.000 223.290 C 245.759 223.887,250.083 226.000,250.547 226.000 C 250.802 226.000,251.661 226.348,252.454 226.773 C 253.247 227.198,255.037 227.753,256.431 228.006 C 257.825 228.258,259.424 228.697,259.983 228.981 C 260.542 229.264,261.900 229.627,263.000 229.786 C 264.100 229.946,265.630 230.349,266.400 230.683 C 267.170 231.017,268.970 231.522,270.400 231.806 C 273.549 232.430,278.228 234.120,279.174 234.976 C 279.553 235.319,280.039 235.600,280.253 235.600 C 280.929 235.600,283.093 238.121,284.167 240.160 C 286.436 244.465,285.166 252.583,281.782 255.400 C 279.326 257.445,278.389 257.990,276.563 258.437 C 275.483 258.701,274.114 259.161,273.520 259.458 C 272.161 260.140,254.004 260.245,252.759 259.578 C 252.326 259.346,250.386 258.900,248.448 258.587 C 246.510 258.273,244.132 257.657,243.162 257.217 C 242.193 256.777,241.039 256.414,240.597 256.409 C 240.155 256.404,238.948 255.950,237.915 255.400 C 236.882 254.850,235.783 254.400,235.472 254.400 C 235.162 254.400,234.436 254.028,233.858 253.574 C 233.166 253.030,232.365 252.791,231.504 252.874 L 230.200 253.000 230.094 264.829 L 229.988 276.659 232.123 278.129 C 233.298 278.938,234.494 279.600,234.782 279.600 C 235.070 279.600,235.867 279.946,236.553 280.370 C 237.239 280.793,238.700 281.363,239.800 281.636 C 240.900 281.908,242.160 282.352,242.600 282.622 C 243.040 282.892,244.300 283.234,245.400 283.382 C 246.500 283.529,248.480 284.002,249.800 284.431 C 256.232 286.524,279.358 286.619,284.869 284.576 C 285.821 284.223,287.500 283.699,288.600 283.412 C 290.890 282.814,297.759 279.606,298.400 278.836 C 298.510 278.704,299.246 278.114,300.036 277.526 C 303.383 275.034,308.800 268.783,308.800 267.412 C 308.800 267.112,308.957 266.807,309.150 266.733 C 309.678 266.532,311.620 261.698,312.195 259.153 C 312.474 257.918,312.950 256.208,313.251 255.353 C 314.114 252.911,314.029 233.300,313.145 230.600 C 312.784 229.500,312.371 227.923,312.225 227.095 C 312.080 226.267,311.520 224.711,310.981 223.637 C 310.441 222.563,310.000 221.494,310.000 221.262 C 310.000 220.851,308.023 217.749,306.807 216.253 C 303.668 212.390,297.372 208.035,292.200 206.148 C 287.122 204.296,282.080 202.800,280.916 202.800 C 280.181 202.800,278.550 202.436,277.290 201.991 C 276.031 201.547,273.740 200.988,272.200 200.750 C 270.660 200.512,269.220 200.173,269.000 199.997 C 268.780 199.822,267.806 199.466,266.836 199.207 C 259.505 197.246,255.984 190.427,258.305 182.683 C 259.006 180.347,262.624 176.000,263.868 176.000 C 264.147 176.000,265.056 175.648,265.888 175.218 C 267.871 174.194,274.924 173.485,279.960 173.804 C 286.017 174.188,291.326 174.839,292.195 175.304 C 292.633 175.539,294.164 175.958,295.596 176.235 C 298.436 176.785,302.677 178.111,304.647 179.065 C 305.334 179.398,306.324 179.609,306.847 179.535 L 307.800 179.400 307.906 167.545 L 308.012 155.691 306.106 154.474 C 304.082 153.181,302.144 152.386,298.105 151.191 C 296.733 150.785,295.394 150.320,295.131 150.157 C 294.618 149.840,286.556 148.552,281.600 147.994 C 277.937 147.582,270.258 147.597,267.000 148.023 M285.043 149.320 C 288.799 149.680,292.016 150.220,293.545 150.749 C 294.897 151.217,296.443 151.600,296.980 151.600 C 297.518 151.600,298.804 152.050,299.838 152.600 C 300.873 153.150,302.072 153.600,302.504 153.600 C 302.935 153.600,304.168 154.170,305.244 154.867 L 307.200 156.135 307.200 167.021 C 307.200 177.401,307.164 177.916,306.436 178.107 C 305.550 178.338,301.185 177.216,300.360 176.545 C 300.052 176.294,298.810 175.960,297.600 175.802 C 296.390 175.645,294.590 175.189,293.600 174.791 C 292.610 174.393,290.450 173.957,288.800 173.823 C 287.150 173.688,284.450 173.375,282.800 173.127 C 274.166 171.829,264.418 173.680,260.908 177.284 C 258.810 179.438,258.033 180.538,257.772 181.726 C 257.620 182.420,257.225 183.401,256.895 183.905 C 256.220 184.934,256.369 189.987,257.100 190.894 C 257.324 191.172,257.631 191.976,257.781 192.679 C 258.337 195.280,263.155 199.564,265.553 199.590 C 266.077 199.595,267.089 199.960,267.801 200.401 C 268.533 200.853,270.207 201.316,271.648 201.464 C 273.052 201.608,274.568 201.964,275.019 202.256 C 275.469 202.547,277.262 202.984,279.002 203.226 C 280.743 203.468,282.666 203.924,283.277 204.240 C 283.887 204.555,285.244 204.924,286.293 205.058 C 287.342 205.193,288.740 205.625,289.400 206.018 C 290.060 206.411,291.277 206.858,292.103 207.012 C 292.930 207.165,294.010 207.605,294.503 207.990 C 294.997 208.375,295.850 208.830,296.400 209.001 C 296.950 209.172,297.850 209.657,298.400 210.078 C 301.872 212.735,302.566 213.200,303.055 213.200 C 303.355 213.200,303.600 213.373,303.600 213.584 C 303.600 213.795,304.031 214.380,304.558 214.884 C 306.107 216.365,309.484 221.688,309.967 223.411 C 310.212 224.285,310.680 225.349,311.006 225.776 C 311.333 226.204,311.602 227.014,311.605 227.576 C 311.607 228.139,311.978 230.040,312.428 231.800 C 313.760 237.009,313.963 247.895,312.816 252.600 C 312.334 254.580,311.784 257.254,311.594 258.541 C 311.404 259.829,310.988 261.179,310.669 261.541 C 310.350 261.904,309.959 262.830,309.800 263.600 C 309.641 264.370,309.268 265.277,308.971 265.615 C 308.674 265.953,308.151 266.898,307.810 267.715 C 307.469 268.532,307.024 269.200,306.822 269.200 C 306.619 269.200,306.342 269.553,306.205 269.985 C 305.870 271.041,299.726 277.200,299.009 277.200 C 298.696 277.200,298.296 277.447,298.120 277.748 C 297.944 278.049,297.047 278.677,296.127 279.142 C 295.207 279.608,294.341 280.171,294.204 280.394 C 294.066 280.617,293.666 280.800,293.315 280.800 C 292.964 280.800,291.738 281.244,290.591 281.787 C 289.444 282.330,287.716 282.895,286.753 283.043 C 285.789 283.190,284.464 283.582,283.808 283.913 C 280.750 285.458,254.494 285.438,251.400 283.889 C 250.740 283.558,249.043 283.166,247.629 283.016 C 246.216 282.867,244.416 282.421,243.629 282.026 C 242.843 281.631,241.480 281.179,240.600 281.020 C 239.720 280.862,238.460 280.408,237.800 280.012 C 237.140 279.616,236.150 279.159,235.600 278.998 C 230.914 277.622,230.812 277.312,230.805 264.300 L 230.800 253.600 231.751 253.600 C 232.274 253.600,232.922 253.865,233.191 254.189 C 233.460 254.514,234.337 254.897,235.140 255.043 C 235.943 255.188,236.922 255.642,237.316 256.053 C 237.709 256.464,238.537 256.800,239.156 256.800 C 239.775 256.800,241.073 257.220,242.040 257.734 C 243.008 258.248,244.868 258.794,246.174 258.946 C 247.479 259.099,248.739 259.378,248.974 259.566 C 250.990 261.180,272.365 261.288,275.678 259.700 C 276.711 259.205,277.853 258.800,278.215 258.800 C 279.220 258.800,283.600 255.380,283.600 254.595 C 283.600 254.302,284.088 253.481,284.685 252.773 C 286.265 250.894,286.317 241.254,284.757 239.212 C 282.366 236.081,278.928 233.200,277.584 233.200 C 277.095 233.200,276.128 232.850,275.435 232.422 C 274.743 231.994,272.951 231.448,271.454 231.209 C 269.957 230.969,268.342 230.530,267.866 230.233 C 267.390 229.935,266.029 229.572,264.842 229.424 C 263.655 229.277,262.033 228.825,261.238 228.419 C 260.442 228.014,258.714 227.552,257.396 227.395 C 256.078 227.237,254.460 226.790,253.800 226.403 C 253.140 226.015,251.943 225.581,251.140 225.438 C 250.337 225.295,249.485 224.943,249.246 224.655 C 249.007 224.367,248.089 223.893,247.206 223.602 C 246.323 223.310,245.600 222.925,245.600 222.746 C 245.600 222.567,245.064 222.143,244.408 221.804 C 242.898 221.023,238.035 216.494,237.547 215.414 C 237.206 214.660,235.676 212.357,234.864 211.377 C 234.671 211.145,234.281 210.245,233.998 209.377 C 233.714 208.510,233.149 207.173,232.741 206.406 C 232.334 205.639,231.992 204.199,231.982 203.206 C 231.973 202.213,231.712 200.690,231.403 199.822 C 229.882 195.552,229.786 182.705,231.255 179.910 C 231.454 179.531,231.794 177.821,232.011 176.110 C 232.228 174.400,232.583 172.940,232.801 172.867 C 233.019 172.794,233.476 171.774,233.817 170.601 C 234.158 169.427,234.687 168.259,234.993 168.006 C 235.299 167.752,235.665 167.016,235.807 166.369 C 235.949 165.722,236.410 165.009,236.833 164.783 C 237.255 164.557,237.600 164.105,237.600 163.779 C 237.600 162.838,245.707 155.200,246.706 155.200 C 246.924 155.200,247.318 154.939,247.583 154.620 C 247.848 154.302,248.725 153.829,249.532 153.570 C 250.339 153.311,251.283 152.853,251.628 152.553 C 251.973 152.252,253.188 151.830,254.328 151.614 C 255.467 151.398,256.973 150.924,257.673 150.562 C 258.474 150.148,260.739 149.764,263.773 149.528 C 266.428 149.321,269.050 148.991,269.600 148.795 C 270.848 148.351,277.142 148.565,285.043 149.320 " stroke="none" fill="#24748c" fill-rule="evenodd"></path><path id="path4" d="M380.800 200.000 L 380.600 380.200 199.138 380.200 C 99.334 380.200,17.760 380.335,17.862 380.500 C 18.233 381.101,380.252 380.860,380.751 380.258 C 381.083 379.859,381.174 332.467,381.100 199.758 L 381.000 19.800 380.800 200.000 M103.611 103.579 C 102.937 104.839,103.241 284.201,103.920 284.880 C 104.786 285.748,132.725 285.856,133.800 284.996 C 134.581 284.371,134.579 284.366,133.699 284.793 C 131.888 285.670,104.844 285.149,104.167 284.224 C 103.547 283.375,103.288 104.685,103.906 103.760 C 104.068 103.518,104.470 103.217,104.800 103.092 C 105.285 102.907,105.268 102.857,104.714 102.832 C 104.337 102.814,103.841 103.150,103.611 103.579 M163.491 103.089 C 164.201 103.177,165.461 103.179,166.291 103.092 C 167.121 103.005,166.540 102.933,165.000 102.931 C 163.460 102.929,162.781 103.000,163.491 103.089 M170.486 103.598 C 171.743 103.759,173.324 104.120,173.999 104.400 C 174.674 104.679,175.328 104.806,175.452 104.681 C 175.842 104.291,171.536 103.197,169.827 103.252 C 168.387 103.299,168.463 103.339,170.486 103.598 M180.504 106.000 C 181.325 106.440,182.220 106.800,182.493 106.800 C 182.765 106.800,182.316 106.440,181.496 106.000 C 180.675 105.560,179.780 105.200,179.507 105.200 C 179.235 105.200,179.684 105.560,180.504 106.000 M185.400 108.000 C 186.060 108.437,186.780 108.795,187.000 108.795 C 187.220 108.795,186.860 108.437,186.200 108.000 C 185.540 107.563,184.820 107.205,184.600 107.205 C 184.380 107.205,184.740 107.563,185.400 108.000 M189.178 109.726 C 189.488 110.126,190.295 110.736,190.971 111.082 C 191.647 111.428,192.290 111.822,192.400 111.956 C 192.510 112.090,193.410 112.798,194.400 113.528 L 196.200 114.857 194.400 113.206 C 193.410 112.297,192.060 111.273,191.400 110.929 C 190.740 110.585,189.843 110.010,189.407 109.652 C 188.658 109.036,188.645 109.040,189.178 109.726 M197.200 115.734 C 197.530 116.174,198.471 117.268,199.290 118.167 C 200.110 119.065,200.981 120.282,201.227 120.871 C 201.472 121.460,201.913 122.035,202.207 122.147 C 202.986 122.446,200.770 119.324,198.531 116.968 C 197.469 115.850,196.870 115.295,197.200 115.734 M202.807 123.040 C 202.811 123.238,203.351 124.192,204.007 125.160 C 204.663 126.128,205.197 126.758,205.193 126.560 C 205.189 126.362,204.649 125.408,203.993 124.440 C 203.337 123.472,202.803 122.842,202.807 123.040 M205.200 127.325 C 205.200 127.478,205.560 128.275,206.000 129.096 C 206.440 129.916,206.807 130.861,206.816 131.194 C 206.842 132.179,208.766 136.281,208.784 135.389 C 208.793 134.943,208.554 134.223,208.253 133.789 C 207.952 133.355,207.411 132.010,207.050 130.800 C 206.487 128.911,205.200 126.494,205.200 127.325 M135.069 132.500 C 134.087 133.218,134.216 189.786,135.200 190.409 C 136.366 191.145,136.896 190.790,135.854 189.971 L 134.800 189.142 134.800 160.971 C 134.800 145.477,134.845 132.762,134.900 132.715 C 134.955 132.668,140.580 132.527,147.400 132.403 L 159.800 132.177 147.776 132.089 C 138.667 132.021,135.587 132.121,135.069 132.500 M162.400 132.630 C 162.730 132.758,163.843 133.209,164.874 133.631 C 165.905 134.054,167.075 134.394,167.474 134.386 C 168.313 134.369,164.294 132.796,162.800 132.557 C 162.250 132.469,162.070 132.501,162.400 132.630 M169.598 135.300 C 171.649 136.631,174.788 139.885,175.418 141.333 C 175.728 142.046,175.976 142.300,175.984 141.915 C 176.017 140.472,170.164 134.532,168.606 134.427 C 168.389 134.412,168.835 134.805,169.598 135.300 M208.836 137.627 C 208.816 137.972,209.091 139.232,209.446 140.427 C 209.802 141.622,210.231 143.410,210.399 144.400 C 210.679 146.044,210.707 146.079,210.723 144.800 C 210.739 143.406,208.905 136.433,208.836 137.627 M176.000 143.107 C 176.000 143.380,176.360 144.275,176.800 145.096 C 177.240 145.916,177.600 146.365,177.600 146.093 C 177.600 145.820,177.240 144.925,176.800 144.104 C 176.360 143.284,176.000 142.835,176.000 143.107 M177.701 148.200 C 177.705 149.080,177.787 149.393,177.883 148.895 C 177.979 148.398,177.975 147.678,177.875 147.295 C 177.775 146.913,177.696 147.320,177.701 148.200 M266.600 147.621 C 265.280 147.785,263.570 148.115,262.800 148.353 L 261.400 148.786 263.000 148.569 C 268.687 147.796,270.653 147.636,274.400 147.643 C 278.106 147.649,281.818 147.940,286.400 148.582 L 287.800 148.778 286.400 148.352 C 283.090 147.346,272.075 146.939,266.600 147.621 M210.920 150.000 C 210.920 151.210,210.995 151.705,211.087 151.100 C 211.178 150.495,211.178 149.505,211.087 148.900 C 210.995 148.295,210.920 148.790,210.920 150.000 M291.905 149.483 C 292.402 149.579,293.122 149.575,293.505 149.475 C 293.887 149.375,293.480 149.296,292.600 149.301 C 291.720 149.305,291.407 149.387,291.905 149.483 M295.200 150.200 C 295.750 150.514,296.470 150.777,296.800 150.783 C 297.130 150.790,296.884 150.526,296.254 150.198 C 294.794 149.436,293.867 149.438,295.200 150.200 M178.309 157.600 C 178.395 161.890,178.526 165.580,178.601 165.800 C 178.864 166.575,178.717 154.172,178.437 152.000 C 178.281 150.790,178.224 153.310,178.309 157.600 M253.200 150.800 C 252.376 151.064,252.341 151.126,253.000 151.154 C 253.440 151.173,254.070 151.013,254.400 150.800 C 255.101 150.347,254.614 150.347,253.200 150.800 M299.400 151.552 C 300.500 151.951,301.760 152.417,302.200 152.588 L 303.000 152.898 302.200 152.312 C 301.263 151.625,298.958 150.794,298.040 150.813 C 297.688 150.820,298.300 151.153,299.400 151.552 M250.200 152.000 C 248.636 153.036,249.192 153.037,250.890 152.001 C 251.611 151.562,252.020 151.204,251.800 151.204 C 251.580 151.205,250.860 151.563,250.200 152.000 M247.176 153.429 C 246.889 153.775,246.011 154.400,245.227 154.817 C 244.442 155.234,243.170 156.143,242.400 156.836 C 240.884 158.202,241.658 157.771,245.142 155.312 C 246.320 154.480,247.670 153.578,248.142 153.306 C 248.791 152.932,248.841 152.810,248.349 152.806 C 247.991 152.803,247.463 153.083,247.176 153.429 M305.718 154.235 L 308.012 155.669 307.906 167.535 L 307.800 179.400 306.705 179.526 C 306.103 179.595,305.208 179.370,304.716 179.026 C 304.224 178.682,303.637 178.401,303.411 178.403 C 303.185 178.404,303.540 178.763,304.200 179.200 C 305.594 180.123,307.305 180.238,307.957 179.452 C 308.280 179.063,308.381 175.499,308.306 167.191 L 308.200 155.478 306.256 154.139 C 305.187 153.403,304.113 152.800,303.869 152.800 C 303.625 152.800,304.457 153.446,305.718 154.235 M236.842 162.600 C 236.174 163.590,235.797 164.400,236.005 164.400 C 236.213 164.400,236.743 163.697,237.181 162.837 C 237.620 161.977,238.208 161.181,238.489 161.068 C 238.838 160.928,238.850 160.853,238.528 160.832 C 238.269 160.814,237.510 161.610,236.842 162.600 M210.928 167.200 C 210.928 168.630,211.001 169.215,211.089 168.500 C 211.178 167.785,211.178 166.615,211.089 165.900 C 211.001 165.185,210.928 165.770,210.928 167.200 M234.289 166.781 C 233.690 167.846,233.204 168.871,233.209 169.059 C 233.214 169.247,233.774 168.445,234.454 167.279 C 235.134 166.112,235.620 165.087,235.534 165.001 C 235.448 164.915,234.888 165.716,234.289 166.781 M178.109 168.000 C 178.109 168.990,178.187 169.395,178.282 168.900 C 178.378 168.405,178.378 167.595,178.282 167.100 C 178.187 166.605,178.109 167.010,178.109 168.000 M177.701 171.400 C 177.705 172.280,177.787 172.593,177.883 172.095 C 177.979 171.598,177.975 170.878,177.875 170.495 C 177.775 170.113,177.696 170.520,177.701 171.400 M210.464 172.027 C 210.429 172.812,210.118 174.405,209.773 175.567 C 209.428 176.728,209.219 177.752,209.309 177.842 C 209.682 178.215,210.852 173.289,210.697 172.000 L 210.528 170.600 210.464 172.027 M176.633 175.233 C 176.213 176.097,175.961 176.894,176.072 177.006 C 176.184 177.117,176.601 176.484,177.000 175.600 C 177.945 173.505,177.628 173.189,176.633 175.233 M272.000 174.011 C 270.778 174.165,271.846 174.203,274.400 174.097 C 276.930 173.991,279.075 173.837,279.167 173.753 C 279.420 173.520,274.489 173.698,272.000 174.011 M281.111 174.293 C 282.051 174.378,283.491 174.377,284.311 174.291 C 285.130 174.205,284.360 174.136,282.600 174.137 C 280.840 174.139,280.170 174.209,281.111 174.293 M287.300 174.676 C 287.685 174.776,288.315 174.776,288.700 174.676 C 289.085 174.575,288.770 174.493,288.000 174.493 C 287.230 174.493,286.915 174.575,287.300 174.676 M265.424 175.413 C 264.996 175.736,264.827 176.000,265.047 176.000 C 265.267 176.000,265.796 175.736,266.224 175.413 C 266.651 175.090,266.820 174.825,266.600 174.825 C 266.380 174.825,265.851 175.090,265.424 175.413 M291.146 175.416 C 291.886 175.737,292.696 175.994,292.946 175.986 C 293.736 175.961,291.437 174.828,290.600 174.830 C 290.048 174.831,290.217 175.012,291.146 175.416 M230.274 177.909 C 229.901 178.949,229.627 180.610,229.665 181.600 L 229.734 183.400 229.884 181.800 C 229.966 180.920,230.314 179.333,230.657 178.274 C 231.472 175.760,231.153 175.456,230.274 177.909 M262.175 177.300 L 261.000 178.600 262.200 177.550 C 262.860 176.972,263.670 176.402,264.000 176.281 C 264.517 176.093,264.513 176.059,263.975 176.032 C 263.631 176.014,262.821 176.585,262.175 177.300 M298.800 177.362 C 300.010 177.915,301.360 178.369,301.800 178.371 C 302.240 178.373,301.610 178.011,300.400 177.568 C 297.032 176.334,296.362 176.248,298.800 177.362 M175.632 178.338 C 175.614 178.634,175.220 179.410,174.756 180.061 C 174.292 180.713,173.981 181.315,174.065 181.399 C 174.376 181.709,176.071 178.817,175.871 178.318 C 175.706 177.907,175.657 177.911,175.632 178.338 M258.008 183.765 C 257.684 185.116,257.588 186.811,257.753 188.270 C 258.292 193.027,258.600 192.634,258.600 187.192 C 258.600 184.117,258.584 181.600,258.564 181.600 C 258.544 181.600,258.294 182.574,258.008 183.765 M172.929 182.900 C 172.484 183.395,171.984 184.070,171.819 184.400 C 171.655 184.730,172.078 184.391,172.760 183.646 C 173.442 182.901,174.000 182.226,174.000 182.146 C 174.000 181.830,173.705 182.038,172.929 182.900 M207.901 183.686 C 207.516 184.593,207.268 185.401,207.349 185.482 C 207.575 185.708,208.871 182.812,208.727 182.400 C 208.657 182.201,208.285 182.779,207.901 183.686 M206.846 186.615 C 206.821 187.064,206.443 188.132,206.006 188.988 C 205.569 189.845,205.279 190.612,205.360 190.694 C 205.678 191.011,207.252 187.178,207.078 186.509 C 206.922 185.911,206.886 185.928,206.846 186.615 M229.342 189.400 C 229.341 191.380,229.408 192.240,229.492 191.312 C 229.576 190.384,229.577 188.764,229.495 187.712 C 229.412 186.660,229.343 187.420,229.342 189.400 M166.183 188.028 C 166.037 188.263,165.532 188.612,165.059 188.803 C 164.443 189.051,164.385 189.156,164.856 189.175 C 165.216 189.189,165.936 188.846,166.456 188.413 C 166.975 187.981,167.186 187.621,166.924 187.613 C 166.662 187.606,166.328 187.793,166.183 188.028 M160.903 189.623 C 159.969 189.807,158.889 190.159,158.503 190.406 C 157.908 190.786,157.954 190.815,158.800 190.596 C 159.350 190.454,160.700 190.155,161.800 189.933 C 162.900 189.711,163.875 189.455,163.967 189.365 C 164.210 189.124,162.847 189.239,160.903 189.623 M203.623 194.055 C 203.172 194.795,202.810 195.580,202.818 195.800 C 202.825 196.020,203.121 195.660,203.474 195.000 C 203.827 194.340,204.310 193.675,204.547 193.522 C 204.783 193.369,204.857 193.123,204.710 192.977 C 204.563 192.830,204.074 193.315,203.623 194.055 M259.045 193.600 C 259.847 195.186,261.125 196.513,262.695 197.391 C 263.643 197.921,264.312 198.182,264.182 197.971 C 264.052 197.761,263.238 197.227,262.373 196.786 C 261.508 196.345,260.799 195.852,260.798 195.692 C 260.797 195.531,260.334 194.860,259.769 194.200 C 259.204 193.540,258.879 193.270,259.045 193.600 M229.795 198.400 C 229.882 199.830,230.226 201.630,230.561 202.400 C 231.273 204.041,231.387 203.598,230.767 201.597 C 230.529 200.829,230.177 199.210,229.986 198.000 L 229.638 195.800 229.795 198.400 M200.400 199.435 C 198.406 202.253,196.757 204.246,194.501 206.568 C 193.175 207.932,192.840 208.399,193.711 207.670 C 196.970 204.942,202.662 197.883,201.500 198.011 C 201.445 198.017,200.950 198.658,200.400 199.435 M267.200 199.267 C 267.970 199.485,268.771 199.829,268.980 200.031 C 269.189 200.234,269.639 200.385,269.980 200.368 C 270.887 200.320,267.545 198.816,266.600 198.847 C 266.152 198.861,266.416 199.046,267.200 199.267 M276.000 201.567 C 278.538 202.498,279.451 202.613,277.992 201.819 C 277.437 201.518,276.267 201.156,275.392 201.016 C 273.950 200.785,274.008 200.837,276.000 201.567 M284.185 203.400 C 285.056 203.710,285.846 203.887,285.940 203.793 C 286.177 203.557,284.098 202.796,283.274 202.818 C 282.903 202.827,283.313 203.089,284.185 203.400 M290.760 205.616 C 291.727 206.055,292.589 206.345,292.674 206.259 C 292.890 206.044,290.199 204.798,289.540 204.809 C 289.243 204.814,289.792 205.177,290.760 205.616 M231.603 206.806 C 231.604 207.133,231.963 207.940,232.400 208.600 C 233.428 210.152,233.428 209.622,232.400 207.704 C 231.960 206.884,231.601 206.479,231.603 206.806 M295.400 207.600 C 296.500 208.252,297.566 208.789,297.769 208.793 C 297.971 208.797,298.511 209.109,298.969 209.487 C 299.667 210.064,299.704 210.067,299.200 209.511 C 298.623 208.875,294.193 206.393,293.659 206.407 C 293.517 206.411,294.300 206.948,295.400 207.600 M190.241 210.027 C 189.383 210.672,188.850 211.200,189.056 211.200 C 189.262 211.200,190.053 210.667,190.815 210.016 C 192.587 208.502,192.261 208.508,190.241 210.027 M300.000 210.132 C 300.000 210.205,300.855 210.863,301.900 211.595 C 302.945 212.327,304.117 213.303,304.505 213.763 C 305.022 214.377,305.147 214.419,304.971 213.922 C 304.629 212.954,300.000 209.425,300.000 210.132 M233.200 210.693 C 233.200 210.913,233.535 211.521,233.943 212.046 C 234.352 212.571,234.977 213.540,235.331 214.200 C 236.147 215.721,237.869 217.841,237.240 216.551 C 236.538 215.111,233.200 210.270,233.200 210.693 M187.796 211.606 C 187.658 211.829,186.921 212.273,186.159 212.592 C 184.716 213.194,183.242 214.400,183.948 214.400 C 184.171 214.400,184.473 214.205,184.620 213.967 C 184.768 213.729,185.678 213.195,186.644 212.781 C 187.610 212.367,188.400 211.842,188.400 211.614 C 188.400 211.087,188.120 211.083,187.796 211.606 M181.374 214.963 C 180.932 215.273,179.677 215.815,178.585 216.167 C 176.824 216.736,176.772 216.782,178.120 216.582 C 179.658 216.354,183.802 214.400,182.749 214.400 C 182.435 214.400,181.816 214.653,181.374 214.963 M306.222 215.490 C 306.615 216.089,307.265 216.933,307.668 217.365 C 308.071 217.797,308.400 218.327,308.400 218.542 C 308.400 218.757,308.514 218.819,308.653 218.680 C 308.793 218.541,308.216 217.521,307.371 216.413 C 305.717 214.245,305.060 213.717,306.222 215.490 M174.400 217.400 C 173.759 217.766,173.624 217.977,174.024 217.986 C 174.366 217.994,174.996 217.736,175.424 217.413 C 176.418 216.661,175.709 216.652,174.400 217.400 M171.300 218.276 C 171.685 218.376,172.315 218.376,172.700 218.276 C 173.085 218.175,172.770 218.093,172.000 218.093 C 171.230 218.093,170.915 218.175,171.300 218.276 M238.919 218.760 C 239.700 219.931,243.118 222.800,243.733 222.800 C 243.978 222.800,243.733 222.504,243.189 222.141 C 242.645 221.779,241.318 220.654,240.240 219.641 C 239.162 218.629,238.568 218.232,238.919 218.760 M161.000 219.223 C 160.120 219.405,154.175 219.564,147.789 219.577 C 137.953 219.596,136.042 219.695,135.289 220.223 L 134.400 220.845 134.498 252.523 L 134.595 284.200 134.700 252.618 C 134.771 231.387,134.941 220.898,135.222 220.618 C 135.482 220.356,140.534 220.097,148.719 219.925 C 155.914 219.774,162.970 219.486,164.400 219.286 L 167.000 218.922 164.800 218.907 C 163.590 218.899,161.880 219.041,161.000 219.223 M310.813 223.500 C 310.820 223.665,311.090 224.149,311.413 224.576 C 311.736 225.004,312.021 225.724,312.046 226.176 C 312.082 226.811,312.134 226.846,312.271 226.327 C 312.368 225.957,312.163 225.102,311.814 224.427 C 311.206 223.252,310.786 222.862,310.813 223.500 M247.362 225.000 C 248.172 225.550,249.053 225.994,249.318 225.988 C 249.855 225.974,246.808 224.005,246.244 224.002 C 246.048 224.001,246.551 224.450,247.362 225.000 M251.600 226.590 C 251.600 227.012,254.100 228.036,254.727 227.871 C 255.246 227.734,255.211 227.682,254.576 227.646 C 254.124 227.621,253.404 227.336,252.976 227.013 C 252.195 226.421,251.600 226.239,251.600 226.590 M312.422 228.326 C 312.410 228.616,312.587 229.201,312.814 229.627 C 313.042 230.053,313.380 231.436,313.566 232.701 C 313.899 234.974,313.903 234.979,313.929 233.200 C 313.952 231.648,312.483 226.897,312.422 228.326 M258.800 229.000 C 259.350 229.314,260.070 229.572,260.400 229.572 C 260.747 229.572,260.578 229.330,260.000 229.000 C 259.450 228.686,258.730 228.428,258.400 228.428 C 258.053 228.428,258.222 228.670,258.800 229.000 M265.000 230.644 C 267.507 231.598,268.360 231.689,266.600 230.815 C 265.720 230.378,264.640 230.024,264.200 230.028 C 263.739 230.032,264.079 230.293,265.000 230.644 M268.900 231.876 C 269.285 231.976,269.915 231.976,270.300 231.876 C 270.685 231.775,270.370 231.693,269.600 231.693 C 268.830 231.693,268.515 231.775,268.900 231.876 M273.000 232.800 C 273.880 233.225,274.870 233.575,275.200 233.578 C 275.530 233.580,275.015 233.226,274.056 232.791 C 271.812 231.773,270.890 231.781,273.000 232.800 M314.169 243.200 C 314.169 247.710,314.227 249.555,314.298 247.300 C 314.370 245.045,314.370 241.355,314.298 239.100 C 314.227 236.845,314.169 238.690,314.169 243.200 M280.919 236.504 C 282.483 238.109,283.446 238.615,282.022 237.083 C 281.263 236.267,280.507 235.600,280.341 235.600 C 280.174 235.600,280.435 236.007,280.919 236.504 M284.909 243.600 C 284.909 244.590,284.987 244.995,285.082 244.500 C 285.178 244.005,285.178 243.195,285.082 242.700 C 284.987 242.205,284.909 242.610,284.909 243.600 M284.901 248.600 C 284.905 249.480,284.987 249.793,285.083 249.295 C 285.179 248.798,285.175 248.078,285.075 247.695 C 284.975 247.313,284.896 247.720,284.901 248.600 M313.670 252.850 C 313.631 253.647,313.330 255.065,313.000 256.000 C 312.128 258.472,312.306 258.939,313.242 256.633 C 313.740 255.405,313.983 254.052,313.890 253.033 L 313.740 251.400 313.670 252.850 M230.100 252.665 C 229.716 252.820,229.600 255.627,229.600 264.796 L 229.600 276.725 231.639 278.190 C 232.761 278.996,233.741 279.592,233.818 279.515 C 233.895 279.438,233.065 278.766,231.973 278.021 L 229.988 276.667 230.094 264.833 L 230.200 253.000 231.600 252.753 C 232.931 252.518,232.941 252.504,231.800 252.484 C 231.140 252.473,230.375 252.554,230.100 252.665 M281.578 255.077 C 280.527 256.204,280.430 256.410,281.171 255.948 C 282.045 255.402,283.546 253.600,283.127 253.600 C 283.034 253.600,282.337 254.265,281.578 255.077 M237.510 255.201 C 238.230 255.641,238.950 255.996,239.110 255.991 C 239.668 255.974,237.394 254.418,236.800 254.410 C 236.470 254.406,236.789 254.762,237.510 255.201 M243.144 257.209 C 245.411 258.238,246.220 258.232,244.296 257.200 C 243.475 256.760,242.487 256.404,242.101 256.409 C 241.716 256.414,242.185 256.774,243.144 257.209 M275.400 258.286 C 274.960 258.392,274.060 258.721,273.400 259.016 C 272.740 259.312,271.750 259.630,271.200 259.722 C 270.248 259.883,270.254 259.894,271.326 259.946 C 271.946 259.975,272.845 259.790,273.324 259.534 C 273.803 259.277,275.006 258.843,275.998 258.569 C 277.679 258.105,277.164 257.860,275.400 258.286 M249.600 258.660 C 250.150 258.750,251.357 259.100,252.283 259.438 C 253.209 259.777,254.559 259.980,255.283 259.891 C 256.504 259.740,256.482 259.723,254.980 259.664 C 254.089 259.629,253.175 259.415,252.949 259.189 C 252.724 258.964,251.653 258.715,250.569 258.638 C 249.486 258.560,249.050 258.570,249.600 258.660 M312.046 260.116 C 312.021 260.510,311.627 261.562,311.172 262.455 C 310.717 263.347,310.415 264.149,310.503 264.236 C 310.827 264.560,312.451 260.770,312.275 260.098 C 312.106 259.449,312.090 259.450,312.046 260.116 M305.253 272.612 C 304.513 273.596,303.754 274.400,303.567 274.400 C 303.381 274.400,303.026 274.805,302.778 275.300 C 302.531 275.795,303.334 275.124,304.564 273.808 C 306.441 271.800,307.189 270.752,306.700 270.812 C 306.645 270.819,305.994 271.629,305.253 272.612 M300.400 277.260 C 299.630 277.935,299.362 278.305,299.804 278.081 C 300.535 277.711,302.347 275.978,301.962 276.016 C 301.873 276.025,301.170 276.585,300.400 277.260 M236.200 280.610 C 237.080 281.152,238.052 281.597,238.360 281.598 C 238.667 281.599,238.073 281.150,237.038 280.600 C 234.633 279.321,234.117 279.327,236.200 280.610 M295.241 280.634 C 294.493 281.165,294.053 281.600,294.263 281.600 C 294.473 281.600,295.255 281.150,296.000 280.600 C 297.735 279.320,297.047 279.351,295.241 280.634 M241.776 282.613 C 242.204 282.936,242.733 283.200,242.953 283.200 C 243.173 283.200,243.004 282.936,242.576 282.613 C 242.149 282.290,241.620 282.025,241.400 282.025 C 241.180 282.025,241.349 282.290,241.776 282.613 M291.200 282.600 C 290.512 282.993,290.403 283.176,290.851 283.186 C 291.209 283.194,291.726 282.930,292.000 282.600 C 292.609 281.866,292.484 281.866,291.200 282.600 M247.000 283.971 C 247.660 284.131,248.606 284.479,249.102 284.746 C 249.598 285.012,251.218 285.306,252.702 285.398 L 255.400 285.565 253.000 285.211 C 251.680 285.017,249.931 284.575,249.113 284.229 C 248.295 283.883,247.215 283.618,246.713 283.641 C 245.975 283.674,246.031 283.738,247.000 283.971 M285.925 284.216 C 285.334 284.537,283.894 284.974,282.725 285.186 L 280.600 285.574 282.600 285.415 C 284.399 285.272,289.049 283.607,287.600 283.625 C 287.270 283.629,286.516 283.895,285.925 284.216 M259.400 285.865 C 260.500 285.948,261.767 286.202,262.216 286.430 C 263.162 286.911,272.406 286.673,276.400 286.065 L 279.000 285.669 276.200 285.884 C 272.764 286.148,263.988 286.159,260.200 285.904 C 258.660 285.800,258.300 285.783,259.400 285.865 " stroke="none" fill="#1c5971" fill-rule="evenodd"></path></g></svg>