<svg id="레이어_1" data-name="레이어 1" xmlns="http://www.w3.org/2000/svg" viewBox="0 0 257.86 220.26"><defs><style>.cls-1{fill:#e6e6e6;}</style></defs><title>quotes</title><path class="cls-1" d="M236.83,299.43c0,30.4-24.51,52.95-55.88,52.95s-59.81-23.54-59.81-73.54c0-54.9,27.45-109.81,86.28-145.1,18.63-7.85,28.43,14.7,11.77,26.47C199.58,172,180,199.43,176.05,222c-3.93,15.68,5.88,23.53,17.64,24.51C225.07,254.33,236.83,272,236.83,299.43Zm142.17,0c0,30.4-22.55,52.95-54.91,52.95-31.37,0-59.8-23.54-59.8-73.54,0-54.9,26.47-109.81,85.3-145.1,18.62-7.85,29.41,14.7,12.74,26.47C342.72,172,323.11,199.43,318.21,222c-3.92,15.68,6.86,23.53,17.65,24.51C368.21,254.33,379,272,379,299.43Z" transform="translate(-121.14 -132.11)"/></svg>