<svg id="svg" version="1.1" xmlns="http://www.w3.org/2000/svg" xmlns:xlink="http://www.w3.org/1999/xlink" width="400" height="389.3333333333333" viewBox="0, 0, 400,389.3333333333333"><g id="svgg"><path id="path0" d="M0.000 194.742 L 0.000 389.484 200.000 389.484 L 400.000 389.484 400.000 194.742 L 400.000 0.000 200.000 0.000 L 0.000 0.000 0.000 194.742 M382.998 16.682 C 383.586 17.332,383.841 158.059,383.642 371.832 C 383.640 373.623,395.461 373.515,199.972 373.515 C 18.046 373.515,17.525 373.513,16.748 372.736 C 15.516 371.504,15.516 17.980,16.748 16.748 C 17.922 15.573,381.935 15.508,382.998 16.682 M78.612 92.953 C 77.577 93.237,77.287 95.813,78.289 95.813 C 78.455 95.813,78.712 96.294,78.860 96.882 C 79.007 97.470,79.291 98.147,79.490 98.387 C 80.124 99.151,84.518 107.988,84.518 108.499 C 84.518 108.769,84.660 109.049,84.833 109.120 C 85.006 109.192,86.595 112.142,88.363 115.677 C 91.722 122.389,92.052 123.031,92.708 124.148 C 92.929 124.523,93.210 125.126,93.332 125.488 C 93.454 125.850,94.053 127.077,94.662 128.214 C 95.271 129.352,98.422 135.540,101.664 141.967 C 104.906 148.393,107.709 153.914,107.893 154.236 C 108.077 154.557,108.688 155.784,109.251 156.962 C 109.813 158.140,110.438 159.411,110.638 159.786 C 110.839 160.161,111.167 160.774,111.368 161.149 C 111.569 161.524,112.202 162.795,112.775 163.973 C 113.347 165.151,113.958 166.378,114.130 166.699 C 114.303 167.020,115.809 170.000,117.477 173.320 C 119.145 176.641,120.755 179.653,121.053 180.015 C 121.788 180.904,121.741 183.335,120.974 184.183 C 120.631 184.562,120.351 185.154,120.351 185.499 C 120.351 185.845,120.186 186.229,119.984 186.354 C 119.782 186.478,118.990 187.847,118.222 189.395 C 117.455 190.944,115.353 195.015,113.552 198.442 C 111.751 201.870,109.726 205.767,109.052 207.104 C 108.378 208.440,107.665 209.634,107.467 209.756 C 107.270 209.878,107.108 210.305,107.108 210.706 C 107.108 211.106,106.889 211.666,106.621 211.949 C 106.353 212.232,105.290 214.129,104.257 216.164 C 103.225 218.199,102.217 220.170,102.018 220.545 C 101.181 222.119,100.813 222.825,98.310 227.653 C 94.749 234.526,92.887 238.081,91.936 239.825 C 91.732 240.200,90.999 241.646,90.307 243.038 C 89.615 244.430,88.906 245.628,88.731 245.699 C 88.556 245.771,88.401 246.121,88.387 246.478 C 88.373 246.835,87.862 248.004,87.253 249.075 C 86.182 250.955,84.416 254.328,80.418 262.123 C 79.375 264.158,78.394 265.912,78.240 266.021 C 78.085 266.131,77.840 266.693,77.695 267.271 C 77.550 267.849,77.185 268.526,76.885 268.776 C 76.585 269.025,76.339 269.821,76.339 270.544 L 76.339 271.860 90.697 271.860 C 107.215 271.860,106.294 272.062,108.109 268.032 C 108.656 266.817,109.268 265.560,109.470 265.239 C 109.671 264.917,110.018 264.216,110.241 263.681 C 110.463 263.145,111.148 261.655,111.763 260.370 C 115.023 253.558,116.066 251.253,116.066 250.866 C 116.066 250.631,116.241 250.438,116.456 250.438 C 116.670 250.438,116.845 250.246,116.845 250.010 C 116.845 249.775,117.563 248.066,118.441 246.213 C 121.509 239.736,123.654 235.074,124.023 234.080 C 124.143 233.759,124.396 233.233,124.586 232.911 C 124.776 232.590,125.315 231.451,125.784 230.380 C 126.252 229.309,126.863 227.994,127.140 227.459 C 127.418 226.923,127.760 226.003,127.900 225.414 C 128.040 224.825,128.327 224.343,128.537 224.343 C 128.747 224.343,128.919 224.058,128.919 223.709 C 128.919 223.360,129.547 221.739,130.315 220.106 C 131.706 217.145,132.027 216.450,134.382 211.295 C 136.597 206.445,137.022 205.466,137.256 204.674 C 138.168 201.588,139.635 201.305,140.953 203.960 C 141.467 204.995,142.038 206.105,142.222 206.426 C 142.406 206.748,142.658 207.274,142.783 207.595 C 142.907 207.916,143.344 208.816,143.754 209.595 C 144.163 210.374,144.499 211.294,144.499 211.640 C 144.499 211.986,144.662 212.269,144.862 212.269 C 145.062 212.269,145.339 212.663,145.478 213.145 C 145.617 213.627,146.613 215.862,147.690 218.111 C 148.768 220.360,150.490 223.953,151.517 226.095 C 152.544 228.238,154.259 231.831,155.327 234.080 C 164.252 252.868,166.941 258.485,167.820 260.175 C 169.472 263.352,169.815 264.089,169.815 264.467 C 169.815 264.708,170.078 265.168,170.399 265.489 C 170.721 265.810,170.983 266.390,170.983 266.777 C 170.983 267.164,171.246 267.698,171.568 267.965 C 171.889 268.232,172.152 268.678,172.152 268.956 C 172.152 269.235,172.606 270.002,173.160 270.661 L 174.169 271.860 189.713 271.860 L 205.258 271.860 205.258 270.934 C 205.258 270.425,204.055 267.664,202.584 264.800 C 201.113 261.935,199.522 258.802,199.048 257.838 C 198.573 256.874,198.035 255.823,197.852 255.501 C 197.669 255.180,196.710 253.340,195.721 251.412 C 194.732 249.484,193.729 247.556,193.492 247.128 C 192.891 246.041,192.703 245.680,190.458 241.285 C 189.363 239.143,188.274 237.040,188.038 236.611 C 187.352 235.368,187.162 234.996,183.800 228.322 C 182.042 224.834,180.475 221.900,180.316 221.802 C 180.158 221.704,179.907 221.142,179.759 220.553 C 179.611 219.964,179.365 219.393,179.212 219.283 C 179.059 219.174,178.093 217.420,177.066 215.385 C 176.039 213.350,173.652 208.705,171.762 205.063 C 169.873 201.422,167.486 196.777,166.459 194.742 C 165.432 192.707,164.466 190.952,164.313 190.843 C 164.160 190.734,163.916 190.172,163.771 189.593 C 163.626 189.015,163.261 188.338,162.961 188.089 C 162.661 187.840,162.415 187.328,162.415 186.952 C 162.415 186.576,162.163 186.060,161.856 185.805 C 161.548 185.549,161.184 184.827,161.046 184.199 C 160.908 183.571,160.675 183.057,160.528 183.057 C 160.382 183.057,159.861 182.213,159.370 181.180 L 158.479 179.302 160.811 174.851 C 162.094 172.402,163.712 169.260,164.408 167.868 C 165.104 166.475,165.816 165.278,165.991 165.206 C 166.166 165.135,166.310 164.814,166.310 164.493 C 166.310 164.172,166.882 162.916,167.581 161.701 C 168.280 160.487,169.343 158.530,169.942 157.352 C 170.542 156.173,171.224 154.859,171.459 154.430 C 172.183 153.108,172.443 152.600,174.355 148.783 C 175.374 146.748,176.303 144.995,176.419 144.888 C 176.536 144.781,177.476 143.028,178.508 140.993 C 180.839 136.398,180.891 136.298,181.420 135.346 C 181.658 134.917,182.419 133.427,183.111 132.035 C 183.802 130.643,184.511 129.445,184.686 129.374 C 184.862 129.302,185.017 128.952,185.031 128.595 C 185.045 128.238,185.558 127.069,186.171 125.998 C 186.784 124.927,188.092 122.473,189.079 120.545 C 191.468 115.877,193.495 112.151,193.933 111.623 C 194.129 111.387,194.411 110.712,194.558 110.124 C 194.706 109.537,194.964 109.056,195.131 109.056 C 195.299 109.056,195.557 108.574,195.705 107.987 C 195.852 107.399,196.126 106.733,196.313 106.508 C 196.666 106.083,199.383 100.978,201.578 96.618 C 203.654 92.492,204.326 92.697,188.768 92.697 C 172.521 92.697,172.628 92.660,170.801 98.832 C 170.658 99.314,170.378 99.708,170.178 99.708 C 169.978 99.708,169.815 99.980,169.815 100.312 C 169.815 100.830,169.040 102.543,167.799 104.771 C 167.620 105.093,167.374 105.618,167.254 105.940 C 167.133 106.261,166.447 107.751,165.730 109.250 C 165.013 110.750,164.041 112.853,163.571 113.924 C 163.101 114.995,161.841 117.712,160.771 119.961 C 159.702 122.210,158.327 125.102,157.716 126.388 C 157.104 127.673,156.422 129.163,156.200 129.698 C 155.977 130.234,155.645 130.935,155.462 131.256 C 155.279 131.577,154.853 132.454,154.517 133.204 C 154.180 133.953,153.177 136.144,152.288 138.072 C 151.399 140.000,150.397 142.191,150.060 142.941 C 149.723 143.690,149.297 144.567,149.113 144.888 C 148.929 145.209,148.677 145.735,148.554 146.056 C 148.159 147.088,146.798 150.115,146.277 151.120 C 146.000 151.655,145.658 152.575,145.518 153.165 C 145.377 153.754,145.091 154.236,144.881 154.236 C 144.670 154.236,144.499 154.545,144.499 154.923 C 144.499 155.301,144.148 156.264,143.720 157.064 C 143.291 157.863,142.941 158.759,142.941 159.055 C 142.941 160.524,140.444 160.491,139.979 159.016 C 139.860 158.636,139.425 157.605,139.014 156.725 C 138.603 155.844,138.267 154.837,138.267 154.485 C 138.267 154.134,138.103 153.846,137.904 153.846 C 137.704 153.846,137.424 153.452,137.281 152.970 C 137.020 152.090,136.610 151.168,133.596 144.693 C 129.525 135.946,128.842 134.503,128.313 133.533 C 128.004 132.964,127.751 132.241,127.751 131.925 C 127.751 131.610,127.499 131.143,127.192 130.887 C 126.884 130.632,126.520 129.910,126.382 129.282 C 126.244 128.654,125.970 128.140,125.772 128.140 C 125.575 128.140,125.414 127.948,125.414 127.712 C 125.414 127.325,124.370 125.020,121.111 118.208 C 120.496 116.923,119.811 115.433,119.588 114.898 C 119.366 114.362,119.008 113.617,118.794 113.242 C 118.579 112.868,118.227 112.254,118.013 111.879 C 117.798 111.504,117.443 110.759,117.223 110.224 C 116.730 109.018,115.669 106.721,115.246 105.940 C 115.072 105.618,114.474 104.391,113.916 103.213 C 113.358 102.035,112.299 99.870,111.563 98.402 C 110.826 96.934,110.224 95.519,110.224 95.257 C 110.224 94.995,109.772 94.355,109.219 93.836 L 108.215 92.892 93.737 92.833 C 85.775 92.801,78.968 92.854,78.612 92.953 M291.821 93.488 L 290.944 93.841 290.944 115.422 C 290.944 132.723,290.843 137.087,290.435 137.426 C 290.114 137.692,286.617 137.906,280.990 138.004 C 269.358 138.206,263.867 139.193,255.307 142.617 C 250.992 144.343,243.299 148.666,241.232 150.527 C 240.989 150.746,239.579 151.977,238.098 153.262 C 236.618 154.547,234.451 156.724,233.283 158.100 C 232.114 159.475,230.892 160.881,230.565 161.225 C 230.239 161.568,229.240 162.984,228.346 164.372 C 227.452 165.759,226.580 167.069,226.408 167.283 C 226.236 167.498,225.602 168.637,225.000 169.815 C 224.397 170.993,223.746 172.220,223.553 172.541 C 223.074 173.336,221.616 176.722,221.616 177.038 C 221.616 177.178,221.372 177.844,221.073 178.520 C 220.587 179.617,219.831 182.048,218.510 186.758 C 218.270 187.614,217.811 189.981,217.490 192.016 C 215.729 203.173,215.724 209.841,217.468 221.811 C 218.251 227.188,219.802 233.411,221.073 236.281 C 221.372 236.956,221.616 237.718,221.616 237.973 C 221.616 238.229,221.871 238.904,222.183 239.473 C 222.495 240.041,223.207 241.470,223.767 242.648 C 224.326 243.827,225.202 245.492,225.713 246.349 C 226.224 247.205,226.773 248.169,226.934 248.491 C 227.094 248.812,227.370 249.250,227.547 249.464 C 227.725 249.679,228.670 250.906,229.649 252.191 C 234.334 258.343,242.053 264.484,248.685 267.333 C 249.542 267.701,250.539 268.164,250.901 268.362 C 251.470 268.672,253.767 269.434,259.396 271.180 C 267.858 273.803,288.423 273.862,297.760 271.289 C 298.832 270.994,300.497 270.574,301.461 270.356 C 306.485 269.221,311.481 267.542,317.546 264.950 L 320.973 263.486 320.767 260.954 C 319.941 250.785,319.821 239.492,319.806 170.478 C 319.797 128.321,319.686 93.661,319.560 93.457 C 319.264 92.979,293.015 93.008,291.821 93.488 M284.323 161.637 C 288.852 162.525,289.919 162.849,290.401 163.484 C 291.317 164.691,291.177 245.433,290.257 246.266 C 287.290 248.951,272.418 248.949,266.407 246.263 C 265.871 246.024,265.170 245.722,264.849 245.594 C 264.528 245.465,263.564 244.934,262.707 244.413 C 261.850 243.893,260.764 243.291,260.294 243.076 C 258.978 242.473,253.165 236.509,253.165 235.761 C 253.165 235.620,252.916 235.228,252.613 234.889 C 251.946 234.146,249.270 229.057,249.270 228.533 C 249.270 228.328,249.008 227.608,248.688 226.933 C 244.394 217.871,244.281 194.789,248.482 184.810 C 249.670 181.989,250.543 180.057,250.858 179.552 C 251.059 179.231,251.437 178.530,251.699 177.994 C 251.961 177.459,252.267 176.933,252.379 176.826 C 252.491 176.719,253.060 175.930,253.643 175.073 C 255.844 171.838,261.810 166.310,263.099 166.310 C 263.383 166.310,263.674 166.164,263.746 165.986 C 263.911 165.575,268.131 163.583,268.837 163.583 C 269.128 163.583,269.534 163.418,269.737 163.216 C 270.072 162.884,271.782 162.511,276.923 161.645 C 279.365 161.234,282.255 161.231,284.323 161.637 " stroke="none" fill="#fb2bc3" fill-rule="evenodd"></path><path id="path1" d="M17.526 17.722 C 17.450 52.562,17.569 371.739,17.658 371.829 C 17.731 371.902,99.800 371.961,200.035 371.960 L 382.278 371.959 382.376 194.743 L 382.474 17.527 200.000 17.527 C 99.640 17.527,17.527 17.614,17.526 17.722 M109.694 92.795 C 110.120 93.277,111.183 95.161,112.057 96.981 C 114.607 102.297,117.786 108.932,119.923 113.402 C 121.015 115.686,121.908 117.746,121.908 117.979 C 121.908 118.212,122.084 118.403,122.298 118.403 C 122.512 118.403,122.687 118.594,122.687 118.827 C 122.687 119.060,123.457 120.857,124.398 122.819 C 125.338 124.782,126.919 128.115,127.911 130.226 C 128.903 132.336,130.306 135.316,131.029 136.847 C 131.753 138.378,132.449 139.893,132.577 140.214 C 132.705 140.536,132.960 141.061,133.144 141.383 C 133.328 141.704,133.753 142.580,134.088 143.330 C 134.423 144.080,135.310 146.008,136.058 147.614 C 139.906 155.871,140.604 157.426,140.604 157.750 C 140.604 158.738,142.085 158.877,142.327 157.912 C 142.463 157.372,143.182 155.631,143.926 154.043 C 144.669 152.455,145.278 151.063,145.278 150.951 C 145.278 150.838,145.956 149.296,146.784 147.525 C 147.613 145.753,148.850 143.077,149.534 141.577 C 150.217 140.078,151.018 138.325,151.313 137.683 C 151.608 137.040,151.947 136.251,152.066 135.930 C 152.186 135.609,152.447 135.083,152.648 134.761 C 152.848 134.440,153.399 133.301,153.872 132.230 C 154.345 131.159,155.564 128.530,156.582 126.388 C 157.599 124.245,158.538 122.230,158.668 121.908 C 158.798 121.587,159.055 121.061,159.239 120.740 C 159.644 120.033,161.111 116.879,161.414 116.066 C 161.533 115.745,161.782 115.219,161.966 114.898 C 162.369 114.195,163.411 111.958,163.961 110.613 C 164.181 110.078,164.515 109.377,164.705 109.056 C 164.894 108.734,165.405 107.683,165.841 106.719 C 167.598 102.829,170.693 96.305,171.476 94.839 C 173.110 91.785,172.176 91.946,188.404 91.931 L 202.903 91.918 203.535 92.883 C 204.258 93.986,204.615 93.104,199.594 102.629 C 198.013 105.628,195.906 109.659,194.912 111.587 C 193.918 113.515,192.176 116.845,191.042 118.987 C 189.908 121.130,188.076 124.635,186.972 126.777 C 185.867 128.919,184.798 130.979,184.595 131.353 C 184.392 131.728,184.059 132.342,183.855 132.717 C 183.651 133.092,182.659 135.063,181.650 137.098 C 180.641 139.133,179.682 140.888,179.520 140.997 C 179.357 141.106,179.104 141.676,178.957 142.263 C 178.809 142.850,178.551 143.330,178.384 143.330 C 178.216 143.330,177.958 143.811,177.810 144.399 C 177.663 144.987,177.374 145.670,177.169 145.918 C 176.963 146.165,176.124 147.656,175.304 149.231 C 172.676 154.273,171.730 155.980,171.353 156.358 C 171.150 156.562,170.983 157.031,170.983 157.402 C 170.983 157.772,170.744 158.315,170.451 158.608 C 170.158 158.901,169.786 159.571,169.624 160.096 C 169.462 160.622,169.179 161.242,168.994 161.474 C 168.810 161.706,167.718 163.721,166.569 165.953 C 165.419 168.184,163.557 171.758,162.430 173.895 C 159.392 179.657,159.426 178.870,161.991 183.896 C 167.348 194.393,168.660 196.908,168.985 197.304 C 169.175 197.534,169.447 198.091,169.590 198.540 C 169.732 198.990,170.265 200.116,170.773 201.042 C 171.281 201.968,172.894 205.051,174.358 207.893 C 175.823 210.735,177.499 213.977,178.085 215.099 C 178.671 216.220,179.152 217.342,179.156 217.592 C 179.160 217.842,179.309 218.105,179.488 218.176 C 179.667 218.247,180.639 219.971,181.649 222.006 C 182.659 224.041,183.679 226.056,183.917 226.485 C 184.479 227.499,184.513 227.565,187.558 233.496 C 188.987 236.280,191.439 241.013,193.006 244.012 C 194.573 247.011,197.289 252.269,199.040 255.696 C 200.791 259.124,203.170 263.749,204.325 265.975 C 206.464 270.096,206.792 271.338,205.959 272.171 C 205.196 272.934,174.158 272.832,173.060 272.063 C 172.421 271.615,167.443 262.195,166.160 259.007 C 166.031 258.685,165.768 258.160,165.577 257.838 C 165.385 257.517,164.230 255.151,163.010 252.580 C 161.790 250.010,160.543 247.441,160.240 246.873 C 159.937 246.304,159.688 245.559,159.688 245.217 C 159.688 244.876,159.556 244.596,159.394 244.596 C 159.232 244.596,158.688 243.676,158.184 242.551 C 157.681 241.426,156.344 238.578,155.214 236.222 C 154.083 233.866,153.051 231.675,152.921 231.353 C 152.790 231.032,152.526 230.506,152.335 230.185 C 152.144 229.864,151.377 228.286,150.630 226.680 C 149.884 225.073,148.395 221.918,147.323 219.669 C 146.251 217.420,144.843 214.440,144.195 213.048 C 143.548 211.655,142.188 208.773,141.173 206.642 L 139.329 202.769 138.541 204.500 C 138.108 205.453,137.343 207.125,136.842 208.217 C 136.340 209.308,135.930 210.404,135.930 210.651 C 135.930 210.898,135.774 211.100,135.584 211.100 C 135.393 211.100,135.123 211.714,134.982 212.463 C 134.841 213.213,134.559 213.827,134.354 213.827 C 134.150 213.827,133.982 214.034,133.982 214.288 C 133.982 214.713,133.654 215.498,131.646 219.864 C 130.691 221.940,128.295 227.159,127.131 229.698 C 126.615 230.823,125.742 232.751,125.192 233.982 C 124.641 235.214,123.852 236.942,123.439 237.823 C 123.026 238.703,122.687 239.623,122.687 239.867 C 122.687 240.112,122.512 240.312,122.298 240.312 C 122.084 240.312,121.908 240.504,121.908 240.739 C 121.908 240.975,121.231 242.596,120.402 244.342 C 119.573 246.088,118.413 248.569,117.824 249.854 C 117.234 251.139,116.049 253.681,115.189 255.501 C 112.897 260.360,109.484 267.568,108.734 269.133 C 108.375 269.883,107.668 270.935,107.162 271.470 L 106.241 272.444 91.289 272.555 C 73.549 272.686,73.324 272.632,75.683 268.834 C 76.179 268.034,77.422 265.716,78.446 263.681 C 79.469 261.646,80.987 258.754,81.818 257.254 C 82.650 255.755,83.439 254.265,83.572 253.944 C 83.705 253.622,83.887 253.184,83.977 252.970 C 84.068 252.756,85.439 250.127,87.025 247.128 C 88.611 244.129,90.747 240.010,91.772 237.975 C 92.798 235.940,93.762 234.185,93.915 234.076 C 94.068 233.967,94.314 233.397,94.461 232.810 C 94.609 232.223,94.866 231.743,95.034 231.743 C 95.202 231.743,95.460 231.262,95.607 230.674 C 95.755 230.086,96.053 229.392,96.269 229.131 C 96.729 228.577,98.490 225.262,101.088 220.058 C 102.104 218.023,103.072 216.269,103.238 216.160 C 103.405 216.050,103.660 215.488,103.805 214.910 C 103.950 214.332,104.314 213.655,104.615 213.405 C 104.915 213.156,105.161 212.634,105.161 212.244 C 105.161 211.854,105.319 211.438,105.514 211.318 C 105.708 211.198,106.687 209.479,107.690 207.497 C 108.693 205.516,110.799 201.441,112.370 198.442 C 113.940 195.443,115.779 191.896,116.455 190.559 C 117.132 189.223,117.847 188.029,118.044 187.907 C 118.242 187.785,118.403 187.403,118.403 187.057 C 118.403 186.712,118.633 186.153,118.914 185.815 C 120.914 183.409,120.888 181.470,118.809 177.994 C 118.617 177.673,118.358 177.147,118.235 176.826 C 118.111 176.504,117.497 175.365,116.869 174.294 C 116.242 173.223,115.717 172.055,115.703 171.698 C 115.688 171.340,115.538 170.990,115.368 170.919 C 115.198 170.847,112.989 166.670,110.460 161.636 C 107.930 156.602,105.448 151.725,104.943 150.799 C 104.439 149.872,103.908 148.741,103.763 148.285 C 103.618 147.829,103.260 147.216,102.967 146.923 C 102.674 146.630,102.434 146.063,102.434 145.662 C 102.434 145.262,102.292 144.846,102.117 144.738 C 101.943 144.630,99.738 140.457,97.218 135.465 C 94.698 130.472,92.482 126.125,92.292 125.803 C 92.103 125.482,91.496 124.255,90.943 123.077 C 90.391 121.899,89.789 120.672,89.606 120.351 C 89.159 119.566,87.850 116.990,81.555 104.505 C 76.275 94.034,76.223 93.906,76.871 92.917 L 77.525 91.918 93.222 91.918 L 108.920 91.918 109.694 92.795 M320.462 92.803 L 321.293 93.688 321.341 178.937 L 321.388 264.186 320.091 264.857 C 317.540 266.174,315.193 267.186,314.660 267.198 C 314.362 267.205,313.779 267.468,313.363 267.783 C 312.947 268.097,312.333 268.356,312.000 268.357 C 311.666 268.358,310.903 268.614,310.305 268.926 C 309.707 269.238,308.567 269.611,307.773 269.754 C 306.979 269.897,306.154 270.150,305.940 270.317 C 305.725 270.483,304.542 270.805,303.309 271.032 C 302.077 271.259,300.762 271.603,300.388 271.798 C 300.014 271.992,298.668 272.278,297.396 272.432 C 296.125 272.587,294.695 272.861,294.218 273.042 C 290.202 274.569,265.789 274.573,262.937 273.047 C 262.596 272.865,261.441 272.589,260.370 272.435 C 259.299 272.280,257.897 271.940,257.254 271.678 C 256.611 271.417,255.428 271.080,254.625 270.930 C 253.822 270.779,253.165 270.511,253.165 270.333 C 253.165 270.155,252.662 269.909,252.047 269.786 C 250.619 269.501,245.020 266.887,244.305 266.172 C 244.006 265.873,243.600 265.628,243.404 265.628 C 241.921 265.628,232.979 257.990,230.061 254.229 C 229.594 253.627,228.731 252.586,228.143 251.915 C 227.556 251.244,226.856 250.199,226.588 249.593 C 226.319 248.987,226.003 248.491,225.885 248.491 C 225.767 248.491,225.097 247.395,224.396 246.056 C 223.695 244.718,222.971 243.359,222.786 243.038 C 222.601 242.717,222.111 241.665,221.696 240.701 C 221.280 239.737,220.655 238.308,220.305 237.526 C 219.955 236.744,219.669 235.771,219.669 235.365 C 219.669 234.958,219.506 234.459,219.306 234.255 C 218.871 233.812,217.858 229.932,217.124 225.901 C 216.832 224.294,216.385 222.103,216.131 221.032 C 215.491 218.331,215.480 195.645,216.118 192.989 C 216.375 191.918,216.827 189.903,217.123 188.510 C 218.052 184.132,218.930 180.929,219.306 180.545 C 219.506 180.342,219.669 179.850,219.669 179.453 C 219.669 178.304,225.332 166.310,225.874 166.310 C 225.998 166.310,226.324 165.802,226.599 165.183 C 226.873 164.563,227.529 163.590,228.057 163.020 C 228.585 162.451,229.017 161.887,229.017 161.767 C 229.017 160.980,236.470 153.131,239.533 150.693 C 241.538 149.097,244.901 146.729,245.764 146.306 C 246.086 146.148,247.050 145.602,247.907 145.093 C 250.995 143.257,255.916 140.993,256.820 140.993 C 257.141 140.993,257.503 140.831,257.625 140.634 C 257.747 140.436,258.415 140.157,259.109 140.013 C 259.802 139.870,261.159 139.511,262.123 139.216 C 267.765 137.490,274.757 136.670,283.350 136.728 C 286.349 136.748,289.016 136.752,289.277 136.737 C 289.642 136.715,289.776 131.749,289.861 115.133 C 289.966 94.547,290.005 93.520,290.713 92.738 C 291.441 91.933,291.717 91.918,305.543 91.918 L 319.631 91.918 320.462 92.803 M274.197 163.058 C 269.394 163.999,262.886 166.954,260.171 169.426 C 259.819 169.747,259.105 170.380,258.587 170.833 C 255.738 173.319,253.184 177.016,250.472 182.583 C 250.025 183.500,249.659 184.437,249.659 184.666 C 249.659 184.895,249.405 185.634,249.095 186.309 C 248.785 186.984,248.358 188.413,248.147 189.484 C 247.936 190.555,247.546 192.220,247.281 193.184 C 246.514 195.967,246.606 215.291,247.401 218.306 C 247.740 219.591,248.142 221.402,248.294 222.330 C 248.446 223.258,248.814 224.485,249.112 225.056 C 249.410 225.628,249.655 226.479,249.657 226.949 C 249.658 227.418,249.822 227.903,250.020 228.025 C 250.219 228.148,250.595 228.903,250.856 229.704 C 252.475 234.664,259.128 241.850,264.265 244.188 C 271.581 247.516,287.061 248.343,289.200 245.519 C 290.186 244.217,290.031 165.153,289.040 163.929 C 288.310 163.028,277.567 162.398,274.197 163.058 " stroke="none" fill="#2b041b" fill-rule="evenodd"></path><path id="path2" d="M17.429 17.290 C 16.558 17.952,16.344 371.398,17.215 372.269 C 17.793 372.847,382.289 372.960,382.646 372.382 C 383.104 371.642,382.886 17.830,382.428 17.277 C 381.779 16.496,18.459 16.508,17.429 17.290 M382.376 194.743 L 382.278 371.959 200.035 371.960 C 99.800 371.961,17.731 371.902,17.658 371.829 C 17.569 371.739,17.450 52.562,17.526 17.722 C 17.527 17.614,99.640 17.527,200.000 17.527 L 382.474 17.527 382.376 194.743 M76.871 92.917 C 76.223 93.906,76.275 94.034,81.555 104.505 C 87.850 116.990,89.159 119.566,89.606 120.351 C 89.789 120.672,90.391 121.899,90.943 123.077 C 91.496 124.255,92.103 125.482,92.292 125.803 C 92.482 126.125,94.698 130.472,97.218 135.465 C 101.058 143.072,102.463 145.592,102.429 144.814 C 102.426 144.747,100.772 141.451,98.752 137.488 C 96.732 133.525,92.134 124.451,88.533 117.325 C 84.932 110.198,80.813 102.048,79.379 99.214 C 75.654 91.853,74.299 92.526,93.098 92.400 C 107.244 92.306,108.458 92.350,109.172 92.985 C 109.872 93.607,111.468 96.756,117.612 109.640 C 118.736 111.996,120.707 116.115,121.992 118.793 C 123.277 121.470,124.909 124.888,125.620 126.388 C 129.303 134.160,131.066 137.905,132.036 140.019 C 132.626 141.305,133.844 143.934,134.744 145.862 C 137.761 152.326,138.725 154.420,139.496 156.183 C 140.653 158.830,140.829 159.094,141.521 159.230 C 141.927 159.310,142.310 158.955,142.573 158.256 C 142.800 157.652,143.393 156.280,143.891 155.209 C 144.389 154.138,145.364 151.947,146.058 150.341 C 147.373 147.298,148.500 144.831,151.365 138.730 C 153.245 134.726,153.332 134.446,152.483 135.151 C 152.162 135.418,151.899 135.894,151.899 136.210 C 151.899 136.525,151.643 137.249,151.330 137.817 C 151.017 138.386,150.205 140.078,149.526 141.577 C 148.847 143.077,147.613 145.753,146.784 147.525 C 145.956 149.296,145.278 150.838,145.278 150.951 C 145.278 151.063,144.669 152.455,143.926 154.043 C 143.182 155.631,142.463 157.372,142.327 157.912 C 142.085 158.877,140.604 158.738,140.604 157.750 C 140.604 157.426,139.906 155.871,136.058 147.614 C 135.310 146.008,134.423 144.080,134.088 143.330 C 133.753 142.580,133.328 141.704,133.144 141.383 C 132.960 141.061,132.705 140.536,132.577 140.214 C 132.449 139.893,131.753 138.378,131.029 136.847 C 130.306 135.316,128.903 132.336,127.911 130.226 C 126.919 128.115,125.338 124.782,124.398 122.819 C 123.457 120.857,122.687 119.060,122.687 118.827 C 122.687 118.594,122.512 118.403,122.298 118.403 C 122.084 118.403,121.908 118.212,121.908 117.979 C 121.908 117.746,121.015 115.686,119.923 113.402 C 117.786 108.932,114.607 102.297,112.057 96.981 C 111.183 95.161,110.120 93.277,109.694 92.795 L 108.920 91.918 93.222 91.918 L 77.525 91.918 76.871 92.917 M173.107 92.613 C 172.185 93.386,171.348 94.886,168.825 100.292 C 167.825 102.434,166.581 105.046,166.061 106.095 C 165.541 107.145,165.170 108.167,165.237 108.368 C 165.350 108.708,167.421 104.543,170.803 97.176 C 173.211 91.929,171.845 92.308,188.384 92.308 L 202.548 92.308 202.985 93.266 C 203.442 94.270,203.027 95.192,196.578 107.498 C 195.511 109.533,193.587 113.213,192.303 115.677 C 190.227 119.658,188.789 122.385,185.239 129.075 C 184.133 131.157,184.050 131.411,184.576 131.085 C 184.769 130.966,185.839 129.072,186.953 126.875 C 188.068 124.679,189.908 121.130,191.042 118.987 C 192.176 116.845,193.918 113.515,194.912 111.587 C 195.906 109.659,198.013 105.628,199.594 102.629 C 204.615 93.104,204.258 93.986,203.535 92.883 L 202.903 91.918 188.404 91.931 C 175.283 91.943,173.829 92.008,173.107 92.613 M290.713 92.738 C 290.005 93.520,289.966 94.547,289.861 115.133 C 289.776 131.749,289.642 136.715,289.277 136.737 C 289.016 136.752,286.349 136.748,283.350 136.728 C 274.757 136.670,267.765 137.490,262.123 139.216 C 261.159 139.511,259.802 139.870,259.109 140.013 C 258.415 140.157,257.747 140.436,257.625 140.634 C 257.503 140.831,257.141 140.993,256.820 140.993 C 256.031 140.993,253.406 142.167,247.915 144.974 C 247.193 145.343,246.495 145.820,246.363 146.033 C 246.231 146.246,248.125 145.402,250.570 144.157 C 253.016 142.913,256.572 141.415,258.472 140.829 C 260.373 140.243,262.366 139.612,262.902 139.427 C 266.504 138.180,273.201 137.389,281.372 137.244 C 286.068 137.161,290.012 136.993,290.135 136.869 C 290.259 136.745,290.401 126.975,290.450 115.158 C 290.539 93.758,290.543 93.668,291.369 92.989 C 292.652 91.935,318.929 91.946,319.884 93.001 C 320.455 93.633,320.529 100.984,320.715 175.280 C 320.827 220.151,320.966 258.433,321.024 260.350 L 321.130 263.834 319.635 264.623 C 318.814 265.056,318.313 265.468,318.524 265.538 C 318.734 265.609,319.465 265.326,320.147 264.911 L 321.388 264.156 321.341 178.922 L 321.293 93.688 320.462 92.803 L 319.631 91.918 305.543 91.918 C 291.717 91.918,291.441 91.933,290.713 92.738 M164.465 109.533 C 164.247 109.806,163.935 110.467,163.773 111.003 C 163.611 111.538,163.239 112.322,162.947 112.745 C 162.654 113.167,162.423 113.781,162.433 114.108 C 162.444 114.435,163.061 113.494,163.804 112.017 C 165.076 109.491,165.363 108.412,164.465 109.533 M161.707 115.372 C 161.454 115.625,161.246 116.099,161.246 116.426 C 161.246 116.833,161.442 116.739,161.870 116.128 C 162.554 115.152,162.442 114.636,161.707 115.372 M160.350 118.378 C 159.986 118.993,159.688 119.719,159.688 119.990 C 159.688 120.262,159.408 120.794,159.064 121.174 C 158.721 121.553,158.515 122.087,158.606 122.361 C 158.697 122.635,159.338 121.661,160.030 120.197 C 161.329 117.447,161.511 116.411,160.350 118.378 M156.378 126.846 C 153.186 133.539,152.975 134.020,153.152 134.197 C 153.248 134.293,154.504 131.897,155.942 128.873 C 157.380 125.848,158.478 123.294,158.380 123.197 C 158.283 123.099,157.382 124.742,156.378 126.846 M182.900 133.641 C 182.296 134.793,180.442 138.364,178.781 141.577 C 173.455 151.879,171.688 155.201,171.332 155.579 C 170.853 156.088,170.873 156.839,171.353 156.358 C 171.730 155.980,172.676 154.273,175.304 149.231 C 176.124 147.656,176.963 146.165,177.169 145.918 C 177.374 145.670,177.663 144.987,177.810 144.399 C 177.958 143.811,178.216 143.330,178.384 143.330 C 178.551 143.330,178.809 142.850,178.957 142.263 C 179.104 141.676,179.354 141.106,179.512 140.997 C 179.671 140.888,180.566 139.221,181.502 137.293 C 182.438 135.365,183.452 133.491,183.755 133.129 C 184.058 132.766,184.237 132.262,184.152 132.008 C 184.067 131.754,183.504 132.489,182.900 133.641 M102.434 145.769 C 102.434 146.111,102.674 146.630,102.967 146.923 C 103.260 147.216,103.618 147.829,103.763 148.285 C 103.908 148.741,104.439 149.872,104.943 150.799 C 105.448 151.725,107.925 156.602,110.447 161.636 C 115.601 171.919,115.203 171.198,115.537 170.863 C 115.675 170.725,115.606 170.389,115.383 170.117 C 115.160 169.844,112.254 164.212,108.925 157.603 C 102.632 145.109,102.434 144.748,102.434 145.769 M244.012 147.344 C 239.973 150.298,237.452 152.403,235.054 154.822 C 232.275 157.625,229.017 161.373,229.017 161.767 C 229.017 161.887,228.585 162.451,228.057 163.020 C 227.529 163.590,226.873 164.563,226.599 165.183 C 226.324 165.802,225.998 166.310,225.874 166.310 C 225.332 166.310,219.669 178.304,219.669 179.453 C 219.669 179.850,219.506 180.342,219.306 180.545 C 218.930 180.928,218.056 184.116,217.122 188.510 C 216.826 189.903,216.409 191.831,216.196 192.795 C 215.982 193.759,215.826 195.599,215.848 196.884 L 215.888 199.221 216.188 196.495 C 216.526 193.413,217.553 187.758,218.096 185.988 C 218.295 185.340,218.827 183.583,219.280 182.084 C 220.552 177.866,221.485 175.549,223.589 171.373 C 228.649 161.331,233.964 155.345,245.180 147.056 C 245.609 146.740,245.784 146.483,245.570 146.485 C 245.355 146.487,244.654 146.874,244.012 147.344 M169.485 159.305 C 168.810 160.593,168.257 161.754,168.257 161.884 C 168.257 162.495,169.378 161.098,169.601 160.210 C 169.740 159.657,170.108 158.951,170.418 158.640 C 170.914 158.144,171.217 156.962,170.848 156.962 C 170.774 156.962,170.160 158.016,169.485 159.305 M275.949 162.475 C 265.094 163.685,256.012 170.308,250.931 180.721 C 249.563 183.523,248.434 186.636,248.692 186.894 C 248.869 187.071,249.659 185.198,249.659 184.602 C 249.659 184.408,250.025 183.500,250.472 182.583 C 253.184 177.016,255.738 173.319,258.587 170.833 C 259.105 170.380,259.819 169.747,260.171 169.426 C 262.271 167.514,266.506 165.331,270.941 163.876 C 275.099 162.511,287.917 162.541,289.032 163.919 C 290.030 165.152,290.193 244.207,289.200 245.519 C 287.061 248.343,271.581 247.516,264.265 244.188 C 259.128 241.850,252.475 234.664,250.856 229.704 C 250.595 228.903,250.219 228.148,250.020 228.025 C 248.622 227.161,252.183 233.660,255.112 237.316 C 261.739 245.592,273.644 249.420,285.623 247.127 C 287.302 246.806,288.736 246.543,288.809 246.543 C 290.167 246.543,290.166 246.583,290.166 204.655 L 290.166 163.991 289.289 163.430 C 288.417 162.871,282.463 161.982,280.234 162.077 C 279.591 162.105,277.663 162.284,275.949 162.475 M166.707 164.736 C 166.041 166.056,164.991 168.068,164.375 169.208 C 162.371 172.912,159.299 179.056,159.299 179.360 C 159.299 179.671,161.004 183.083,164.746 190.263 C 165.975 192.619,167.819 196.171,168.845 198.156 C 169.872 200.141,170.783 201.694,170.870 201.606 C 170.958 201.518,170.669 200.773,170.228 199.950 C 169.786 199.127,169.426 198.312,169.426 198.139 C 169.426 197.966,169.249 197.613,169.033 197.355 C 168.664 196.912,167.444 194.580,161.991 183.896 C 159.430 178.879,159.401 179.646,162.372 173.992 C 163.467 171.909,165.248 168.519,166.330 166.460 C 167.412 164.400,168.212 162.630,168.108 162.526 C 168.004 162.421,167.373 163.416,166.707 164.736 M115.677 171.677 C 115.677 172.181,117.490 175.676,118.034 176.222 C 118.668 176.858,118.445 176.236,117.188 173.862 C 115.814 171.267,115.677 171.069,115.677 171.677 M118.403 177.322 C 118.403 177.666,118.573 178.053,118.782 178.182 C 120.773 179.413,120.823 183.529,118.874 185.859 C 118.571 186.221,118.392 186.723,118.475 186.974 C 118.645 187.484,121.130 182.954,121.130 182.133 C 121.130 181.693,119.014 177.366,118.551 176.858 C 118.470 176.769,118.403 176.978,118.403 177.322 M117.759 188.209 C 117.557 188.482,116.902 189.669,116.303 190.847 C 115.703 192.025,113.930 195.443,112.363 198.442 C 110.796 201.441,108.693 205.516,107.690 207.497 C 106.687 209.479,105.708 211.198,105.514 211.318 C 105.319 211.438,105.161 211.823,105.161 212.175 C 105.161 213.236,105.683 212.383,109.152 205.648 C 116.143 192.074,117.717 189.078,118.109 188.598 C 118.332 188.325,118.426 188.014,118.319 187.907 C 118.212 187.800,117.960 187.936,117.759 188.209 M247.401 190.739 C 247.143 191.598,246.947 192.719,246.964 193.229 C 246.980 193.740,247.047 193.982,247.111 193.768 C 247.175 193.554,247.446 192.654,247.712 191.769 C 247.978 190.883,248.123 189.937,248.033 189.667 C 247.943 189.397,247.658 189.879,247.401 190.739 M246.146 199.294 C 245.828 202.245,245.756 205.429,245.942 208.349 C 246.510 217.294,246.738 216.547,246.738 205.745 C 246.738 199.693,246.715 194.742,246.687 194.742 C 246.659 194.742,246.416 196.790,246.146 199.294 M215.546 206.621 C 215.546 210.477,215.604 212.002,215.675 210.010 C 215.746 208.017,215.746 204.862,215.674 202.999 C 215.603 201.135,215.545 202.765,215.546 206.621 M170.983 202.256 C 170.983 202.344,171.392 203.187,171.892 204.129 C 172.392 205.071,174.178 208.510,175.863 211.771 C 177.547 215.032,178.996 217.628,179.083 217.541 C 179.170 217.454,178.742 216.409,178.131 215.219 C 177.520 214.029,175.813 210.682,174.336 207.782 C 172.055 203.300,170.983 201.534,170.983 202.256 M137.452 205.940 C 133.360 214.810,132.035 217.735,132.035 217.898 C 132.035 217.978,131.159 219.897,130.088 222.163 C 129.017 224.428,128.140 226.362,128.140 226.461 C 128.140 226.559,127.257 228.512,126.178 230.800 C 125.099 233.088,124.306 235.049,124.416 235.159 C 124.526 235.269,124.953 234.570,125.367 233.605 C 125.780 232.641,126.557 230.908,127.093 229.753 C 127.630 228.598,128.712 226.251,129.499 224.537 C 130.286 222.824,131.252 220.721,131.646 219.864 C 133.654 215.498,133.982 214.713,133.982 214.288 C 133.982 214.034,134.150 213.827,134.354 213.827 C 134.559 213.827,134.841 213.213,134.982 212.463 C 135.123 211.714,135.393 211.100,135.584 211.100 C 135.774 211.100,135.930 210.898,135.930 210.651 C 135.930 210.404,136.340 209.308,136.842 208.217 C 137.343 207.125,138.108 205.453,138.541 204.500 L 139.329 202.769 141.086 206.448 C 142.052 208.471,143.321 211.146,143.906 212.391 C 144.490 213.636,145.048 214.576,145.145 214.478 C 145.300 214.323,142.928 209.058,140.509 204.187 C 139.397 201.947,139.257 202.028,137.452 205.940 M104.485 213.525 C 104.266 213.798,103.955 214.460,103.793 214.995 C 103.630 215.531,103.371 216.056,103.217 216.164 C 103.062 216.271,102.104 218.023,101.088 220.058 C 98.490 225.262,96.729 228.577,96.269 229.131 C 96.053 229.392,95.755 230.086,95.607 230.674 C 95.460 231.262,95.202 231.743,95.034 231.743 C 94.866 231.743,94.609 232.223,94.461 232.810 C 94.314 233.397,94.068 233.967,93.915 234.076 C 93.762 234.185,92.797 235.940,91.771 237.975 C 88.031 245.394,84.492 252.143,84.084 252.635 C 83.854 252.912,83.728 253.326,83.804 253.555 C 83.881 253.784,84.524 252.869,85.234 251.523 C 87.796 246.665,92.478 237.677,95.032 232.717 C 97.623 227.684,102.508 218.315,104.253 215.030 C 105.147 213.346,105.271 212.543,104.485 213.525 M215.964 218.185 C 216.038 220.260,216.300 222.276,216.546 222.664 C 216.908 223.234,216.944 223.070,216.735 221.811 C 216.593 220.954,216.331 218.939,216.153 217.332 L 215.829 214.411 215.964 218.185 M145.278 215.284 C 145.278 215.832,148.875 222.822,149.062 222.636 C 149.164 222.533,148.983 221.955,148.658 221.351 C 148.333 220.747,147.498 219.070,146.801 217.624 C 145.595 215.121,145.278 214.634,145.278 215.284 M246.958 217.745 C 246.928 218.935,248.355 224.727,249.101 226.441 C 249.492 227.339,249.632 227.451,249.642 226.874 C 249.649 226.446,249.410 225.628,249.112 225.056 C 248.814 224.485,248.446 223.258,248.294 222.330 C 247.838 219.546,246.987 216.625,246.958 217.745 M180.214 220.065 C 180.771 221.139,181.291 221.955,181.369 221.877 C 181.580 221.665,179.792 218.114,179.473 218.112 C 179.323 218.112,179.656 218.990,180.214 220.065 M181.502 222.487 C 181.496 223.139,184.014 227.510,184.154 227.091 C 184.237 226.840,184.025 226.324,183.682 225.945 C 183.338 225.565,183.056 225.094,183.055 224.896 C 183.053 224.699,182.704 224.012,182.278 223.369 C 181.853 222.726,181.503 222.329,181.502 222.487 M149.172 223.386 C 149.172 223.941,151.591 228.675,151.779 228.487 C 151.870 228.396,151.584 227.648,151.143 226.825 C 150.702 226.001,150.335 225.150,150.328 224.933 C 150.313 224.429,149.172 222.903,149.172 223.386 M217.018 224.537 C 216.995 225.180,217.135 226.407,217.328 227.264 C 218.298 231.557,218.983 233.922,219.359 234.275 C 219.651 234.548,219.694 234.373,219.504 233.690 C 218.515 230.131,217.369 225.526,217.227 224.537 L 217.059 223.369 217.018 224.537 M184.226 228.082 C 184.226 228.296,184.381 228.638,184.571 228.841 C 184.760 229.045,185.923 231.189,187.154 233.606 C 188.386 236.023,189.461 237.932,189.544 237.849 C 189.725 237.668,185.159 228.626,184.609 228.076 C 184.358 227.824,184.226 227.826,184.226 228.082 M151.911 229.456 C 151.904 229.804,152.162 230.308,152.483 230.574 C 153.232 231.196,153.240 230.562,152.495 229.578 C 152.015 228.943,151.922 228.923,151.911 229.456 M153.067 231.552 C 153.067 231.743,154.013 233.836,155.168 236.203 C 156.324 238.570,157.681 241.426,158.184 242.551 C 158.688 243.676,159.247 244.596,159.426 244.596 C 159.606 244.596,159.694 244.464,159.621 244.304 C 159.548 244.143,158.306 241.590,156.862 238.631 C 155.417 235.671,154.230 233.130,154.223 232.983 C 154.204 232.568,153.067 231.161,153.067 231.552 M219.702 235.384 C 219.684 235.780,219.921 236.657,220.229 237.332 C 220.537 238.007,221.065 239.243,221.402 240.079 C 221.740 240.915,222.104 241.512,222.211 241.405 C 222.318 241.298,221.943 240.176,221.377 238.911 C 220.812 237.646,220.211 236.173,220.042 235.638 C 219.820 234.932,219.727 234.862,219.702 235.384 M122.516 238.819 C 121.684 240.604,120.228 243.729,119.280 245.764 C 118.332 247.799,116.975 250.691,116.264 252.191 C 115.553 253.690,114.167 256.626,113.182 258.715 C 112.198 260.803,110.583 264.221,109.593 266.310 C 108.604 268.398,107.344 270.589,106.794 271.178 C 106.244 271.767,105.958 272.246,106.159 272.243 C 106.706 272.232,107.997 270.674,108.734 269.133 C 109.484 267.568,112.897 260.360,115.189 255.501 C 116.049 253.681,117.234 251.139,117.824 249.854 C 118.413 248.569,119.573 246.088,120.402 244.342 C 121.231 242.596,121.908 240.975,121.908 240.739 C 121.908 240.504,122.084 240.312,122.298 240.312 C 122.512 240.312,122.687 240.090,122.687 239.819 C 122.687 239.548,123.047 238.655,123.487 237.835 C 123.926 237.015,124.228 236.170,124.158 235.959 C 124.087 235.747,123.348 237.034,122.516 238.819 M189.679 238.598 C 189.679 238.812,189.836 239.154,190.029 239.357 C 190.222 239.561,191.954 242.795,193.878 246.543 C 195.803 250.292,199.003 256.514,200.990 260.370 C 205.848 269.794,206.037 270.185,206.037 270.789 C 206.037 272.195,205.416 272.249,189.474 272.249 L 173.846 272.249 173.020 271.371 C 172.282 270.584,169.521 265.284,166.486 258.824 C 165.885 257.545,165.318 256.723,165.227 256.996 C 165.136 257.270,165.342 257.804,165.685 258.184 C 166.029 258.563,166.310 259.032,166.310 259.226 C 166.310 260.105,172.328 271.549,173.060 272.063 C 174.158 272.832,205.196 272.934,205.959 272.171 C 206.792 271.338,206.464 270.096,204.325 265.975 C 203.170 263.749,200.790 259.124,199.038 255.696 C 190.071 238.160,189.679 237.443,189.679 238.598 M222.397 242.278 C 222.396 242.611,222.561 243.049,222.763 243.252 C 222.966 243.456,223.690 244.674,224.372 245.959 C 225.055 247.244,225.722 248.384,225.855 248.491 C 225.988 248.598,226.347 249.171,226.653 249.765 C 226.960 250.359,227.661 251.361,228.211 251.990 C 228.761 252.620,229.594 253.627,230.061 254.229 C 232.979 257.990,241.921 265.628,243.404 265.628 C 243.600 265.628,244.006 265.873,244.305 266.172 C 244.995 266.862,250.443 269.424,251.883 269.735 C 252.481 269.865,251.454 269.280,249.602 268.436 C 241.543 264.764,234.406 259.255,229.481 252.904 C 227.800 250.736,223.953 244.907,223.953 244.527 C 223.953 244.361,223.603 243.651,223.176 242.950 C 222.748 242.249,222.398 241.946,222.397 242.278 M159.700 245.315 C 159.694 245.603,159.940 246.304,160.248 246.873 C 160.556 247.441,161.453 249.273,162.241 250.944 C 163.030 252.615,163.750 253.907,163.841 253.815 C 163.932 253.724,163.041 251.656,161.860 249.220 C 160.679 246.784,159.707 245.027,159.700 245.315 M83.090 254.820 C 82.607 255.589,80.480 259.649,78.449 263.681 C 77.424 265.716,76.179 268.034,75.683 268.834 C 73.344 272.601,73.566 272.655,91.016 272.551 L 105.745 272.462 90.750 272.247 C 82.502 272.128,75.711 271.993,75.657 271.946 C 75.279 271.613,75.701 269.492,76.359 268.411 C 77.613 266.354,83.775 254.333,83.575 254.333 C 83.476 254.333,83.258 254.552,83.090 254.820 M163.998 254.528 C 163.998 254.742,164.255 255.257,164.569 255.673 C 164.884 256.089,165.141 256.254,165.141 256.040 C 165.141 255.826,164.884 255.310,164.569 254.894 C 164.255 254.478,163.998 254.314,163.998 254.528 M315.677 266.463 C 314.370 267.111,314.302 267.196,315.256 266.992 C 315.881 266.858,316.752 266.497,317.192 266.188 C 318.313 265.403,317.528 265.546,315.677 266.463 M310.808 268.225 C 309.416 268.746,307.400 269.435,306.329 269.756 C 301.896 271.086,301.904 271.083,303.778 270.862 C 304.731 270.749,305.695 270.512,305.920 270.336 C 306.145 270.159,306.979 269.897,307.773 269.754 C 308.567 269.611,309.707 269.238,310.305 268.926 C 310.903 268.614,311.666 268.358,312.000 268.357 C 312.333 268.356,312.947 268.097,313.363 267.783 C 314.392 267.004,313.793 267.108,310.808 268.225 M253.165 270.243 C 253.165 270.470,253.822 270.779,254.625 270.930 C 255.428 271.080,256.650 271.438,257.339 271.726 C 258.028 272.014,258.992 272.234,259.481 272.216 C 260.452 272.179,259.998 271.993,256.280 270.903 C 255.316 270.620,254.221 270.263,253.846 270.109 C 253.449 269.946,253.165 270.002,253.165 270.243 M298.345 271.689 C 289.180 273.838,271.491 274.476,264.747 272.900 C 263.084 272.512,261.419 272.274,261.047 272.371 C 260.557 272.499,260.620 272.561,261.272 272.594 C 261.768 272.618,262.485 272.805,262.866 273.009 C 265.777 274.567,290.139 274.593,294.218 273.042 C 294.695 272.861,296.121 272.583,297.387 272.425 C 298.654 272.267,300.220 271.907,300.867 271.624 C 302.367 270.971,301.288 270.998,298.345 271.689 " stroke="none" fill="#821362" fill-rule="evenodd"></path><path id="path3" d="M16.748 16.748 C 15.516 17.980,15.516 371.504,16.748 372.736 C 17.525 373.513,18.046 373.515,199.972 373.515 C 395.461 373.515,383.640 373.623,383.642 371.832 C 383.841 158.059,383.586 17.332,382.998 16.682 C 381.935 15.508,17.922 15.573,16.748 16.748 M382.785 17.215 C 383.466 17.897,383.466 371.587,382.785 372.269 C 382.103 372.950,17.897 372.950,17.215 372.269 C 16.534 371.587,16.534 17.897,17.215 17.215 C 17.897 16.534,382.103 16.534,382.785 17.215 M77.441 93.272 C 76.949 94.352,75.200 90.713,95.692 131.256 C 101.701 143.145,109.954 159.451,114.033 167.492 L 121.448 182.111 118.422 187.940 C 116.757 191.145,114.299 195.871,112.958 198.442 C 109.645 204.793,105.110 213.516,102.428 218.695 C 101.208 221.052,99.285 224.732,98.154 226.874 C 97.024 229.017,94.745 233.398,93.090 236.611 C 91.436 239.825,89.118 244.294,87.941 246.543 C 86.763 248.793,84.436 253.262,82.769 256.475 C 81.102 259.688,78.797 264.105,77.649 266.289 C 75.457 270.457,75.157 271.622,76.176 272.013 C 77.443 272.499,104.916 272.263,105.940 271.757 C 107.028 271.219,114.479 256.450,120.625 242.648 C 121.150 241.470,122.078 239.455,122.689 238.169 C 123.299 236.884,124.352 234.606,125.029 233.106 C 126.474 229.902,127.192 228.330,129.081 224.237 C 129.849 222.572,130.477 221.136,130.477 221.047 C 130.477 220.957,131.195 219.339,132.072 217.452 C 134.222 212.830,135.233 210.601,136.544 207.595 C 139.507 200.803,138.895 200.429,144.500 212.463 C 145.198 213.963,146.691 217.118,147.817 219.474 C 148.944 221.831,150.652 225.424,151.613 227.459 C 152.575 229.494,154.414 233.350,155.700 236.027 C 159.344 243.614,162.346 249.890,164.363 254.138 C 170.305 266.653,172.620 271.114,173.456 271.662 C 174.241 272.177,176.496 272.244,189.909 272.156 L 205.453 272.055 205.579 270.957 C 205.705 269.852,205.351 269.091,198.831 256.475 C 197.281 253.476,194.609 248.306,192.893 244.985 C 191.176 241.665,188.150 235.794,186.167 231.938 C 184.184 228.082,181.207 222.298,179.551 219.085 C 177.896 215.871,174.964 210.175,173.037 206.426 C 171.110 202.678,168.608 197.858,167.477 195.716 C 166.346 193.574,163.988 189.010,162.237 185.574 L 159.053 179.327 161.250 175.058 C 162.458 172.710,164.464 168.861,165.708 166.504 C 166.951 164.148,169.544 159.153,171.468 155.404 C 173.393 151.655,175.453 147.712,176.047 146.641 C 176.640 145.570,178.700 141.626,180.624 137.877 C 184.057 131.189,188.417 122.829,191.288 117.429 C 192.086 115.930,193.626 112.950,194.711 110.808 C 195.797 108.666,198.171 104.109,199.987 100.682 C 204.846 91.513,205.945 92.308,188.409 92.308 C 173.000 92.308,173.108 92.288,171.699 95.370 C 170.219 98.608,168.461 102.417,167.182 105.161 C 165.911 107.885,165.191 109.414,160.712 118.890 C 159.776 120.871,158.446 123.720,157.758 125.219 C 157.070 126.719,156.171 128.608,155.761 129.418 C 154.862 131.192,154.827 131.507,155.599 130.867 C 155.920 130.600,156.183 130.206,156.183 129.990 C 156.183 129.775,156.776 128.351,157.501 126.825 C 158.227 125.299,159.696 122.210,160.768 119.961 C 161.839 117.712,163.101 114.995,163.571 113.924 C 164.656 111.453,167.085 106.317,167.532 105.550 C 167.719 105.229,167.968 104.703,168.084 104.382 C 168.200 104.060,168.638 103.149,169.055 102.357 C 169.473 101.565,169.815 100.645,169.815 100.312 C 169.815 99.980,169.978 99.708,170.178 99.708 C 170.378 99.708,170.658 99.314,170.801 98.832 C 172.628 92.660,172.521 92.697,188.768 92.697 C 204.326 92.697,203.654 92.492,201.578 96.618 C 199.383 100.978,196.666 106.083,196.313 106.508 C 196.126 106.733,195.852 107.399,195.705 107.987 C 195.557 108.574,195.299 109.056,195.131 109.056 C 194.964 109.056,194.706 109.537,194.558 110.124 C 194.411 110.712,194.129 111.387,193.933 111.623 C 193.495 112.151,191.468 115.877,189.079 120.545 C 188.092 122.473,186.784 124.927,186.171 125.998 C 185.558 127.069,185.045 128.238,185.031 128.595 C 185.017 128.952,184.862 129.302,184.686 129.374 C 184.511 129.445,183.802 130.643,183.111 132.035 C 182.419 133.427,181.686 134.873,181.482 135.248 C 180.742 136.604,180.354 137.354,178.508 140.993 C 177.476 143.028,176.536 144.781,176.419 144.888 C 176.303 144.995,175.374 146.748,174.355 148.783 C 173.336 150.818,172.335 152.790,172.132 153.165 C 171.320 154.661,170.989 155.295,169.942 157.352 C 169.343 158.530,168.280 160.487,167.581 161.701 C 166.882 162.916,166.310 164.172,166.310 164.493 C 166.310 164.814,166.166 165.135,165.991 165.206 C 165.816 165.278,165.104 166.475,164.408 167.868 C 163.712 169.260,162.094 172.402,160.811 174.851 L 158.479 179.302 159.370 181.180 C 159.861 182.213,160.382 183.057,160.528 183.057 C 160.675 183.057,160.908 183.571,161.046 184.199 C 161.184 184.827,161.548 185.549,161.856 185.805 C 162.163 186.060,162.415 186.576,162.415 186.952 C 162.415 187.328,162.661 187.840,162.961 188.089 C 163.261 188.338,163.626 189.015,163.771 189.593 C 163.916 190.172,164.160 190.734,164.313 190.843 C 164.466 190.952,165.432 192.707,166.459 194.742 C 167.486 196.777,169.873 201.422,171.762 205.063 C 173.652 208.705,176.039 213.350,177.066 215.385 C 178.093 217.420,179.059 219.174,179.212 219.283 C 179.365 219.393,179.611 219.964,179.759 220.553 C 179.907 221.142,180.158 221.704,180.316 221.802 C 180.475 221.900,182.042 224.834,183.800 228.322 C 185.557 231.810,187.188 235.015,187.425 235.443 C 188.031 236.543,188.228 236.922,190.458 241.285 C 192.703 245.680,192.891 246.041,193.492 247.128 C 193.729 247.556,194.732 249.484,195.721 251.412 C 196.710 253.340,197.669 255.180,197.852 255.501 C 198.035 255.823,198.573 256.874,199.048 257.838 C 199.522 258.802,201.113 261.935,202.584 264.800 C 204.055 267.664,205.258 270.425,205.258 270.934 L 205.258 271.860 189.713 271.860 L 174.169 271.860 173.160 270.661 C 172.606 270.002,172.152 269.235,172.152 268.956 C 172.152 268.678,171.889 268.232,171.568 267.965 C 171.246 267.698,170.983 267.164,170.983 266.777 C 170.983 266.390,170.721 265.810,170.399 265.489 C 170.078 265.168,169.815 264.708,169.815 264.467 C 169.815 264.089,169.472 263.352,167.820 260.175 C 166.941 258.485,164.252 252.868,155.327 234.080 C 154.259 231.831,152.544 228.238,151.517 226.095 C 150.490 223.953,148.768 220.360,147.690 218.111 C 146.613 215.862,145.617 213.627,145.478 213.145 C 145.339 212.663,145.062 212.269,144.862 212.269 C 144.662 212.269,144.499 211.986,144.499 211.640 C 144.499 211.092,143.561 209.011,142.500 207.205 C 142.311 206.884,142.059 206.358,141.939 206.037 C 141.464 204.758,139.999 202.065,139.663 201.853 C 139.249 201.591,137.594 203.531,137.256 204.674 C 137.022 205.466,136.597 206.445,134.382 211.295 C 132.027 216.450,131.706 217.145,130.315 220.106 C 129.547 221.739,128.919 223.360,128.919 223.709 C 128.919 224.058,128.747 224.343,128.537 224.343 C 128.327 224.343,128.040 224.825,127.900 225.414 C 127.760 226.003,127.418 226.923,127.140 227.459 C 126.863 227.994,126.252 229.309,125.784 230.380 C 125.315 231.451,124.776 232.590,124.586 232.911 C 124.396 233.233,124.143 233.759,124.023 234.080 C 123.667 235.038,120.570 241.762,118.170 246.786 C 117.441 248.312,116.845 249.758,116.845 249.999 C 116.845 250.241,116.670 250.438,116.456 250.438 C 116.241 250.438,116.066 250.631,116.066 250.866 C 116.066 251.253,115.023 253.558,111.763 260.370 C 111.148 261.655,110.463 263.145,110.241 263.681 C 110.018 264.216,109.671 264.917,109.470 265.239 C 109.268 265.560,108.656 266.817,108.109 268.032 C 106.294 272.062,107.215 271.860,90.697 271.860 L 76.339 271.860 76.339 270.544 C 76.339 269.821,76.585 269.025,76.885 268.776 C 77.185 268.526,77.550 267.849,77.695 267.271 C 77.840 266.693,78.085 266.131,78.240 266.021 C 78.394 265.912,79.375 264.158,80.418 262.123 C 84.416 254.328,86.182 250.955,87.253 249.075 C 87.862 248.004,88.373 246.835,88.387 246.478 C 88.401 246.121,88.556 245.771,88.731 245.699 C 88.906 245.628,89.615 244.430,90.307 243.038 C 91.576 240.483,91.837 239.975,92.610 238.559 C 93.224 237.434,95.303 233.457,98.310 227.653 C 100.813 222.825,101.181 222.119,102.018 220.545 C 102.217 220.170,103.225 218.199,104.257 216.164 C 105.290 214.129,106.353 212.232,106.621 211.949 C 106.889 211.666,107.108 211.106,107.108 210.706 C 107.108 210.305,107.270 209.878,107.467 209.756 C 107.665 209.634,108.378 208.440,109.052 207.104 C 109.726 205.767,111.751 201.870,113.552 198.442 C 115.353 195.015,117.455 190.944,118.222 189.395 C 118.990 187.847,119.782 186.478,119.984 186.354 C 120.186 186.229,120.351 185.845,120.351 185.499 C 120.351 185.154,120.631 184.562,120.974 184.183 C 121.741 183.335,121.788 180.904,121.053 180.015 C 120.755 179.653,119.145 176.641,117.477 173.320 C 115.809 170.000,114.303 167.020,114.130 166.699 C 113.958 166.378,113.347 165.151,112.775 163.973 C 112.202 162.795,111.569 161.524,111.368 161.149 C 111.167 160.774,110.839 160.161,110.638 159.786 C 110.438 159.411,109.813 158.140,109.251 156.962 C 108.688 155.784,108.077 154.557,107.893 154.236 C 107.709 153.914,104.906 148.393,101.664 141.967 C 98.422 135.540,95.271 129.352,94.662 128.214 C 94.053 127.077,93.454 125.850,93.332 125.488 C 93.210 125.126,92.929 124.523,92.708 124.148 C 92.052 123.031,91.722 122.389,88.363 115.677 C 86.595 112.142,85.006 109.192,84.833 109.120 C 84.660 109.049,84.518 108.769,84.518 108.499 C 84.518 108.006,80.154 99.202,79.506 98.389 C 79.316 98.150,79.028 97.517,78.866 96.981 C 78.703 96.446,78.443 95.920,78.286 95.813 C 77.757 95.451,77.523 94.064,77.891 93.476 C 78.207 92.973,80.345 92.892,93.236 92.892 L 108.214 92.892 109.219 93.836 C 109.772 94.355,110.224 94.995,110.224 95.257 C 110.224 95.519,110.826 96.934,111.563 98.402 C 112.299 99.870,113.358 102.035,113.916 103.213 C 114.474 104.391,115.072 105.618,115.246 105.940 C 115.669 106.721,116.730 109.018,117.223 110.224 C 117.443 110.759,117.798 111.504,118.013 111.879 C 118.227 112.254,118.579 112.868,118.794 113.242 C 119.008 113.617,119.366 114.362,119.588 114.898 C 119.811 115.433,120.496 116.923,121.111 118.208 C 124.370 125.020,125.414 127.325,125.414 127.712 C 125.414 127.948,125.575 128.140,125.772 128.140 C 125.970 128.140,126.244 128.654,126.382 129.282 C 126.520 129.910,126.912 130.654,127.255 130.937 C 127.963 131.522,127.989 131.597,126.249 127.945 C 122.797 120.703,121.834 118.675,119.957 114.703 C 118.066 110.702,116.953 108.376,111.812 97.675 C 108.995 91.811,110.737 92.308,92.992 92.308 L 77.880 92.308 77.441 93.272 M292.015 92.645 C 290.583 93.063,290.555 93.504,290.555 115.339 C 290.555 131.974,290.448 136.731,290.068 136.971 C 289.800 137.140,285.970 137.306,281.557 137.341 C 275.930 137.385,272.498 137.598,270.067 138.055 C 263.675 139.257,260.622 140.008,258.753 140.838 C 258.078 141.138,257.320 141.383,257.069 141.383 C 256.288 141.383,247.900 145.502,245.505 147.061 C 234.587 154.169,226.927 163.379,221.722 175.657 C 217.260 186.182,215.500 196.687,215.928 210.238 C 216.198 218.765,217.868 229.437,219.516 233.165 C 219.814 233.840,220.058 234.625,220.058 234.910 C 220.058 236.594,224.816 246.153,227.841 250.549 C 232.001 256.593,239.773 263.440,245.985 266.533 C 249.324 268.196,252.260 269.523,252.597 269.523 C 252.738 269.523,253.404 269.768,254.079 270.068 C 261.691 273.446,282.406 274.829,293.087 272.672 C 294.158 272.456,295.998 272.094,297.176 271.868 C 304.239 270.513,312.047 268.020,318.339 265.111 L 321.392 263.700 321.136 261.061 C 320.995 259.610,320.760 221.318,320.615 175.969 C 320.426 117.006,320.229 93.393,319.923 93.088 C 319.525 92.689,293.289 92.272,292.015 92.645 M319.560 93.457 C 319.686 93.661,319.797 128.321,319.806 170.478 C 319.821 239.492,319.941 250.785,320.767 260.954 L 320.973 263.486 317.546 264.950 C 311.481 267.542,306.485 269.221,301.461 270.356 C 300.497 270.574,298.832 270.994,297.760 271.289 C 288.423 273.862,267.858 273.803,259.396 271.180 C 253.767 269.434,251.470 268.672,250.901 268.362 C 250.539 268.164,249.542 267.701,248.685 267.333 C 242.053 264.484,234.334 258.343,229.649 252.191 C 228.670 250.906,227.725 249.679,227.547 249.464 C 227.370 249.250,227.094 248.812,226.934 248.491 C 226.773 248.169,226.224 247.205,225.713 246.349 C 225.202 245.492,224.326 243.827,223.767 242.648 C 223.207 241.470,222.495 240.041,222.183 239.473 C 221.871 238.904,221.616 238.229,221.616 237.973 C 221.616 237.718,221.372 236.956,221.073 236.281 C 218.436 230.328,216.216 216.790,216.209 206.621 C 216.207 203.836,216.363 200.243,216.556 198.637 C 217.093 194.152,218.025 188.487,218.510 186.758 C 219.831 182.048,220.587 179.617,221.073 178.520 C 221.372 177.844,221.616 177.178,221.616 177.038 C 221.616 176.722,223.074 173.336,223.553 172.541 C 223.746 172.220,224.397 170.993,225.000 169.815 C 225.602 168.637,226.236 167.498,226.408 167.283 C 226.580 167.069,227.452 165.759,228.346 164.372 C 229.240 162.984,230.239 161.568,230.565 161.225 C 230.892 160.881,232.114 159.475,233.283 158.100 C 234.451 156.724,236.618 154.547,238.098 153.262 C 239.579 151.977,240.989 150.746,241.232 150.527 C 243.299 148.666,250.992 144.343,255.307 142.617 C 263.867 139.193,269.358 138.206,280.990 138.004 C 286.617 137.906,290.114 137.692,290.435 137.426 C 290.843 137.087,290.944 132.723,290.944 115.422 L 290.944 93.841 291.821 93.488 C 293.015 93.008,319.264 92.979,319.560 93.457 M127.756 131.975 C 127.753 132.263,128.004 132.964,128.313 133.533 C 128.842 134.503,129.525 135.946,133.596 144.693 C 136.610 151.168,137.020 152.090,137.281 152.970 C 137.424 153.452,137.704 153.846,137.904 153.846 C 138.103 153.846,138.267 154.134,138.267 154.485 C 138.267 154.837,138.603 155.844,139.014 156.725 C 139.425 157.605,139.860 158.636,139.979 159.016 C 140.444 160.491,142.941 160.524,142.941 159.055 C 142.941 158.759,143.291 157.863,143.720 157.064 C 144.148 156.264,144.499 155.301,144.499 154.923 C 144.499 154.545,144.670 154.236,144.881 154.236 C 145.091 154.236,145.377 153.754,145.518 153.165 C 145.658 152.575,146.000 151.655,146.277 151.120 C 146.555 150.584,147.165 149.270,147.634 148.199 C 148.102 147.128,148.641 145.988,148.831 145.667 C 149.022 145.346,149.275 144.820,149.394 144.499 C 149.642 143.831,150.035 142.960,152.288 138.072 C 153.177 136.144,154.190 134.004,154.540 133.316 C 154.889 132.629,155.082 131.973,154.969 131.859 C 154.778 131.669,153.476 134.292,150.341 141.188 C 149.659 142.687,148.663 144.878,148.128 146.056 C 146.472 149.702,145.783 151.208,144.349 154.317 C 143.587 155.969,142.851 157.767,142.714 158.313 C 142.165 160.502,141.062 159.970,139.683 156.852 C 139.095 155.520,138.288 153.729,137.892 152.872 C 129.393 134.497,127.764 131.139,127.756 131.975 M276.923 161.645 C 271.782 162.511,270.072 162.884,269.737 163.216 C 269.534 163.418,269.128 163.583,268.837 163.583 C 268.131 163.583,263.911 165.575,263.746 165.986 C 263.674 166.164,263.383 166.310,263.099 166.310 C 261.810 166.310,255.844 171.838,253.643 175.073 C 253.060 175.930,252.491 176.719,252.379 176.826 C 252.267 176.933,251.961 177.459,251.699 177.994 C 251.437 178.530,251.059 179.231,250.858 179.552 C 250.543 180.057,249.670 181.989,248.482 184.810 C 244.281 194.789,244.394 217.871,248.688 226.933 C 249.008 227.608,249.270 228.328,249.270 228.533 C 249.270 229.057,251.946 234.146,252.613 234.889 C 252.916 235.228,253.165 235.620,253.165 235.761 C 253.165 236.509,258.978 242.473,260.294 243.076 C 260.764 243.291,261.850 243.893,262.707 244.413 C 263.564 244.934,264.528 245.465,264.849 245.594 C 265.170 245.722,265.871 246.024,266.407 246.263 C 271.316 248.457,281.559 248.973,287.823 247.343 C 291.269 246.445,290.946 250.848,290.932 204.906 C 290.918 159.457,291.170 163.078,287.979 162.390 C 282.393 161.187,280.434 161.055,276.923 161.645 M285.776 162.472 C 287.839 162.761,289.194 163.155,289.579 163.581 C 290.440 164.532,290.494 245.213,289.634 246.073 C 288.779 246.928,283.732 247.775,279.260 247.813 C 270.607 247.889,263.317 245.371,257.844 240.418 C 255.258 238.079,251.846 233.487,250.819 230.964 C 250.601 230.428,250.258 229.640,250.058 229.211 C 245.571 219.609,244.499 201.400,247.702 189.209 C 252.710 170.150,267.317 159.893,285.776 162.472 " stroke="none" fill="#9c1474" fill-rule="evenodd"></path><path id="path4" d="M383.056 194.937 C 383.056 291.762,383.100 331.315,383.155 282.831 C 383.209 234.347,383.209 155.126,383.155 106.784 C 383.100 58.442,383.056 98.111,383.056 194.937 M299.416 92.599 C 302.683 92.664,308.028 92.664,311.295 92.599 C 314.562 92.534,311.889 92.481,305.355 92.481 C 298.822 92.481,296.149 92.534,299.416 92.599 M277.609 137.374 C 278.094 137.467,278.795 137.463,279.167 137.366 C 279.540 137.268,279.143 137.192,278.286 137.197 C 277.429 137.201,277.125 137.281,277.609 137.374 M285.979 137.367 C 286.353 137.465,286.967 137.465,287.342 137.367 C 287.717 137.269,287.410 137.189,286.660 137.189 C 285.910 137.189,285.604 137.269,285.979 137.367 M277.799 247.991 C 278.389 248.080,279.352 248.080,279.942 247.991 C 280.531 247.902,280.049 247.828,278.870 247.828 C 277.692 247.828,277.210 247.902,277.799 247.991 M320.657 251.412 C 320.660 252.483,320.735 252.875,320.825 252.283 C 320.914 251.691,320.912 250.814,320.819 250.335 C 320.727 249.856,320.654 250.341,320.657 251.412 " stroke="none" fill="#8d146c" fill-rule="evenodd"></path></g></svg>